Hack-Bold.ufo
<glyph name="exclam" format="1">
  <advance width="1233"/>
  <unicode hex="0021"/>
  <outline>
    <contour>
      <point x="470" y="1052" type="line" name="ih01"/>
      <point x="470" y="1508" type="line" name="at01"/>
      <point x="755" y="1508" type="line"/>
      <point x="755" y="1052" type="line" name="sh01"/>
      <point x="687" y="476" type="line"/>
      <point x="548" y="476" type="line"/>
    </contour>
    <contour>
      <point x="615" y="-72" type="curve" smooth="yes" name="dv01"/>
      <point x="564" y="-72"/>
      <point x="522" y="-52" name="dh01"/>
      <point x="491" y="-21" type="curve" smooth="yes"/>
      <point x="458" y="12"/>
      <point x="441" y="57"/>
      <point x="441" y="113" type="curve" smooth="yes"/>
      <point x="441" y="168"/>
      <point x="458" y="211" name="dv02"/>
      <point x="491" y="244" type="curve" smooth="yes"/>
      <point x="506" y="259" name="dh02"/>
      <point x="507" y="259"/>
      <point x="512" y="264" type="curve" smooth="yes"/>
      <point x="517" y="268"/>
      <point x="526" y="274"/>
      <point x="535" y="278" type="curve" smooth="yes"/>
      <point x="560" y="288" type="line"/>
      <point x="586" y="294" type="line"/>
      <point x="594" y="295"/>
      <point x="606" y="296"/>
      <point x="617" y="296" type="curve" smooth="yes"/>
      <point x="662" y="296"/>
      <point x="708" y="278"/>
      <point x="740" y="245" type="curve" smooth="yes"/>
      <point x="773" y="212"/>
      <point x="789" y="167"/>
      <point x="789" y="112" type="curve" smooth="yes"/>
      <point x="789" y="96"/>
      <point x="787" y="80"/>
      <point x="784" y="63" type="curve" smooth="yes"/>
      <point x="781" y="46"/>
      <point x="778" y="37"/>
      <point x="767" y="18" type="curve" smooth="yes"/>
      <point x="759" y="3"/>
      <point x="755" y="-3"/>
      <point x="739" y="-20" type="curve" smooth="yes"/>
      <point x="720" y="-40"/>
      <point x="706" y="-50"/>
      <point x="683" y="-59" type="curve"/>
      <point x="660" y="-70"/>
      <point x="638" y="-72"/>
    </contour>
  </outline>
</glyph>
<glyph name="dollar" format="1">
  <advance width="1233"/>
  <unicode hex="0024"/>
  <outline>
    <contour>
      <point x="512" y="0" type="line" name="sh01"/>
      <point x="482" y="2"/>
      <point x="435" y="11" name="sh02"/>
      <point x="370" y="26" type="curve" name="ih01" smooth="yes"/>
      <point x="307" y="41"/>
      <point x="241" y="63" name="dh03"/>
      <point x="172" y="92" type="curve"/>
      <point x="172" y="354" type="line"/>
      <point x="241" y="313" name="dh01"/>
      <point x="307" y="282"/>
      <point x="372" y="260" type="curve" name="sh03" smooth="yes"/>
      <point x="440" y="237" name="sh05"/>
      <point x="497" y="227" name="sh06"/>
      <point x="553" y="226" type="curve"/>
      <point x="553" y="555" type="line"/>
      <point x="422" y="581"/>
      <point x="324" y="626" name="sh07"/>
      <point x="260" y="690" type="curve" smooth="yes"/>
      <point x="196" y="753" name="sh08"/>
      <point x="164" y="837"/>
      <point x="164" y="943" type="curve" smooth="yes"/>
      <point x="164" y="1054" name="dh06"/>
      <point x="198" y="1142"/>
      <point x="266" y="1208" type="curve" smooth="yes"/>
      <point x="334" y="1274" name="sh09"/>
      <point x="416" y="1311" name="av01"/>
      <point x="513" y="1319" type="curve" name="sh10"/>
      <point x="513" y="1556" type="line" name="sh04"/>
      <point x="734" y="1556" type="line"/>
      <point x="735" y="1319" type="line" name="dh02"/>
      <point x="843" y="1301" type="line" smooth="yes"/>
      <point x="888" y="1293" name="ih02"/>
      <point x="939" y="1281" name="dh04"/>
      <point x="999" y="1262" type="curve"/>
      <point x="999" y="1006" type="line" name="dh05"/>
      <point x="955" y="1035"/>
      <point x="906" y="1055"/>
      <point x="861" y="1070" type="curve" smooth="yes"/>
      <point x="809" y="1086" name="sh11"/>
      <point x="755" y="1096"/>
      <point x="694" y="1100" type="curve"/>
      <point x="694" y="793" type="line"/>
      <point x="827" y="772"/>
      <point x="926" y="727"/>
      <point x="992" y="659" type="curve" smooth="yes"/>
      <point x="1060" y="590"/>
      <point x="1092" y="497"/>
      <point x="1092" y="386" type="curve" smooth="yes"/>
      <point x="1092" y="271"/>
      <point x="1056" y="185"/>
      <point x="984" y="114" type="curve" smooth="yes"/>
      <point x="943" y="75"/>
      <point x="898" y="47"/>
      <point x="849" y="30" type="curve" smooth="yes"/>
      <point x="800" y="13"/>
      <point x="762" y="3"/>
      <point x="735" y="0" type="curve"/>
      <point x="734" y="-301" type="line"/>
      <point x="513" y="-301" type="line"/>
    </contour>
    <contour>
      <point x="553" y="1100" type="line"/>
      <point x="512" y="1095"/>
      <point x="481" y="1082"/>
      <point x="460" y="1059" type="curve" smooth="yes"/>
      <point x="441" y="1040"/>
      <point x="428" y="1010"/>
      <point x="428" y="967" type="curve" smooth="yes"/>
      <point x="428" y="929"/>
      <point x="439" y="897"/>
      <point x="460" y="872" type="curve" smooth="yes"/>
      <point x="482" y="846"/>
      <point x="513" y="828"/>
      <point x="553" y="817" type="curve"/>
    </contour>
    <contour>
      <point x="694" y="226" type="line"/>
      <point x="742" y="233"/>
      <point x="771" y="251"/>
      <point x="792" y="275" type="curve" smooth="yes"/>
      <point x="815" y="302"/>
      <point x="827" y="335"/>
      <point x="827" y="376" type="curve" smooth="yes"/>
      <point x="827" y="417"/>
      <point x="816" y="450"/>
      <point x="793" y="477" type="curve" smooth="yes"/>
      <point x="772" y="501"/>
      <point x="741" y="519"/>
      <point x="694" y="528" type="curve"/>
    </contour>
  </outline>
</glyph>
<glyph name="ampersand" format="1">
  <advance width="1233"/>
  <unicode hex="0026"/>
  <outline>
    <contour>
      <point x="537" y="-29" type="curve" smooth="yes" name="dv01"/>
      <point x="390" y="-29"/>
      <point x="269" y="15" name="dh01"/>
      <point x="176" y="102" type="curve" smooth="yes"/>
      <point x="83" y="189"/>
      <point x="37" y="302"/>
      <point x="37" y="442" type="curve" smooth="yes" name="ih01"/>
      <point x="37" y="546"/>
      <point x="61" y="629" name="at01"/>
      <point x="108" y="706" type="curve" smooth="yes" name="at02"/>
      <point x="156" y="786"/>
      <point x="224" y="853" name="ih02"/>
      <point x="317" y="913" type="curve"/>
      <point x="281" y="970" name="sv01"/>
      <point x="258" y="1018"/>
      <point x="243" y="1058" type="curve" smooth="yes" name="sh01"/>
      <point x="227" y="1102"/>
      <point x="219" y="1142"/>
      <point x="219" y="1189" type="curve" smooth="yes" name="ih03"/>
      <point x="219" y="1290"/>
      <point x="255" y="1374" name="sh02"/>
      <point x="328" y="1433" type="curve" smooth="yes" name="dh03"/>
      <point x="401" y="1491" name="sh03"/>
      <point x="506" y="1520"/>
      <point x="643" y="1520" type="curve" smooth="yes" name="dh04"/>
      <point x="694" y="1520"/>
      <point x="739" y="1516"/>
      <point x="786" y="1509" type="curve" smooth="yes" name="ab01"/>
      <point x="839" y="1501"/>
      <point x="877" y="1492"/>
      <point x="924" y="1477" type="curve" name="ab02"/>
      <point x="924" y="1221" type="line"/>
      <point x="887" y="1242" name="dv02"/>
      <point x="834" y="1265"/>
      <point x="795" y="1276" type="curve" smooth="yes"/>
      <point x="756" y="1287"/>
      <point x="708" y="1294"/>
      <point x="663" y="1294" type="curve" smooth="yes"/>
      <point x="612" y="1294"/>
      <point x="570" y="1285" name="dh02"/>
      <point x="543" y="1266" type="curve" smooth="yes"/>
      <point x="516" y="1247"/>
      <point x="502" y="1220"/>
      <point x="502" y="1186" type="curve" smooth="yes" name="sh04"/>
      <point x="502" y="1159"/>
      <point x="510" y="1130"/>
      <point x="533" y="1085" type="curve" smooth="yes"/>
      <point x="554" y="1042"/>
      <point x="583" y="993"/>
      <point x="631" y="920" type="curve" smooth="yes"/>
      <point x="944" y="440" type="line"/>
      <point x="959" y="466"/>
      <point x="969" y="495"/>
      <point x="976" y="527" type="curve" smooth="yes"/>
      <point x="983" y="562"/>
      <point x="987" y="597"/>
      <point x="987" y="633" type="curve" smooth="yes"/>
      <point x="987" y="652"/>
      <point x="986" y="675"/>
      <point x="985" y="692" type="curve" smooth="yes"/>
      <point x="984" y="712"/>
      <point x="983" y="722"/>
      <point x="979" y="745" type="curve"/>
      <point x="1214" y="745" type="line"/>
      <point x="1214" y="694" type="line" smooth="yes"/>
      <point x="1214" y="596"/>
      <point x="1203" y="512"/>
      <point x="1180" y="441" type="curve" smooth="yes"/>
      <point x="1157" y="367"/>
      <point x="1121" y="302"/>
      <point x="1073" y="246" type="curve"/>
      <point x="1235" y="0" type="line"/>
      <point x="918" y="0" type="line"/>
      <point x="870" y="72" type="line"/>
      <point x="818" y="37"/>
      <point x="770" y="16"/>
      <point x="711" y="-3" type="curve" smooth="yes"/>
      <point x="655" y="-20"/>
      <point x="604" y="-29"/>
    </contour>
    <contour>
      <point x="580" y="207" type="curve" smooth="yes"/>
      <point x="600" y="207"/>
      <point x="613" y="209"/>
      <point x="636" y="214" type="curve" smooth="yes"/>
      <point x="655" y="218"/>
      <point x="669" y="221"/>
      <point x="693" y="232" type="curve" smooth="yes"/>
      <point x="701" y="236" type="line" smooth="yes"/>
      <point x="728" y="250"/>
      <point x="732" y="251"/>
      <point x="748" y="262" type="curve"/>
      <point x="440" y="731" type="line"/>
      <point x="396" y="702"/>
      <point x="363" y="668"/>
      <point x="341" y="629" type="curve" smooth="yes"/>
      <point x="318" y="590"/>
      <point x="307" y="545"/>
      <point x="307" y="494" type="curve" smooth="yes"/>
      <point x="307" y="406"/>
      <point x="340" y="339"/>
      <point x="385" y="291" type="curve" smooth="yes"/>
      <point x="438" y="235"/>
      <point x="503" y="207"/>
    </contour>
  </outline>
</glyph>
<glyph name="parenleft" format="1">
  <advance width="1233"/>
  <unicode hex="0028"/>
  <outline>
    <contour>
      <point x="596" y="-270" type="line" name="av01"/>
      <point x="497" y="-127"/>
      <point x="416" y="23" name="dh01"/>
      <point x="360" y="186" type="curve" smooth="yes"/>
      <point x="309" y="336" name="at01"/>
      <point x="283" y="488"/>
      <point x="283" y="643" type="curve" smooth="yes"/>
      <point x="283" y="797" name="dh02"/>
      <point x="309" y="950"/>
      <point x="361" y="1101" type="curve" name="av02" smooth="yes"/>
      <point x="412" y="1248"/>
      <point x="484" y="1393"/>
      <point x="596" y="1554" type="curve"/>
      <point x="824" y="1554" type="line"/>
      <point x="739" y="1399"/>
      <point x="672" y="1244"/>
      <point x="628" y="1091" type="curve" smooth="yes"/>
      <point x="585" y="943"/>
      <point x="564" y="794"/>
      <point x="564" y="643" type="curve" smooth="yes"/>
      <point x="564" y="494"/>
      <point x="585" y="345"/>
      <point x="628" y="196" type="curve" smooth="yes"/>
      <point x="671" y="45"/>
      <point x="737" y="-111"/>
      <point x="824" y="-270" type="curve"/>
    </contour>
  </outline>
</glyph>
<glyph name="parenright" format="1">
  <advance width="1233"/>
  <unicode hex="0029"/>
  <outline>
    <contour>
      <point x="409" y="-270" type="line" name="av01"/>
      <point x="496" y="-111"/>
      <point x="562" y="45" name="dh01"/>
      <point x="605" y="196" type="curve" smooth="yes"/>
      <point x="648" y="345" name="at01"/>
      <point x="669" y="494"/>
      <point x="669" y="643" type="curve" smooth="yes"/>
      <point x="669" y="794" name="dh02"/>
      <point x="648" y="943"/>
      <point x="605" y="1091" type="curve" smooth="yes" name="av02"/>
      <point x="562" y="1238"/>
      <point x="498" y="1393"/>
      <point x="409" y="1554" type="curve" name="sh01"/>
      <point x="637" y="1554" type="line"/>
      <point x="743" y="1401"/>
      <point x="822" y="1250"/>
      <point x="873" y="1101" type="curve" smooth="yes"/>
      <point x="925" y="949"/>
      <point x="950" y="792"/>
      <point x="950" y="641" type="curve" smooth="yes"/>
      <point x="950" y="488"/>
      <point x="924" y="336"/>
      <point x="873" y="186" type="curve" smooth="yes"/>
      <point x="820" y="30"/>
      <point x="742" y="-117"/>
      <point x="637" y="-270" type="curve"/>
    </contour>
  </outline>
</glyph>
<glyph name="plus" format="1">
  <advance width="1233"/>
  <unicode hex="002B"/>
  <outline>
    <contour>
      <point x="498" y="524" type="line" name="dh01"/>
      <point x="66" y="524" type="line"/>
      <point x="66" y="762" type="line"/>
      <point x="498" y="762" type="line" name="sh01"/>
      <point x="498" y="1192" type="line" name="av02"/>
      <point x="735" y="1192" type="line" name="sh02"/>
      <point x="735" y="762" type="line" name="sv01"/>
      <point x="1165" y="762" type="line"/>
      <point x="1165" y="524" type="line" name="sv02"/>
      <point x="735" y="524" type="line" name="dh02"/>
      <point x="735" y="92" type="line" name="av01"/>
      <point x="498" y="92" type="line"/>
    </contour>
  </outline>
</glyph>
<glyph name="period" format="1">
  <advance width="1233"/>
  <unicode hex="002E"/>
  <outline>
    <contour>
      <point x="612" y="-42" type="curve" smooth="yes" name="dv01"/>
      <point x="560" y="-42"/>
      <point x="521" y="-23" name="dh01"/>
      <point x="488" y="10" type="curve" smooth="yes"/>
      <point x="453" y="45" name="dv02"/>
      <point x="436" y="88"/>
      <point x="436" y="141" type="curve" smooth="yes" name="dh02"/>
      <point x="436" y="196"/>
      <point x="453" y="240"/>
      <point x="488" y="275" type="curve" smooth="yes"/>
      <point x="522" y="309"/>
      <point x="564" y="326"/>
      <point x="613" y="326" type="curve" smooth="yes"/>
      <point x="661" y="326"/>
      <point x="704" y="310"/>
      <point x="739" y="275" type="curve" smooth="yes"/>
      <point x="773" y="241"/>
      <point x="790" y="196"/>
      <point x="790" y="141" type="curve" smooth="yes"/>
      <point x="790" y="88"/>
      <point x="773" y="44"/>
      <point x="739" y="10" type="curve" smooth="yes"/>
      <point x="704" y="-25"/>
      <point x="662" y="-42"/>
    </contour>
  </outline>
</glyph>
<glyph name="zero" format="1">
  <advance width="1233"/>
  <unicode hex="0030"/>
  <outline>
    <contour>
      <point x="617" y="-29" type="curve" name="dv01" smooth="yes"/>
      <point x="452" y="-29"/>
      <point x="328" y="36" name="sh01"/>
      <point x="246" y="165" type="curve" smooth="yes"/>
      <point x="164" y="294" name="at01"/>
      <point x="123" y="487"/>
      <point x="123" y="745" type="curve" name="sh04" smooth="yes"/>
      <point x="123" y="1004"/>
      <point x="164" y="1198"/>
      <point x="246" y="1327" type="curve" name="dv02" smooth="yes"/>
      <point x="328" y="1456"/>
      <point x="451" y="1520" name="sh03"/>
      <point x="616" y="1520" type="curve" smooth="yes"/>
      <point x="781" y="1520" name="sv01"/>
      <point x="905" y="1456"/>
      <point x="987" y="1327" type="curve" name="sh05" smooth="yes"/>
      <point x="1069" y="1198"/>
      <point x="1110" y="1004"/>
      <point x="1110" y="745" type="curve" smooth="yes"/>
      <point x="1110" y="486" name="sh06"/>
      <point x="1069" y="293" name="sh02"/>
      <point x="987" y="164" type="curve" name="sh07" smooth="yes"/>
      <point x="905" y="35"/>
      <point x="782" y="-29" name="sh09"/>
    </contour>
    <contour>
      <point x="616" y="221" type="curve" name="sh08" smooth="yes"/>
      <point x="685" y="221" name="sh10"/>
      <point x="735" y="263"/>
      <point x="766" y="346" type="curve" name="ah01" smooth="yes"/>
      <point x="797" y="430" name="sh11"/>
      <point x="813" y="563"/>
      <point x="813" y="745" type="curve" smooth="yes"/>
      <point x="813" y="928"/>
      <point x="797" y="1061"/>
      <point x="766" y="1145" type="curve" smooth="yes"/>
      <point x="735" y="1228"/>
      <point x="685" y="1270"/>
      <point x="616" y="1270" type="curve" smooth="yes"/>
      <point x="548" y="1270"/>
      <point x="498" y="1228"/>
      <point x="467" y="1145" type="curve" smooth="yes"/>
      <point x="436" y="1061"/>
      <point x="420" y="928"/>
      <point x="420" y="745" type="curve" smooth="yes"/>
      <point x="420" y="563"/>
      <point x="436" y="430"/>
      <point x="467" y="346" type="curve" smooth="yes"/>
      <point x="498" y="263"/>
      <point x="548" y="221"/>
    </contour>
    <contour>
      <point x="617" y="460" type="curve" smooth="yes"/>
      <point x="595" y="460"/>
      <point x="584" y="518"/>
      <point x="576" y="578" type="curve"/>
      <point x="571" y="629"/>
      <point x="564" y="712"/>
      <point x="564" y="749" type="curve" smooth="yes"/>
      <point x="564" y="775"/>
      <point x="566" y="854"/>
      <point x="574" y="915" type="curve" smooth="yes"/>
      <point x="583" y="993"/>
      <point x="596" y="1032"/>
      <point x="615" y="1032" type="curve" smooth="yes"/>
      <point x="635" y="1032"/>
      <point x="650" y="982"/>
      <point x="658" y="913" type="curve"/>
      <point x="663" y="857"/>
      <point x="669" y="779"/>
      <point x="669" y="743" type="curve" smooth="yes"/>
      <point x="669" y="720"/>
      <point x="668" y="645"/>
      <point x="660" y="579" type="curve" smooth="yes"/>
      <point x="651" y="499"/>
      <point x="636" y="460"/>
    </contour>
  </outline>
</glyph>
<glyph name="one" format="1">
  <advance width="1233"/>
  <unicode hex="0031"/>
  <outline>
    <contour>
      <point x="188" y="260" type="line" name="sv01"/>
      <point x="518" y="260" type="line" name="dh01"/>
      <point x="518" y="1229" type="line"/>
      <point x="211" y="1153" type="line"/>
      <point x="211" y="1419" type="line"/>
      <point x="520" y="1493" type="line" name="at01"/>
      <point x="805" y="1493" type="line"/>
      <point x="805" y="260" type="line" name="dh02"/>
      <point x="1135" y="260" type="line" name="sv02"/>
      <point x="1135" y="0" type="line" name="ab01"/>
      <point x="188" y="0" type="line"/>
    </contour>
  </outline>
</glyph>
<glyph name="four" format="1">
  <advance width="1233"/>
  <unicode hex="0034"/>
  <outline>
    <contour>
      <point x="694" y="322" type="line" name="dh01"/>
      <point x="102" y="322" type="line"/>
      <point x="102" y="608" type="line"/>
      <point x="668" y="1493" type="line" name="at01"/>
      <point x="977" y="1493" type="line" name="sh01"/>
      <point x="977" y="575" type="line" name="sv01"/>
      <point x="1141" y="575" type="line"/>
      <point x="1141" y="322" type="line" name="sv02"/>
      <point x="977" y="322" type="line" name="dh02"/>
      <point x="977" y="0" type="line" name="ab01"/>
      <point x="694" y="0" type="line"/>
    </contour>
    <contour>
      <point x="694" y="575" type="line" name="sh02"/>
      <point x="694" y="1165" type="line"/>
      <point x="317" y="575" type="line"/>
    </contour>
  </outline>
</glyph>
<glyph name="five" format="1">
  <advance width="1233"/>
  <unicode hex="0035"/>
  <outline>
    <contour>
      <point x="533" y="-29" type="curve" smooth="yes" name="dv01"/>
      <point x="476" y="-29"/>
      <point x="408" y="-24"/>
      <point x="343" y="-13" type="curve" smooth="yes"/>
      <point x="276" y="-2"/>
      <point x="208" y="15" name="dv02"/>
      <point x="143" y="35" type="curve"/>
      <point x="143" y="301" type="line" name="ah02"/>
      <point x="203" y="272"/>
      <point x="253" y="255" name="dv03"/>
      <point x="314" y="240" type="curve" smooth="yes"/>
      <point x="374" y="225" name="sh01"/>
      <point x="428" y="219" name="at01"/>
      <point x="488" y="219" type="curve" smooth="yes"/>
      <point x="593" y="219" name="sv01"/>
      <point x="673" y="241"/>
      <point x="726" y="286" type="curve" smooth="yes" name="sh02"/>
      <point x="780" y="331"/>
      <point x="807" y="394" name="dv04"/>
      <point x="807" y="475" type="curve" smooth="yes"/>
      <point x="807" y="563" name="sh03"/>
      <point x="775" y="625"/>
      <point x="727" y="668" type="curve" smooth="yes"/>
      <point x="679" y="711" name="ah01"/>
      <point x="607" y="737" name="sh04"/>
      <point x="508" y="737" type="curve" smooth="yes"/>
      <point x="461" y="737"/>
      <point x="407" y="731"/>
      <point x="354" y="718" type="curve" smooth="yes"/>
      <point x="299" y="705"/>
      <point x="240" y="682"/>
      <point x="193" y="659" type="curve"/>
      <point x="193" y="1493" type="line"/>
      <point x="1004" y="1493" type="line"/>
      <point x="1004" y="1233" type="line"/>
      <point x="432" y="1233" type="line"/>
      <point x="432" y="956" type="line"/>
      <point x="445" y="961"/>
      <point x="478" y="972"/>
      <point x="509" y="977" type="curve" smooth="yes"/>
      <point x="533" y="981"/>
      <point x="570" y="983"/>
      <point x="598" y="983" type="curve" smooth="yes"/>
      <point x="739" y="983"/>
      <point x="868" y="935"/>
      <point x="957" y="844" type="curve" smooth="yes"/>
      <point x="1044" y="756"/>
      <point x="1094" y="630"/>
      <point x="1094" y="477" type="curve" smooth="yes"/>
      <point x="1094" y="318"/>
      <point x="1040" y="194"/>
      <point x="945" y="107" type="curve" smooth="yes"/>
      <point x="850" y="20"/>
      <point x="716" y="-29"/>
    </contour>
  </outline>
</glyph>
<glyph name="seven" format="1">
  <advance width="1233"/>
  <unicode hex="0037"/>
  <outline>
    <contour>
      <point x="758" y="1233" type="line" name="sv01"/>
      <point x="135" y="1233" type="line"/>
      <point x="135" y="1493" type="line" name="at01"/>
      <point x="1079" y="1493" type="line"/>
      <point x="1079" y="1284" type="line"/>
      <point x="573" y="0" type="line" name="ab01"/>
      <point x="272" y="0" type="line"/>
    </contour>
  </outline>
</glyph>
<glyph name="B" format="1">
  <advance width="1233"/>
  <unicode hex="0042"/>
  <outline>
    <contour>
      <point x="125" y="1495" type="line" name="dh01"/>
      <point x="606" y="1495" type="line" smooth="yes"/>
      <point x="773" y="1495"/>
      <point x="898" y="1464" name="dh04"/>
      <point x="981" y="1401" type="curve" smooth="yes"/>
      <point x="1064" y="1338" name="ih01"/>
      <point x="1106" y="1243"/>
      <point x="1106" y="1118" type="curve" name="sh01" smooth="yes"/>
      <point x="1106" y="1023"/>
      <point x="1081" y="948" name="ab01"/>
      <point x="1032" y="893" type="curve" smooth="yes"/>
      <point x="983" y="840" name="dv02"/>
      <point x="911" y="808"/>
      <point x="815" y="799" type="curve" name="dh03"/>
      <point x="932" y="788"/>
      <point x="1017" y="748" name="sv01"/>
      <point x="1073" y="684" type="curve" name="dh02" smooth="yes"/>
      <point x="1130" y="619"/>
      <point x="1159" y="527" name="sv02"/>
      <point x="1159" y="409" type="curve" smooth="yes"/>
      <point x="1159" y="266" name="ih02"/>
      <point x="1116" y="162"/>
      <point x="1029" y="97" type="curve" name="dv01" smooth="yes"/>
      <point x="942" y="32" name="sh02"/>
      <point x="801" y="0"/>
      <point x="606" y="0" type="curve" smooth="yes"/>
      <point x="125" y="0" type="line" name="sh03"/>
    </contour>
    <contour>
      <point x="606" y="913" type="line" smooth="yes"/>
      <point x="686" y="913"/>
      <point x="734" y="926"/>
      <point x="766" y="954" type="curve" smooth="yes"/>
      <point x="797" y="981"/>
      <point x="813" y="1018"/>
      <point x="813" y="1085" type="curve" smooth="yes"/>
      <point x="813" y="1144"/>
      <point x="800" y="1187"/>
      <point x="765" y="1218" type="curve" smooth="yes"/>
      <point x="737" y="1242"/>
      <point x="693" y="1260"/>
      <point x="606" y="1260" type="curve" smooth="yes"/>
      <point x="410" y="1260" type="line"/>
      <point x="410" y="913" type="line"/>
    </contour>
    <contour>
      <point x="606" y="236" type="line" smooth="yes"/>
      <point x="700" y="236"/>
      <point x="766" y="252"/>
      <point x="804" y="284" type="curve" smooth="yes"/>
      <point x="841" y="316"/>
      <point x="860" y="372"/>
      <point x="860" y="451" type="curve" smooth="yes"/>
      <point x="860" y="532"/>
      <point x="840" y="590"/>
      <point x="801" y="625" type="curve" smooth="yes"/>
      <point x="762" y="660"/>
      <point x="697" y="678"/>
      <point x="606" y="678" type="curve" smooth="yes"/>
      <point x="410" y="678" type="line"/>
      <point x="410" y="236" type="line"/>
    </contour>
  </outline>
</glyph>
<glyph name="D" format="1">
  <advance width="1233"/>
  <unicode hex="0044"/>
  <outline>
    <contour>
      <point x="137" y="1493" type="line" name="sh01"/>
      <point x="453" y="1493" type="line" smooth="yes"/>
      <point x="697" y="1493"/>
      <point x="873" y="1435" name="sh02"/>
      <point x="980" y="1319" type="curve" smooth="yes"/>
      <point x="1085" y="1204" name="ab01"/>
      <point x="1141" y="1018"/>
      <point x="1141" y="747" type="curve" name="sv01" smooth="yes"/>
      <point x="1141" y="484"/>
      <point x="1087" y="293" name="ah02"/>
      <point x="980" y="176" type="curve" smooth="yes"/>
      <point x="873" y="59" name="sv02"/>
      <point x="697" y="0" name="sh03"/>
      <point x="453" y="0" type="curve" smooth="yes"/>
      <point x="137" y="0" type="line" name="ah01"/>
    </contour>
    <contour>
      <point x="512" y="266" type="line" name="sh04" smooth="yes"/>
      <point x="628" y="266"/>
      <point x="711" y="303"/>
      <point x="760" y="376" type="curve" smooth="yes"/>
      <point x="809" y="449"/>
      <point x="834" y="573"/>
      <point x="834" y="748" type="curve" smooth="yes"/>
      <point x="834" y="921"/>
      <point x="809" y="1045"/>
      <point x="760" y="1118" type="curve" smooth="yes"/>
      <point x="711" y="1191"/>
      <point x="629" y="1227"/>
      <point x="512" y="1227" type="curve" smooth="yes"/>
      <point x="432" y="1227" type="line"/>
      <point x="432" y="266" type="line"/>
    </contour>
  </outline>
</glyph>
<glyph name="I" format="1">
  <advance width="1233"/>
  <unicode hex="0049"/>
  <outline>
    <contour>
      <point x="172" y="260" type="line" name="sv01"/>
      <point x="469" y="260" type="line" name="dh01"/>
      <point x="469" y="1233" type="line" name="sv02"/>
      <point x="172" y="1233" type="line"/>
      <point x="172" y="1493" type="line" name="at01"/>
      <point x="1061" y="1493" type="line"/>
      <point x="1061" y="1233" type="line" name="sv03"/>
      <point x="764" y="1233" type="line" name="sv04"/>
      <point x="764" y="260" type="line" name="dh02"/>
      <point x="1061" y="260" type="line" name="sv05"/>
      <point x="1061" y="0" type="line" name="ab01"/>
      <point x="172" y="0" type="line"/>
    </contour>
  </outline>
</glyph>
<glyph name="J" format="1">
  <advance width="1233"/>
  <unicode hex="004A"/>
  <outline>
    <contour>
      <point x="524" y="-29" type="curve" smooth="yes" name="dv01"/>
      <point x="447" y="-29"/>
      <point x="387" y="-20"/>
      <point x="318" y="-3" type="curve" smooth="yes"/>
      <point x="250" y="14"/>
      <point x="184" y="38" name="dv02"/>
      <point x="109" y="74" type="curve"/>
      <point x="109" y="416" type="line" name="dh01"/>
      <point x="166" y="356" name="sv01"/>
      <point x="228" y="313"/>
      <point x="293" y="282" type="curve" smooth="yes" name="at01"/>
      <point x="357" y="251"/>
      <point x="423" y="236" name="dh02"/>
      <point x="490" y="236" type="curve" smooth="yes"/>
      <point x="567" y="236"/>
      <point x="623" y="255"/>
      <point x="659" y="294" type="curve" smooth="yes" name="sh01"/>
      <point x="695" y="333"/>
      <point x="713" y="394"/>
      <point x="713" y="479" type="curve" smooth="yes"/>
      <point x="713" y="1233" type="line"/>
      <point x="352" y="1233" type="line"/>
      <point x="352" y="1493" type="line"/>
      <point x="1008" y="1493" type="line"/>
      <point x="1008" y="479" type="line" smooth="yes"/>
      <point x="1008" y="297"/>
      <point x="970" y="167"/>
      <point x="894" y="89" type="curve" smooth="yes"/>
      <point x="817" y="9"/>
      <point x="685" y="-29"/>
    </contour>
  </outline>
</glyph>
<glyph name="P" format="1">
  <advance width="1233"/>
  <unicode hex="0050"/>
  <outline>
    <contour>
      <point x="166" y="1493" type="line" name="sh01"/>
      <point x="571" y="1493" type="line" smooth="yes"/>
      <point x="776" y="1493"/>
      <point x="925" y="1456" name="sh02"/>
      <point x="1016" y="1383" type="curve" smooth="yes"/>
      <point x="1106" y="1310" name="dv01"/>
      <point x="1151" y="1191" name="sh04"/>
      <point x="1151" y="1026" type="curve" name="ab01" smooth="yes"/>
      <point x="1151" y="861"/>
      <point x="1106" y="742" name="dv02"/>
      <point x="1016" y="669" type="curve" smooth="yes"/>
      <point x="925" y="596" name="ah02"/>
      <point x="776" y="559"/>
      <point x="571" y="559" type="curve" name="sv01" smooth="yes"/>
      <point x="461" y="559" type="line" name="sh03"/>
      <point x="461" y="0" type="line"/>
      <point x="166" y="0" type="line" name="ah01"/>
    </contour>
    <contour>
      <point x="582" y="807" type="line" name="sh05" smooth="yes"/>
      <point x="679" y="807"/>
      <point x="747" y="823"/>
      <point x="786" y="856" type="curve" smooth="yes"/>
      <point x="825" y="889"/>
      <point x="844" y="945"/>
      <point x="844" y="1026" type="curve" smooth="yes"/>
      <point x="844" y="1107"/>
      <point x="825" y="1163"/>
      <point x="786" y="1196" type="curve" smooth="yes"/>
      <point x="747" y="1229"/>
      <point x="679" y="1245"/>
      <point x="582" y="1245" type="curve" smooth="yes"/>
      <point x="461" y="1245" type="line"/>
      <point x="461" y="807" type="line"/>
    </contour>
  </outline>
</glyph>
<glyph name="S" format="1">
  <advance width="1233"/>
  <unicode hex="0053"/>
  <outline>
    <contour>
      <point x="582" y="-29" type="curve" smooth="yes" name="dv01"/>
      <point x="502" y="-29"/>
      <point x="427" y="-22" name="sh02"/>
      <point x="351" y="-3" type="curve" smooth="yes" name="ih01"/>
      <point x="275" y="15"/>
      <point x="203" y="41" name="dv02"/>
      <point x="135" y="76" type="curve"/>
      <point x="135" y="381" type="line" name="ah02"/>
      <point x="218" y="322"/>
      <point x="288" y="284"/>
      <point x="364" y="256" type="curve" smooth="yes"/>
      <point x="438" y="229"/>
      <point x="510" y="215" name="sh01"/>
      <point x="580" y="215" type="curve" smooth="yes"/>
      <point x="656" y="215" name="at01"/>
      <point x="711" y="232" name="sh04"/>
      <point x="751" y="265" type="curve" smooth="yes"/>
      <point x="791" y="298" name="ih02"/>
      <point x="811" y="344"/>
      <point x="811" y="403" type="curve" smooth="yes" name="sv01"/>
      <point x="811" y="448"/>
      <point x="798" y="488" name="sh03"/>
      <point x="771" y="521" type="curve" smooth="yes"/>
      <point x="743" y="556"/>
      <point x="703" y="581"/>
      <point x="655" y="600" type="curve" smooth="yes"/>
      <point x="510" y="655" type="line" smooth="yes" name="sh05"/>
      <point x="357" y="714"/>
      <point x="260" y="773"/>
      <point x="208" y="834" type="curve" smooth="yes" name="ah01"/>
      <point x="155" y="895" name="sh06"/>
      <point x="129" y="979"/>
      <point x="129" y="1085" type="curve" smooth="yes"/>
      <point x="129" y="1221"/>
      <point x="172" y="1327"/>
      <point x="259" y="1404" type="curve" smooth="yes"/>
      <point x="346" y="1481"/>
      <point x="465" y="1520"/>
      <point x="615" y="1520" type="curve" smooth="yes"/>
      <point x="687" y="1520"/>
      <point x="759" y="1512"/>
      <point x="822" y="1497" type="curve" smooth="yes"/>
      <point x="885" y="1482"/>
      <point x="957" y="1459"/>
      <point x="1026" y="1427" type="curve"/>
      <point x="1026" y="1139" type="line"/>
      <point x="963" y="1184"/>
      <point x="899" y="1218"/>
      <point x="833" y="1241" type="curve" smooth="yes"/>
      <point x="767" y="1264"/>
      <point x="702" y="1276"/>
      <point x="638" y="1276" type="curve" smooth="yes"/>
      <point x="567" y="1276"/>
      <point x="512" y="1262"/>
      <point x="475" y="1233" type="curve" smooth="yes"/>
      <point x="437" y="1204"/>
      <point x="418" y="1163"/>
      <point x="418" y="1111" type="curve" smooth="yes"/>
      <point x="418" y="1069"/>
      <point x="432" y="1035"/>
      <point x="460" y="1008" type="curve" smooth="yes"/>
      <point x="487" y="981"/>
      <point x="534" y="955"/>
      <point x="633" y="918" type="curve" smooth="yes"/>
      <point x="760" y="870" type="line" smooth="yes"/>
      <point x="881" y="825"/>
      <point x="969" y="767"/>
      <point x="1025" y="696" type="curve" smooth="yes"/>
      <point x="1082" y="623"/>
      <point x="1110" y="530"/>
      <point x="1110" y="415" type="curve" smooth="yes"/>
      <point x="1110" y="268"/>
      <point x="1065" y="157"/>
      <point x="976" y="83" type="curve" smooth="yes"/>
      <point x="886" y="8"/>
      <point x="755" y="-29"/>
    </contour>
  </outline>
</glyph>
<glyph name="Y" format="1">
  <advance width="1233"/>
  <unicode hex="0059"/>
  <outline>
    <contour>
      <point x="469" y="588" type="line" name="dh01"/>
      <point x="8" y="1493" type="line" name="at01"/>
      <point x="326" y="1493" type="line"/>
      <point x="616" y="893" type="line" name="ih01"/>
      <point x="907" y="1493" type="line" name="at02"/>
      <point x="1225" y="1493" type="line"/>
      <point x="764" y="588" type="line" name="dh02"/>
      <point x="764" y="0" type="line" name="ab01"/>
      <point x="469" y="0" type="line"/>
    </contour>
  </outline>
</glyph>
<glyph name="bracketleft" format="1">
  <advance width="1233"/>
  <unicode hex="005B"/>
  <outline>
    <contour>
      <point x="384" y="1636" type="line" name="dh01"/>
      <point x="887" y="1636" type="line" name="sh01"/>
      <point x="887" y="1446" type="line" name="dv02"/>
      <point x="649" y="1446" type="line" name="dh02"/>
      <point x="649" y="-85" type="line"/>
      <point x="887" y="-85" type="line" name="sh02"/>
      <point x="887" y="-270" type="line" name="dv01"/>
      <point x="384" y="-270" type="line"/>
    </contour>
  </outline>
</glyph>
<glyph name="bracketright" format="1">
  <advance width="1233"/>
  <unicode hex="005D"/>
  <outline>
    <contour>
      <point x="344" y="-83" type="line" name="hr00"/>
      <point x="587" y="-83" type="line" name="sh01"/>
      <point x="587" y="1445" type="line"/>
      <point x="344" y="1445" type="line" name="sh02"/>
      <point x="344" y="1635" type="line" name="dv01"/>
      <point x="849" y="1635" type="line"/>
      <point x="849" y="-270" type="line" name="dh02"/>
      <point x="344" y="-270" type="line" name="dh01"/>
    </contour>
  </outline>
</glyph>
<glyph name="grave" format="1">
  <advance width="1233"/>
  <unicode hex="0060"/>
  <outline>
    <contour>
      <point x="199" y="1638" type="line" name="av02"/>
      <point x="481" y="1638" type="line"/>
      <point x="764" y="1262" type="line" name="av01"/>
      <point x="567" y="1262" type="line"/>
    </contour>
  </outline>
</glyph>
<glyph name="c" format="1">
  <advance width="1233"/>
  <unicode hex="0063"/>
  <outline>
    <contour>
      <point x="702" y="-29" type="curve" name="dv01" smooth="yes"/>
      <point x="527" y="-29"/>
      <point x="391" y="23" name="dh01"/>
      <point x="294" y="127" type="curve" smooth="yes"/>
      <point x="197" y="232" name="dv04"/>
      <point x="148" y="376"/>
      <point x="148" y="559" type="curve" smooth="yes"/>
      <point x="148" y="743"/>
      <point x="197" y="888"/>
      <point x="295" y="993" type="curve" name="dv03" smooth="yes"/>
      <point x="393" y="1097"/>
      <point x="528" y="1149" name="dh02"/>
      <point x="699" y="1149" type="curve" smooth="yes"/>
      <point x="760" y="1149" name="dv02"/>
      <point x="819" y="1142"/>
      <point x="875" y="1128" type="curve" smooth="yes"/>
      <point x="930" y="1114"/>
      <point x="986" y="1092"/>
      <point x="1041" y="1063" type="curve"/>
      <point x="1041" y="795" type="line"/>
      <point x="998" y="832"/>
      <point x="948" y="861"/>
      <point x="901" y="880" type="curve" smooth="yes"/>
      <point x="854" y="899"/>
      <point x="798" y="909"/>
      <point x="741" y="909" type="curve" smooth="yes"/>
      <point x="641" y="909"/>
      <point x="571" y="877"/>
      <point x="522" y="818" type="curve" smooth="yes"/>
      <point x="471" y="757"/>
      <point x="445" y="670"/>
      <point x="445" y="559" type="curve" smooth="yes"/>
      <point x="445" y="448"/>
      <point x="471" y="362"/>
      <point x="522" y="301" type="curve" smooth="yes"/>
      <point x="573" y="241"/>
      <point x="646" y="211"/>
      <point x="742" y="211" type="curve" smooth="yes"/>
      <point x="798" y="211"/>
      <point x="851" y="221"/>
      <point x="901" y="240" type="curve" smooth="yes"/>
      <point x="944" y="256"/>
      <point x="994" y="283"/>
      <point x="1041" y="326" type="curve"/>
      <point x="1041" y="57" type="line"/>
      <point x="988" y="26"/>
      <point x="938" y="8"/>
      <point x="882" y="-7" type="curve" smooth="yes"/>
      <point x="826" y="-22"/>
      <point x="771" y="-29"/>
    </contour>
  </outline>
</glyph>
<glyph name="f" format="1">
  <advance width="1233"/>
  <unicode hex="0066"/>
  <outline>
    <contour>
      <point x="426" y="895" type="line" name="dh01"/>
      <point x="154" y="895" type="line"/>
      <point x="154" y="1120" type="line" name="at02"/>
      <point x="426" y="1120" type="line" name="sh01"/>
      <point x="426" y="1198" type="line" smooth="yes"/>
      <point x="426" y="1333"/>
      <point x="454" y="1426" name="at01"/>
      <point x="510" y="1478" type="curve" smooth="yes"/>
      <point x="566" y="1530" name="sv01"/>
      <point x="670" y="1556"/>
      <point x="822" y="1556" type="curve" smooth="yes"/>
      <point x="1063" y="1556" type="line" name="sh02"/>
      <point x="1063" y="1331" type="line" name="at03"/>
      <point x="834" y="1331" type="line" smooth="yes"/>
      <point x="789" y="1331" name="sv02"/>
      <point x="760" y="1323" name="dh02"/>
      <point x="745" y="1307" type="curve" name="ab01" smooth="yes"/>
      <point x="729" y="1291"/>
      <point x="719" y="1257"/>
      <point x="719" y="1218" type="curve" smooth="yes"/>
      <point x="719" y="1120" type="line"/>
      <point x="1063" y="1120" type="line"/>
      <point x="1063" y="895" type="line"/>
      <point x="719" y="895" type="line"/>
      <point x="719" y="0" type="line"/>
      <point x="426" y="0" type="line"/>
    </contour>
  </outline>
</glyph>
<glyph name="g" format="1">
  <advance width="1233"/>
  <unicode hex="0067"/>
  <outline>
    <contour>
      <point x="578" y="-424" type="curve" smooth="yes" name="ab01"/>
      <point x="519" y="-424" name="sh03"/>
      <point x="458" y="-420"/>
      <point x="398" y="-411" type="curve" smooth="yes" name="ih01"/>
      <point x="338" y="-402" name="sh04"/>
      <point x="277" y="-388" name="sv01"/>
      <point x="215" y="-369" type="curve"/>
      <point x="215" y="-100" type="line" name="ah02"/>
      <point x="271" y="-131" name="iv01"/>
      <point x="329" y="-153"/>
      <point x="384" y="-168" type="curve" smooth="yes" name="dv03"/>
      <point x="441" y="-183"/>
      <point x="501" y="-190" name="sh01"/>
      <point x="556" y="-190" type="curve" smooth="yes"/>
      <point x="647" y="-190" name="dv02"/>
      <point x="705" y="-171"/>
      <point x="744" y="-132" type="curve" smooth="yes" name="sh05"/>
      <point x="783" y="-93" name="at01"/>
      <point x="803" y="-32"/>
      <point x="803" y="51" type="curve" smooth="yes" name="sh06"/>
      <point x="803" y="172" type="line"/>
      <point x="774" y="119"/>
      <point x="736" y="79" name="dv04"/>
      <point x="689" y="53" type="curve" smooth="yes"/>
      <point x="642" y="27" name="sh07"/>
      <point x="584" y="14"/>
      <point x="517" y="14" type="curve" smooth="yes" name="dv01"/>
      <point x="388" y="14"/>
      <point x="286" y="64" name="sh02"/>
      <point x="211" y="164" type="curve" smooth="yes"/>
      <point x="135" y="264"/>
      <point x="98" y="398" name="ah01"/>
      <point x="98" y="573" type="curve" smooth="yes" name="sh08"/>
      <point x="98" y="748"/>
      <point x="136" y="888"/>
      <point x="211" y="993" type="curve"/>
      <point x="287" y="1097"/>
      <point x="387" y="1149"/>
      <point x="512" y="1149" type="curve" smooth="yes"/>
      <point x="577" y="1149"/>
      <point x="635" y="1134"/>
      <point x="685" y="1104" type="curve" smooth="yes"/>
      <point x="735" y="1074"/>
      <point x="774" y="1032"/>
      <point x="803" y="977" type="curve"/>
      <point x="832" y="1120" type="line"/>
      <point x="1096" y="1120" type="line"/>
      <point x="1096" y="84" type="line" smooth="yes"/>
      <point x="1096" y="-95"/>
      <point x="1056" y="-225"/>
      <point x="975" y="-305" type="curve" smooth="yes"/>
      <point x="894" y="-384"/>
      <point x="761" y="-424"/>
    </contour>
    <contour>
      <point x="596" y="246" type="curve" smooth="yes"/>
      <point x="658" y="246"/>
      <point x="708" y="276"/>
      <point x="746" y="337" type="curve" smooth="yes"/>
      <point x="783" y="397"/>
      <point x="803" y="473"/>
      <point x="803" y="577" type="curve" smooth="yes"/>
      <point x="803" y="676"/>
      <point x="785" y="756"/>
      <point x="746" y="819" type="curve" smooth="yes"/>
      <point x="708" y="879"/>
      <point x="658" y="909"/>
      <point x="596" y="909" type="curve" smooth="yes"/>
      <point x="535" y="909"/>
      <point x="485" y="879"/>
      <point x="448" y="819" type="curve" smooth="yes"/>
      <point x="410" y="759"/>
      <point x="391" y="679"/>
      <point x="391" y="578" type="curve" smooth="yes"/>
      <point x="391" y="477"/>
      <point x="410" y="396"/>
      <point x="448" y="336" type="curve" smooth="yes"/>
      <point x="485" y="276"/>
      <point x="535" y="246"/>
    </contour>
  </outline>
</glyph>
<glyph name="i" format="1">
  <advance width="1233"/>
  <unicode hex="0069"/>
  <outline>
    <contour>
      <point x="451" y="1253" type="line" name="dv01" smooth="yes"/>
      <point x="431" y="1253" name="dh01"/>
      <point x="421" y="1263"/>
      <point x="421" y="1283" type="curve" name="dv02" smooth="yes"/>
      <point x="421" y="1565" type="line" smooth="yes"/>
      <point x="421" y="1585"/>
      <point x="431" y="1595" name="dh02"/>
      <point x="451" y="1595" type="curve" smooth="yes"/>
      <point x="684" y="1595" type="line" name="ab01" smooth="yes"/>
      <point x="704" y="1595"/>
      <point x="714" y="1585" name="sh01"/>
      <point x="714" y="1565" type="curve" name="sv01" smooth="yes"/>
      <point x="714" y="1283" type="line" smooth="yes"/>
      <point x="714" y="1263" name="at01"/>
      <point x="704" y="1253" name="sh02"/>
      <point x="684" y="1253" type="curve" smooth="yes"/>
    </contour>
    <contour>
      <point x="812" y="-12" type="line" smooth="yes"/>
      <point x="673" y="-12" name="sv02"/>
      <point x="573" y="24"/>
      <point x="512" y="96" type="curve" smooth="yes"/>
      <point x="451" y="167"/>
      <point x="421" y="287"/>
      <point x="421" y="455" type="curve" smooth="yes"/>
      <point x="421" y="895" type="line"/>
      <point x="184" y="895" type="line"/>
      <point x="184" y="1120" type="line"/>
      <point x="714" y="1120" type="line"/>
      <point x="714" y="455" type="line" smooth="yes"/>
      <point x="714" y="368"/>
      <point x="728" y="305"/>
      <point x="755" y="268" type="curve" smooth="yes"/>
      <point x="782" y="231"/>
      <point x="828" y="213"/>
      <point x="894" y="213" type="curve" smooth="yes"/>
      <point x="1128" y="213" type="line"/>
      <point x="1128" y="-12" type="line"/>
    </contour>
  </outline>
</glyph>
<glyph name="l" format="1">
  <advance width="1233"/>
  <unicode hex="006C"/>
  <outline>
    <contour>
      <point x="788" y="-8" type="line" name="ab01" smooth="yes"/>
      <point x="649" y="-8"/>
      <point x="549" y="28" name="dh01"/>
      <point x="488" y="100" type="curve" name="sv01" smooth="yes"/>
      <point x="427" y="171"/>
      <point x="397" y="291" name="at01"/>
      <point x="397" y="459" type="curve" smooth="yes"/>
      <point x="397" y="1331" type="line" name="dh02"/>
      <point x="100" y="1331" type="line"/>
      <point x="100" y="1556" type="line" name="sv02"/>
      <point x="690" y="1556" type="line" name="sv03"/>
      <point x="690" y="459" type="line" name="ab02" smooth="yes"/>
      <point x="690" y="372"/>
      <point x="704" y="309"/>
      <point x="731" y="272" type="curve" smooth="yes"/>
      <point x="758" y="235"/>
      <point x="804" y="217"/>
      <point x="870" y="217" type="curve" smooth="yes"/>
      <point x="1104" y="217" type="line"/>
      <point x="1104" y="-8" type="line"/>
    </contour>
  </outline>
</glyph>
<glyph name="m" format="1">
  <advance width="1233"/>
  <unicode hex="006D"/>
  <outline>
    <contour>
      <point x="82" y="1120" type="line" name="sh01"/>
      <point x="266" y="1120" type="line"/>
      <point x="295" y="1004" type="line" name="ih01"/>
      <point x="312" y="1049" name="at01"/>
      <point x="339" y="1084" name="sh03"/>
      <point x="375" y="1109" type="curve" smooth="yes" name="at02"/>
      <point x="408" y="1132" name="ih02"/>
      <point x="451" y="1147" name="at03"/>
      <point x="499" y="1147" type="curve" smooth="yes" name="sh05"/>
      <point x="544" y="1147"/>
      <point x="585" y="1134"/>
      <point x="622" y="1107" type="curve" smooth="yes" name="sh06"/>
      <point x="659" y="1080" name="sh04"/>
      <point x="682" y="1047"/>
      <point x="690" y="1008" type="curve"/>
      <point x="712" y="1055" name="sv01"/>
      <point x="740" y="1090"/>
      <point x="774" y="1113" type="curve" smooth="yes"/>
      <point x="807" y="1136" name="sh07"/>
      <point x="850" y="1147" name="sh02"/>
      <point x="902" y="1147" type="curve" smooth="yes"/>
      <point x="999" y="1147"/>
      <point x="1065" y="1111" name="sv02"/>
      <point x="1100" y="1047" type="curve" smooth="yes"/>
      <point x="1139" y="976" name="sh08"/>
      <point x="1155" y="839" name="ab01"/>
      <point x="1155" y="631" type="curve" smooth="yes"/>
      <point x="1155" y="0" type="line" name="ah01"/>
      <point x="915" y="0" type="line" name="sh09"/>
      <point x="915" y="719" type="line" smooth="yes"/>
      <point x="915" y="807"/>
      <point x="909" y="856"/>
      <point x="896" y="885" type="curve" smooth="yes"/>
      <point x="883" y="914"/>
      <point x="860" y="928"/>
      <point x="827" y="928" type="curve" smooth="yes"/>
      <point x="788" y="928"/>
      <point x="769" y="911"/>
      <point x="757" y="884" type="curve" smooth="yes"/>
      <point x="744" y="856"/>
      <point x="737" y="803"/>
      <point x="737" y="719" type="curve" smooth="yes"/>
      <point x="737" y="0" type="line"/>
      <point x="500" y="0" type="line"/>
      <point x="500" y="719" type="line" smooth="yes"/>
      <point x="500" y="800"/>
      <point x="493" y="855"/>
      <point x="480" y="885" type="curve" smooth="yes"/>
      <point x="467" y="914"/>
      <point x="444" y="928"/>
      <point x="410" y="928" type="curve" smooth="yes"/>
      <point x="377" y="928"/>
      <point x="354" y="914"/>
      <point x="341" y="886" type="curve" smooth="yes"/>
      <point x="328" y="859"/>
      <point x="322" y="803"/>
      <point x="322" y="719" type="curve" smooth="yes"/>
      <point x="322" y="0" type="line"/>
      <point x="82" y="0" type="line"/>
    </contour>
  </outline>
</glyph>
<glyph name="q" format="1">
  <advance width="1233"/>
  <unicode hex="0071"/>
  <outline>
    <contour>
      <point x="791" y="158" type="line" name="iv01"/>
      <point x="756" y="97"/>
      <point x="714" y="50" name="dv01"/>
      <point x="666" y="18" type="curve" smooth="yes"/>
      <point x="618" y="-14" name="sh01"/>
      <point x="567" y="-29"/>
      <point x="499" y="-29" type="curve" name="at02" smooth="yes"/>
      <point x="375" y="-29"/>
      <point x="273" y="19" name="sh02"/>
      <point x="198" y="123" type="curve" name="at01" smooth="yes"/>
      <point x="126" y="224"/>
      <point x="90" y="370" name="sh03"/>
      <point x="90" y="558" type="curve" name="ah02" smooth="yes"/>
      <point x="90" y="747" name="dv02"/>
      <point x="125" y="892"/>
      <point x="196" y="994" type="curve" name="sh04" smooth="yes"/>
      <point x="268" y="1097"/>
      <point x="368" y="1147" name="sv01"/>
      <point x="492" y="1147" type="curve" smooth="yes"/>
      <point x="561" y="1147" name="sh05"/>
      <point x="621" y="1131"/>
      <point x="670" y="1098" type="curve" smooth="yes"/>
      <point x="718" y="1066" name="ah01"/>
      <point x="760" y="1017" name="sh06"/>
      <point x="791" y="952" type="curve"/>
      <point x="820" y="1120" type="line"/>
      <point x="1083" y="1120" type="line"/>
      <point x="1083" y="-426" type="line"/>
      <point x="791" y="-426" type="line"/>
    </contour>
    <contour>
      <point x="586" y="215" type="curve" smooth="yes"/>
      <point x="649" y="215"/>
      <point x="699" y="246"/>
      <point x="736" y="307" type="curve" smooth="yes"/>
      <point x="773" y="368"/>
      <point x="791" y="452"/>
      <point x="791" y="561" type="curve" smooth="yes"/>
      <point x="791" y="670"/>
      <point x="773" y="754"/>
      <point x="736" y="815" type="curve" smooth="yes"/>
      <point x="699" y="876"/>
      <point x="649" y="907"/>
      <point x="586" y="907" type="curve" smooth="yes"/>
      <point x="523" y="907"/>
      <point x="473" y="876"/>
      <point x="437" y="815" type="curve" smooth="yes"/>
      <point x="401" y="754"/>
      <point x="383" y="669"/>
      <point x="383" y="561" type="curve" smooth="yes"/>
      <point x="383" y="452"/>
      <point x="401" y="368"/>
      <point x="437" y="307" type="curve" smooth="yes"/>
      <point x="473" y="246"/>
      <point x="523" y="215"/>
    </contour>
  </outline>
</glyph>
<glyph name="r" format="1">
  <advance width="1233"/>
  <unicode hex="0072"/>
  <outline>
    <contour>
      <point x="241" y="1120" type="line" name="dh01"/>
      <point x="505" y="1120" type="line"/>
      <point x="534" y="946" type="line" name="dh02"/>
      <point x="563" y="1011"/>
      <point x="607" y="1060" name="at02"/>
      <point x="666" y="1095" type="curve" smooth="yes" name="at01"/>
      <point x="726" y="1130"/>
      <point x="796" y="1147" name="iv01"/>
      <point x="871" y="1147" type="curve" smooth="yes"/>
      <point x="911" y="1147" name="sv01"/>
      <point x="956" y="1142"/>
      <point x="992" y="1133" type="curve" smooth="yes"/>
      <point x="1031" y="1122"/>
      <point x="1072" y="1106" name="sh01"/>
      <point x="1101" y="1090" type="curve" name="ab01"/>
      <point x="1101" y="811" type="line"/>
      <point x="1069" y="840"/>
      <point x="1032" y="862"/>
      <point x="989" y="877" type="curve" smooth="yes"/>
      <point x="946" y="892"/>
      <point x="899" y="899"/>
      <point x="848" y="899" type="curve" smooth="yes"/>
      <point x="785" y="899"/>
      <point x="731" y="888"/>
      <point x="685" y="867" type="curve" smooth="yes"/>
      <point x="638" y="846"/>
      <point x="602" y="814"/>
      <point x="577" y="773" type="curve" smooth="yes"/>
      <point x="564" y="752"/>
      <point x="551" y="721"/>
      <point x="544" y="680" type="curve" smooth="yes"/>
      <point x="537" y="641"/>
      <point x="534" y="595"/>
      <point x="534" y="516" type="curve" smooth="yes"/>
      <point x="534" y="0" type="line"/>
      <point x="241" y="0" type="line"/>
    </contour>
  </outline>
</glyph>
<glyph name="t" format="1">
  <advance width="1233"/>
  <unicode hex="0074"/>
  <outline>
    <contour>
      <point x="827" y="-4" type="line" smooth="yes" name="ab01"/>
      <point x="658" y="-4"/>
      <point x="545" y="23" name="dh01"/>
      <point x="486" y="77" type="curve" smooth="yes" name="sv01"/>
      <point x="427" y="130"/>
      <point x="397" y="230" name="at01"/>
      <point x="397" y="375" type="curve" smooth="yes" name="sh01"/>
      <point x="397" y="895" type="line"/>
      <point x="111" y="895" type="line" name="sh02"/>
      <point x="111" y="1120" type="line" name="at02"/>
      <point x="397" y="1120" type="line"/>
      <point x="397" y="1426" type="line" name="sv02"/>
      <point x="690" y="1556" type="line" name="sv03"/>
      <point x="690" y="1120" type="line" name="dh02"/>
      <point x="1073" y="1120" type="line"/>
      <point x="1073" y="895" type="line" name="sv04"/>
      <point x="690" y="895" type="line" name="sv05"/>
      <point x="690" y="361" type="line" smooth="yes" name="ab02"/>
      <point x="690" y="312"/>
      <point x="702" y="276"/>
      <point x="727" y="254" type="curve" smooth="yes"/>
      <point x="754" y="230"/>
      <point x="795" y="221"/>
      <point x="848" y="221" type="curve" smooth="yes"/>
      <point x="1073" y="221" type="line"/>
      <point x="1073" y="-4" type="line"/>
    </contour>
  </outline>
</glyph>
<glyph name="v" format="1">
  <advance width="1233"/>
  <unicode hex="0076"/>
  <outline>
    <contour>
      <point x="80" y="1120" type="line" name="at01"/>
      <point x="377" y="1120" type="line"/>
      <point x="616" y="246" type="line" name="iv01"/>
      <point x="856" y="1120" type="line" name="at02"/>
      <point x="1153" y="1120" type="line"/>
      <point x="797" y="0" type="line" name="ab01"/>
      <point x="436" y="0" type="line"/>
    </contour>
  </outline>
</glyph>
<glyph name="cent" format="1">
  <advance width="1233"/>
  <unicode hex="00A2"/>
  <outline>
    <contour>
      <point x="655" y="-25" type="line" name="dh03"/>
      <point x="498" y="-10"/>
      <point x="375" y="49" name="dh01"/>
      <point x="284" y="154" type="curve" smooth="yes"/>
      <point x="193" y="259" name="sh01"/>
      <point x="147" y="395" name="av01"/>
      <point x="147" y="562" type="curve" smooth="yes" name="sh02"/>
      <point x="147" y="735"/>
      <point x="195" y="870"/>
      <point x="284" y="973" type="curve" smooth="yes" name="sh04"/>
      <point x="375" y="1077" name="iv01"/>
      <point x="498" y="1134"/>
      <point x="655" y="1145" type="curve" name="sh05"/>
      <point x="655" y="1432" type="line"/>
      <point x="797" y="1432" type="line"/>
      <point x="797" y="1145" type="line" name="iv02"/>
      <point x="838" y="1142" name="sh03"/>
      <point x="878" y="1135"/>
      <point x="917" y="1124" type="curve" smooth="yes" name="dh04"/>
      <point x="964" y="1111" name="av02"/>
      <point x="997" y="1096"/>
      <point x="1036" y="1077" type="curve" name="sh06"/>
      <point x="1036" y="809" type="line"/>
      <point x="997" y="838" name="dh02"/>
      <point x="952" y="863"/>
      <point x="920" y="876" type="curve" smooth="yes"/>
      <point x="885" y="891"/>
      <point x="840" y="902"/>
      <point x="797" y="907" type="curve"/>
      <point x="797" y="215" type="line"/>
      <point x="841" y="218"/>
      <point x="884" y="229"/>
      <point x="921" y="244" type="curve" smooth="yes"/>
      <point x="960" y="260"/>
      <point x="999" y="282"/>
      <point x="1036" y="311" type="curve"/>
      <point x="1036" y="43" type="line"/>
      <point x="997" y="22"/>
      <point x="964" y="8"/>
      <point x="924" y="-3" type="curve" smooth="yes"/>
      <point x="882" y="-15"/>
      <point x="840" y="-22"/>
      <point x="797" y="-25" type="curve"/>
      <point x="797" y="-313" type="line"/>
      <point x="655" y="-313" type="line"/>
    </contour>
    <contour>
      <point x="655" y="907" type="line"/>
      <point x="580" y="898"/>
      <point x="521" y="864"/>
      <point x="480" y="804" type="curve" smooth="yes"/>
      <point x="440" y="745"/>
      <point x="418" y="665"/>
      <point x="418" y="560" type="curve" smooth="yes"/>
      <point x="418" y="460"/>
      <point x="438" y="378"/>
      <point x="481" y="314" type="curve" smooth="yes"/>
      <point x="523" y="252"/>
      <point x="581" y="219"/>
      <point x="655" y="215" type="curve"/>
    </contour>
  </outline>
</glyph>
<glyph name="section" format="1">
  <advance width="1233"/>
  <unicode hex="00A7"/>
  <outline>
    <contour>
      <point x="602" y="-195" type="curve" smooth="yes" name="dv01"/>
      <point x="550" y="-195"/>
      <point x="484" y="-190"/>
      <point x="429" y="-181" type="curve" smooth="yes" name="ih01"/>
      <point x="374" y="-172"/>
      <point x="313" y="-156" name="dv02"/>
      <point x="258" y="-137" type="curve"/>
      <point x="258" y="92" type="line" name="dh03"/>
      <point x="318" y="71"/>
      <point x="369" y="58"/>
      <point x="424" y="47" type="curve" smooth="yes" name="dh01"/>
      <point x="476" y="36"/>
      <point x="524" y="31" name="ih02"/>
      <point x="571" y="31" type="curve" smooth="yes"/>
      <point x="632" y="31" name="ih03"/>
      <point x="669" y="41"/>
      <point x="696" y="60" type="curve" smooth="yes" name="at01"/>
      <point x="723" y="79"/>
      <point x="737" y="107"/>
      <point x="737" y="134" type="curve" smooth="yes" name="ih04"/>
      <point x="737" y="190"/>
      <point x="677" y="241" name="sv01"/>
      <point x="523" y="326" type="curve" smooth="yes"/>
      <point x="486" y="346" type="line" smooth="yes" name="sh01"/>
      <point x="266" y="466"/>
      <point x="170" y="574"/>
      <point x="170" y="696" type="curve" smooth="yes"/>
      <point x="170" y="747" name="sh02"/>
      <point x="187" y="805"/>
      <point x="222" y="852" type="curve" smooth="yes" name="ih06"/>
      <point x="254" y="895"/>
      <point x="304" y="931" name="dh04"/>
      <point x="371" y="954" type="curve"/>
      <point x="323" y="987"/>
      <point x="289" y="1024"/>
      <point x="268" y="1064" type="curve" smooth="yes"/>
      <point x="247" y="1105" name="ih05"/>
      <point x="236" y="1152"/>
      <point x="236" y="1205" type="curve" smooth="yes"/>
      <point x="236" y="1300"/>
      <point x="271" y="1377" name="dh02"/>
      <point x="340" y="1434" type="curve" smooth="yes"/>
      <point x="409" y="1491"/>
      <point x="502" y="1520"/>
      <point x="617" y="1520" type="curve" smooth="yes" name="sh03"/>
      <point x="665" y="1520"/>
      <point x="716" y="1515"/>
      <point x="769" y="1505" type="curve" smooth="yes"/>
      <point x="826" y="1494"/>
      <point x="877" y="1479"/>
      <point x="930" y="1460" type="curve"/>
      <point x="930" y="1235" type="line"/>
      <point x="873" y="1255"/>
      <point x="822" y="1270"/>
      <point x="779" y="1280" type="curve" smooth="yes"/>
      <point x="738" y="1289"/>
      <point x="692" y="1294"/>
      <point x="657" y="1294" type="curve" smooth="yes"/>
      <point x="608" y="1294"/>
      <point x="570" y="1284"/>
      <point x="541" y="1265" type="curve" smooth="yes"/>
      <point x="510" y="1244"/>
      <point x="498" y="1215"/>
      <point x="498" y="1188" type="curve" smooth="yes"/>
      <point x="498" y="1128"/>
      <point x="563" y="1078"/>
      <point x="701" y="1004" type="curve" smooth="yes"/>
      <point x="726" y="990"/>
      <point x="717" y="996"/>
      <point x="729" y="989" type="curve" smooth="yes"/>
      <point x="881" y="906"/>
      <point x="953" y="866"/>
      <point x="1002" y="809" type="curve" smooth="yes"/>
      <point x="1041" y="762"/>
      <point x="1061" y="705"/>
      <point x="1061" y="638" type="curve" smooth="yes"/>
      <point x="1061" y="578"/>
      <point x="1045" y="527"/>
      <point x="1014" y="484" type="curve" smooth="yes"/>
      <point x="983" y="441"/>
      <point x="933" y="404"/>
      <point x="864" y="373" type="curve"/>
      <point x="911" y="340"/>
      <point x="945" y="303"/>
      <point x="967" y="262" type="curve" smooth="yes"/>
      <point x="988" y="221"/>
      <point x="999" y="173"/>
      <point x="999" y="118" type="curve" smooth="yes"/>
      <point x="999" y="23"/>
      <point x="966" y="-56"/>
      <point x="895" y="-112" type="curve" smooth="yes"/>
      <point x="828" y="-165"/>
      <point x="731" y="-195"/>
    </contour>
    <contour>
      <point x="711" y="473" type="curve"/>
      <point x="747" y="496"/>
      <point x="776" y="524"/>
      <point x="791" y="544" type="curve" smooth="yes"/>
      <point x="807" y="567"/>
      <point x="815" y="594"/>
      <point x="815" y="613" type="curve" smooth="yes"/>
      <point x="815" y="674"/>
      <point x="725" y="752"/>
      <point x="550" y="840" type="curve" smooth="yes"/>
      <point x="518" y="856" type="line"/>
      <point x="482" y="833"/>
      <point x="456" y="809"/>
      <point x="439" y="786" type="curve" smooth="yes"/>
      <point x="422" y="763"/>
      <point x="414" y="738"/>
      <point x="414" y="712" type="curve" smooth="yes"/>
      <point x="414" y="675"/>
      <point x="430" y="642"/>
      <point x="463" y="613" type="curve" smooth="yes"/>
      <point x="494" y="585"/>
      <point x="560" y="544"/>
    </contour>
  </outline>
</glyph>
<glyph name="dieresis" format="1">
  <advance width="1233"/>
  <unicode hex="00A8"/>
  <outline>
    <contour>
      <point x="331" y="1339" type="line" name="dv01" smooth="yes"/>
      <point x="311" y="1339" name="sh01"/>
      <point x="301" y="1349"/>
      <point x="301" y="1369" type="curve" name="dv02" smooth="yes"/>
      <point x="301" y="1555" type="line" smooth="yes"/>
      <point x="301" y="1575"/>
      <point x="311" y="1585" name="sh02"/>
      <point x="331" y="1585" type="curve" smooth="yes"/>
      <point x="507" y="1585" type="line" name="sv01" smooth="yes"/>
      <point x="527" y="1585" name="ah02"/>
      <point x="537" y="1575"/>
      <point x="537" y="1555" type="curve" name="sv02" smooth="yes"/>
      <point x="537" y="1369" type="line" smooth="yes"/>
      <point x="537" y="1349"/>
      <point x="527" y="1339" name="sh03"/>
      <point x="507" y="1339" type="curve" smooth="yes"/>
    </contour>
    <contour>
      <point x="726" y="1339" type="line" name="ah01" smooth="yes"/>
      <point x="706" y="1339" name="sh04"/>
      <point x="696" y="1349"/>
      <point x="696" y="1369" type="curve" smooth="yes"/>
      <point x="696" y="1555" type="line" smooth="yes"/>
      <point x="696" y="1575"/>
      <point x="706" y="1585"/>
      <point x="726" y="1585" type="curve" smooth="yes"/>
      <point x="902" y="1585" type="line" smooth="yes"/>
      <point x="922" y="1585"/>
      <point x="932" y="1575"/>
      <point x="932" y="1555" type="curve" smooth="yes"/>
      <point x="932" y="1369" type="line" smooth="yes"/>
      <point x="932" y="1349"/>
      <point x="922" y="1339"/>
      <point x="902" y="1339" type="curve" smooth="yes"/>
    </contour>
  </outline>
</glyph>
<glyph name="logicalnot" format="1">
  <advance width="1233"/>
  <unicode hex="00AC"/>
  <outline>
    <contour>
      <point x="907" y="662" type="line" name="dh01"/>
      <point x="88" y="662" type="line"/>
      <point x="88" y="899" type="line"/>
      <point x="1145" y="899" type="line" name="dh02"/>
      <point x="1145" y="362" type="line" name="av01"/>
      <point x="907" y="362" type="line"/>
    </contour>
  </outline>
</glyph>
<glyph name="macron" format="1">
  <advance width="1233"/>
  <unicode hex="00AF"/>
  <outline>
    <contour>
      <point x="301" y="1556" type="line" name="at01"/>
      <point x="932" y="1556" type="line"/>
      <point x="932" y="1368" type="line" name="sv01"/>
      <point x="301" y="1368" type="line"/>
    </contour>
  </outline>
</glyph>
<glyph name="twosuperior" format="1">
  <advance width="1233"/>
  <unicode hex="00B2"/>
  <outline>
    <contour>
      <point x="274" y="1261" type="line" name="hr00"/>
      <point x="309" y="1290"/>
      <point x="355" y="1328" name="dh01"/>
      <point x="415" y="1379" type="curve" smooth="yes"/>
      <point x="627" y="1556" name="dv02"/>
      <point x="729" y="1664"/>
      <point x="729" y="1727" type="curve" smooth="yes"/>
      <point x="729" y="1750"/>
      <point x="717" y="1781"/>
      <point x="686" y="1802" type="curve" name="dv03" smooth="yes"/>
      <point x="657" y="1822"/>
      <point x="618" y="1832" name="dh02"/>
      <point x="569" y="1832" type="curve" smooth="yes"/>
      <point x="529" y="1832"/>
      <point x="483" y="1826" name="sh01"/>
      <point x="444" y="1815" type="curve" name="dv01" smooth="yes"/>
      <point x="405" y="1804"/>
      <point x="347" y="1786"/>
      <point x="299" y="1763" type="curve" name="sh02"/>
      <point x="299" y="1927" type="line"/>
      <point x="342" y="1940"/>
      <point x="401" y="1954"/>
      <point x="445" y="1961" type="curve"/>
      <point x="482" y="1968"/>
      <point x="535" y="1972"/>
      <point x="587" y="1972" type="curve" smooth="yes"/>
      <point x="695" y="1972"/>
      <point x="784" y="1952"/>
      <point x="845" y="1909" type="curve" smooth="yes"/>
      <point x="908" y="1866"/>
      <point x="938" y="1806"/>
      <point x="938" y="1753" type="curve" smooth="yes"/>
      <point x="938" y="1656"/>
      <point x="836" y="1527"/>
      <point x="583" y="1330" type="curve" smooth="yes"/>
      <point x="500" y="1265" type="line"/>
      <point x="940" y="1265" type="line"/>
      <point x="940" y="1120" type="line"/>
      <point x="274" y="1120" type="line"/>
    </contour>
  </outline>
</glyph>
<glyph name="paragraph" format="1">
  <advance width="1233"/>
  <unicode hex="00B6"/>
  <outline>
    <contour>
      <point x="496" y="649" type="line" name="sh01"/>
      <point x="353" y="668"/>
      <point x="254" y="712"/>
      <point x="181" y="784" type="curve" smooth="yes"/>
      <point x="107" y="857" name="at01"/>
      <point x="70" y="952"/>
      <point x="70" y="1070" type="curve" name="sh02" smooth="yes"/>
      <point x="70" y="1198" name="ah02"/>
      <point x="113" y="1300" name="sv01"/>
      <point x="200" y="1377" type="curve" name="sh03" smooth="yes"/>
      <point x="287" y="1454" name="av01"/>
      <point x="402" y="1493"/>
      <point x="545" y="1493" type="curve" name="ah01" smooth="yes"/>
      <point x="1065" y="1493" type="line" name="sh04"/>
      <point x="1065" y="-197" type="line"/>
      <point x="874" y="-197" type="line"/>
      <point x="874" y="1346" type="line"/>
      <point x="684" y="1346" type="line"/>
      <point x="684" y="-197" type="line"/>
      <point x="496" y="-197" type="line"/>
    </contour>
  </outline>
</glyph>
<glyph name="periodcentered" format="1">
  <advance width="1233"/>
  <unicode hex="00B7"/>
  <outline>
    <contour>
      <point x="614" y="344" type="curve" smooth="yes" name="av02"/>
      <point x="517" y="344"/>
      <point x="427" y="383"/>
      <point x="360" y="451" type="curve" smooth="yes"/>
      <point x="292" y="519" name="av01"/>
      <point x="256" y="609"/>
      <point x="256" y="706" type="curve" smooth="yes"/>
      <point x="256" y="806"/>
      <point x="294" y="893"/>
      <point x="362" y="961" type="curve"/>
      <point x="429" y="1026"/>
      <point x="520" y="1065"/>
      <point x="617" y="1065" type="curve" smooth="yes"/>
      <point x="713" y="1065"/>
      <point x="802" y="1027"/>
      <point x="870" y="962" type="curve"/>
      <point x="942" y="891"/>
      <point x="977" y="801"/>
      <point x="977" y="708" type="curve" smooth="yes"/>
      <point x="977" y="612"/>
      <point x="938" y="518"/>
      <point x="870" y="450" type="curve" smooth="yes"/>
      <point x="803" y="383"/>
      <point x="711" y="344"/>
    </contour>
  </outline>
</glyph>
<glyph name="cedilla" format="1">
  <advance width="1233"/>
  <unicode hex="00B8"/>
  <outline>
    <contour>
      <point x="573" y="-401" type="curve" smooth="yes" name="dv01"/>
      <point x="542" y="-401" name="sv01"/>
      <point x="502" y="-399"/>
      <point x="471" y="-395" type="curve" smooth="yes" name="dh01"/>
      <point x="422" y="-390"/>
      <point x="401" y="-383" name="dv02"/>
      <point x="367" y="-375" type="curve"/>
      <point x="367" y="-219" type="line"/>
      <point x="398" y="-230"/>
      <point x="426" y="-238" name="ih01"/>
      <point x="454" y="-245" type="curve" smooth="yes"/>
      <point x="482" y="-251"/>
      <point x="508" y="-254" name="dh02"/>
      <point x="532" y="-254" type="curve" smooth="yes"/>
      <point x="570" y="-254"/>
      <point x="600" y="-246"/>
      <point x="623" y="-231" type="curve" smooth="yes"/>
      <point x="644" y="-216"/>
      <point x="655" y="-195"/>
      <point x="655" y="-170" type="curve" smooth="yes"/>
      <point x="655" y="-151"/>
      <point x="648" y="-128"/>
      <point x="634" y="-101" type="curve" smooth="yes"/>
      <point x="619" y="-74"/>
      <point x="598" y="-40"/>
      <point x="567" y="0" type="curve"/>
      <point x="707" y="0" type="line"/>
      <point x="747" y="-43"/>
      <point x="776" y="-84"/>
      <point x="792" y="-115" type="curve" smooth="yes"/>
      <point x="810" y="-149"/>
      <point x="819" y="-184"/>
      <point x="819" y="-221" type="curve" smooth="yes"/>
      <point x="819" y="-282"/>
      <point x="796" y="-327"/>
      <point x="757" y="-356" type="curve" smooth="yes"/>
      <point x="722" y="-383"/>
      <point x="668" y="-401"/>
    </contour>
  </outline>
</glyph>
<glyph name="onesuperior" format="1">
  <advance width="1233"/>
  <unicode hex="00B9"/>
  <outline>
    <contour>
      <point x="313" y="1265" type="line" name="sh01"/>
      <point x="539" y="1265" type="line" name="sh02"/>
      <point x="539" y="1808" type="line"/>
      <point x="319" y="1765" type="line"/>
      <point x="319" y="1914" type="line" name="dh01"/>
      <point x="541" y="1955" type="line" name="av01"/>
      <point x="735" y="1955" type="line" name="dh02"/>
      <point x="735" y="1265" type="line"/>
      <point x="961" y="1265" type="line" name="dv02"/>
      <point x="961" y="1120" type="line" name="dv01"/>
      <point x="313" y="1120" type="line"/>
    </contour>
  </outline>
</glyph>
<glyph name="ordmasculine" format="1">
  <advance width="1233"/>
  <unicode hex="00BA"/>
  <outline>
    <contour>
      <point x="637" y="698" type="curve" smooth="yes" name="dv03"/>
      <point x="521" y="698"/>
      <point x="437" y="737" name="sh01"/>
      <point x="373" y="809" type="curve" smooth="yes"/>
      <point x="309" y="881" name="at01"/>
      <point x="274" y="976"/>
      <point x="274" y="1107" type="curve" smooth="yes" name="sh02"/>
      <point x="274" y="1233"/>
      <point x="307" y="1334"/>
      <point x="373" y="1409" type="curve" smooth="yes" name="dv04"/>
      <point x="438" y="1483"/>
      <point x="526" y="1520" name="ah02"/>
      <point x="637" y="1520" type="curve" smooth="yes"/>
      <point x="748" y="1520" name="sv01"/>
      <point x="836" y="1483"/>
      <point x="901" y="1409" type="curve" smooth="yes" name="sh03"/>
      <point x="966" y="1334"/>
      <point x="999" y="1234"/>
      <point x="999" y="1107" type="curve" smooth="yes"/>
      <point x="999" y="982" name="dv02"/>
      <point x="969" y="885" name="dv01"/>
      <point x="902" y="809" type="curve" smooth="yes"/>
      <point x="837" y="735" name="ah01"/>
      <point x="748" y="698" name="sh04"/>
    </contour>
    <contour>
      <point x="637" y="874" type="curve" smooth="yes"/>
      <point x="684" y="874"/>
      <point x="724" y="894"/>
      <point x="753" y="937" type="curve" smooth="yes"/>
      <point x="781" y="978"/>
      <point x="795" y="1035"/>
      <point x="795" y="1108" type="curve" smooth="yes"/>
      <point x="795" y="1181"/>
      <point x="781" y="1238"/>
      <point x="753" y="1280" type="curve" smooth="yes"/>
      <point x="726" y="1320"/>
      <point x="688" y="1343"/>
      <point x="637" y="1343" type="curve" smooth="yes"/>
      <point x="582" y="1343"/>
      <point x="546" y="1316"/>
      <point x="522" y="1281" type="curve" smooth="yes"/>
      <point x="493" y="1238"/>
      <point x="479" y="1181"/>
      <point x="479" y="1108" type="curve" smooth="yes"/>
      <point x="479" y="1035"/>
      <point x="493" y="978"/>
      <point x="521" y="937" type="curve" smooth="yes"/>
      <point x="546" y="900"/>
      <point x="585" y="874"/>
    </contour>
    <contour>
      <point x="293" y="598" type="line"/>
      <point x="981" y="598" type="line"/>
      <point x="981" y="428" type="line"/>
      <point x="293" y="428" type="line"/>
    </contour>
  </outline>
</glyph>
<glyph name="onehalf" format="1">
  <advance width="1233"/>
  <unicode hex="00BD"/>
  <outline>
    <contour>
      <point x="55" y="969" type="line" name="sh01"/>
      <point x="281" y="969" type="line" name="sh02"/>
      <point x="281" y="1512" type="line"/>
      <point x="61" y="1469" type="line"/>
      <point x="61" y="1618" type="line" name="dh01"/>
      <point x="283" y="1659" type="line" name="av01"/>
      <point x="477" y="1659" type="line" name="dh02"/>
      <point x="477" y="969" type="line" name="sh05"/>
      <point x="703" y="969" type="line" name="dv05"/>
      <point x="703" y="824" type="line" name="dv04"/>
      <point x="55" y="824" type="line"/>
    </contour>
    <contour>
      <point x="47" y="618" type="line"/>
      <point x="1106" y="881" type="line"/>
      <point x="1143" y="762" type="line"/>
      <point x="84" y="500" type="line"/>
    </contour>
    <contour>
      <point x="475" y="-129" type="line" name="sh03"/>
      <point x="510" y="-100"/>
      <point x="556" y="-62" name="dh03"/>
      <point x="616" y="-11" type="curve" smooth="yes"/>
      <point x="828" y="166" name="dv02"/>
      <point x="930" y="274"/>
      <point x="930" y="337" type="curve" name="ih01" smooth="yes"/>
      <point x="930" y="360"/>
      <point x="918" y="391"/>
      <point x="887" y="412" type="curve" name="dv03" smooth="yes"/>
      <point x="858" y="432"/>
      <point x="819" y="442" name="dh04"/>
      <point x="770" y="442" type="curve" smooth="yes"/>
      <point x="730" y="442" name="ih02"/>
      <point x="684" y="436" name="sh04"/>
      <point x="645" y="425" type="curve" name="dv01" smooth="yes"/>
      <point x="606" y="414" name="sh06"/>
      <point x="548" y="396"/>
      <point x="500" y="373" type="curve" name="sh07"/>
      <point x="500" y="537" type="line"/>
      <point x="543" y="550"/>
      <point x="602" y="564"/>
      <point x="646" y="571" type="curve"/>
      <point x="683" y="578"/>
      <point x="736" y="582"/>
      <point x="788" y="582" type="curve" smooth="yes"/>
      <point x="896" y="582"/>
      <point x="985" y="562"/>
      <point x="1046" y="519" type="curve" smooth="yes"/>
      <point x="1109" y="476"/>
      <point x="1139" y="416"/>
      <point x="1139" y="363" type="curve" smooth="yes"/>
      <point x="1139" y="266"/>
      <point x="1037" y="137"/>
      <point x="784" y="-60" type="curve" smooth="yes"/>
      <point x="701" y="-125" type="line"/>
      <point x="1141" y="-125" type="line"/>
      <point x="1141" y="-270" type="line"/>
      <point x="475" y="-270" type="line"/>
    </contour>
  </outline>
</glyph>
<glyph name="threequarters" format="1">
  <advance width="1233"/>
  <unicode hex="00BE"/>
  <outline>
    <contour>
      <point x="361" y="809" type="curve" smooth="yes" name="dv05"/>
      <point x="308" y="809" name="sv01"/>
      <point x="260" y="813"/>
      <point x="209" y="820" type="curve" smooth="yes"/>
      <point x="158" y="827"/>
      <point x="109" y="837" name="dv06"/>
      <point x="60" y="850" type="curve"/>
      <point x="60" y="1004" type="line" name="dh03"/>
      <point x="100" y="988"/>
      <point x="147" y="974" name="dv03"/>
      <point x="203" y="963" type="curve" smooth="yes"/>
      <point x="254" y="954"/>
      <point x="309" y="949" name="dv04"/>
      <point x="353" y="949" type="curve" smooth="yes"/>
      <point x="420" y="949" name="sh01"/>
      <point x="460" y="960"/>
      <point x="492" y="981" type="curve" smooth="yes" name="dv01"/>
      <point x="523" y="1002"/>
      <point x="539" y="1032"/>
      <point x="539" y="1070" type="curve" smooth="yes"/>
      <point x="539" y="1110" name="sv02"/>
      <point x="523" y="1141" name="dv02"/>
      <point x="490" y="1164" type="curve" smooth="yes"/>
      <point x="457" y="1187" name="ih01"/>
      <point x="412" y="1198"/>
      <point x="355" y="1198" type="curve" smooth="yes" name="iv01"/>
      <point x="244" y="1198" type="line"/>
      <point x="244" y="1344" type="line" name="dh04"/>
      <point x="355" y="1344" type="line" smooth="yes"/>
      <point x="404" y="1344"/>
      <point x="443" y="1352"/>
      <point x="472" y="1369" type="curve" smooth="yes"/>
      <point x="500" y="1386"/>
      <point x="514" y="1409"/>
      <point x="514" y="1439" type="curve" smooth="yes" name="dh01"/>
      <point x="514" y="1464"/>
      <point x="504" y="1490"/>
      <point x="475" y="1509" type="curve" smooth="yes"/>
      <point x="448" y="1526" name="sh02"/>
      <point x="414" y="1534" name="sv03"/>
      <point x="359" y="1534" type="curve" smooth="yes"/>
      <point x="320" y="1534" name="sv04"/>
      <point x="274" y="1530" name="dh02"/>
      <point x="227" y="1523" type="curve" smooth="yes" name="av01"/>
      <point x="180" y="1516"/>
      <point x="135" y="1504" name="sh03"/>
      <point x="90" y="1489" type="curve" name="ih02"/>
      <point x="90" y="1641" type="line" name="ih03"/>
      <point x="133" y="1652"/>
      <point x="180" y="1660" name="sh04"/>
      <point x="229" y="1667" type="curve" smooth="yes"/>
      <point x="276" y="1674"/>
      <point x="321" y="1676"/>
      <point x="364" y="1676" type="curve" smooth="yes"/>
      <point x="465" y="1676"/>
      <point x="556" y="1659"/>
      <point x="620" y="1618" type="curve" smooth="yes"/>
      <point x="680" y="1579"/>
      <point x="711" y="1526"/>
      <point x="711" y="1458" type="curve" smooth="yes"/>
      <point x="711" y="1409"/>
      <point x="694" y="1370"/>
      <point x="659" y="1339" type="curve" smooth="yes"/>
      <point x="624" y="1308"/>
      <point x="574" y="1287"/>
      <point x="508" y="1276" type="curve"/>
      <point x="582" y="1266"/>
      <point x="639" y="1242"/>
      <point x="678" y="1205" type="curve" smooth="yes"/>
      <point x="717" y="1168"/>
      <point x="736" y="1119"/>
      <point x="736" y="1056" type="curve" smooth="yes"/>
      <point x="736" y="976"/>
      <point x="704" y="915"/>
      <point x="640" y="873" type="curve" smooth="yes"/>
      <point x="575" y="830"/>
      <point x="482" y="809"/>
    </contour>
    <contour>
      <point x="47" y="618" type="line"/>
      <point x="1106" y="881" type="line"/>
      <point x="1143" y="762" type="line"/>
      <point x="84" y="500" type="line"/>
    </contour>
    <contour>
      <point x="823" y="-90" type="line"/>
      <point x="430" y="-90" type="line"/>
      <point x="430" y="72" type="line"/>
      <point x="805" y="565" type="line"/>
      <point x="1009" y="565" type="line"/>
      <point x="1009" y="53" type="line"/>
      <point x="1118" y="53" type="line"/>
      <point x="1118" y="-90" type="line"/>
      <point x="1009" y="-90" type="line"/>
      <point x="1009" y="-270" type="line"/>
      <point x="823" y="-270" type="line"/>
    </contour>
    <contour>
      <point x="823" y="53" type="line"/>
      <point x="823" y="383" type="line"/>
      <point x="573" y="53" type="line"/>
    </contour>
  </outline>
</glyph>
<glyph name="Iacute" format="1">
  <advance width="1233"/>
  <unicode hex="00CD"/>
  <outline>
    <contour>
      <point x="668" y="1852" type="line" name="av01"/>
      <point x="952" y="1852" type="line"/>
      <point x="666" y="1588" type="line"/>
      <point x="469" y="1588" type="line" name="iv01"/>
    </contour>
    <contour>
      <point x="172" y="260" type="line" name="sv01"/>
      <point x="469" y="260" type="line"/>
      <point x="469" y="1233" type="line" name="dh01"/>
      <point x="172" y="1233" type="line"/>
      <point x="172" y="1493" type="line" name="at01"/>
      <point x="1061" y="1493" type="line"/>
      <point x="1061" y="1233" type="line" name="sv02"/>
      <point x="764" y="1233" type="line" name="dh02"/>
      <point x="764" y="260" type="line" name="sv03"/>
      <point x="1061" y="260" type="line" name="sv04"/>
      <point x="1061" y="0" type="line" name="ab01"/>
      <point x="172" y="0" type="line"/>
    </contour>
  </outline>
</glyph>
<glyph name="Eth" format="1">
  <advance width="1233"/>
  <unicode hex="00D0"/>
  <outline>
    <contour>
      <point x="137" y="664" type="line" name="sh01"/>
      <point x="0" y="664" type="line"/>
      <point x="0" y="901" type="line"/>
      <point x="137" y="901" type="line" name="sh02"/>
      <point x="137" y="1493" type="line" name="at01"/>
      <point x="453" y="1493" type="line" smooth="yes"/>
      <point x="697" y="1493"/>
      <point x="873" y="1435" name="sh03"/>
      <point x="980" y="1319" type="curve" smooth="yes"/>
      <point x="1085" y="1204" name="ab01"/>
      <point x="1141" y="1018"/>
      <point x="1141" y="747" type="curve" name="sv01" smooth="yes"/>
      <point x="1141" y="484"/>
      <point x="1087" y="293" name="ah02"/>
      <point x="980" y="176" type="curve" smooth="yes"/>
      <point x="873" y="59" name="sv02"/>
      <point x="697" y="0" name="sh05"/>
      <point x="453" y="0" type="curve" name="sv03" smooth="yes"/>
      <point x="137" y="0" type="line"/>
    </contour>
    <contour>
      <point x="512" y="266" type="line" name="sv04" smooth="yes"/>
      <point x="628" y="266" name="sh04"/>
      <point x="711" y="303"/>
      <point x="760" y="376" type="curve" name="ah01" smooth="yes"/>
      <point x="809" y="449" name="sh06"/>
      <point x="834" y="573"/>
      <point x="834" y="748" type="curve" smooth="yes"/>
      <point x="834" y="921"/>
      <point x="809" y="1045"/>
      <point x="760" y="1118" type="curve" smooth="yes"/>
      <point x="711" y="1191"/>
      <point x="629" y="1227"/>
      <point x="512" y="1227" type="curve" smooth="yes"/>
      <point x="432" y="1227" type="line"/>
      <point x="432" y="901" type="line"/>
      <point x="643" y="901" type="line"/>
      <point x="643" y="664" type="line"/>
      <point x="432" y="664" type="line"/>
      <point x="432" y="266" type="line"/>
    </contour>
  </outline>
</glyph>
<glyph name="Eth" format="1">
  <advance width="1233"/>
  <unicode hex="00D0"/>
  <outline>
    <contour>
      <point x="137" y="664" type="line" name="sh01"/>
      <point x="0" y="664" type="line"/>
      <point x="0" y="901" type="line"/>
      <point x="137" y="901" type="line" name="sh02"/>
      <point x="137" y="1493" type="line" name="at01"/>
      <point x="453" y="1493" type="line" smooth="yes"/>
      <point x="697" y="1493"/>
      <point x="873" y="1435" name="sh03"/>
      <point x="980" y="1319" type="curve" smooth="yes"/>
      <point x="1085" y="1204" name="ab01"/>
      <point x="1141" y="1018"/>
      <point x="1141" y="747" type="curve" smooth="yes" name="sv01"/>
      <point x="1141" y="484"/>
      <point x="1087" y="293" name="ah02"/>
      <point x="980" y="176" type="curve" smooth="yes"/>
      <point x="873" y="59" name="sv02"/>
      <point x="697" y="0" name="sh05"/>
      <point x="453" y="0" type="curve" smooth="yes" name="sv03"/>
      <point x="137" y="0" type="line"/>
    </contour>
    <contour>
      <point x="512" y="266" type="line" smooth="yes" name="sv04"/>
      <point x="628" y="266" name="sh04"/>
      <point x="711" y="303"/>
      <point x="760" y="376" type="curve" smooth="yes" name="ah01"/>
      <point x="809" y="449" name="sh06"/>
      <point x="834" y="573"/>
      <point x="834" y="748" type="curve" smooth="yes"/>
      <point x="834" y="921"/>
      <point x="809" y="1045"/>
      <point x="760" y="1118" type="curve" smooth="yes"/>
      <point x="711" y="1191"/>
      <point x="629" y="1227"/>
      <point x="512" y="1227" type="curve" smooth="yes"/>
      <point x="432" y="1227" type="line"/>
      <point x="432" y="901" type="line"/>
      <point x="643" y="901" type="line"/>
      <point x="643" y="664" type="line"/>
      <point x="432" y="664" type="line"/>
      <point x="432" y="266" type="line"/>
    </contour>
  </outline>
</glyph>
<glyph name="Oacute" format="1">
  <advance width="1233"/>
  <unicode hex="00D3"/>
  <outline>
    <contour>
      <point x="668" y="1852" type="line" name="av01"/>
      <point x="952" y="1852" type="line" name="ih01"/>
      <point x="666" y="1588" type="line"/>
      <point x="469" y="1588" type="line" name="ih02"/>
    </contour>
    <contour>
      <point x="616" y="-29" type="curve" name="dv01" smooth="yes"/>
      <point x="436" y="-29"/>
      <point x="309" y="41" name="sh02"/>
      <point x="225" y="166" type="curve" smooth="yes"/>
      <point x="136" y="297" name="at01"/>
      <point x="92" y="490"/>
      <point x="92" y="745" type="curve" name="sh01" smooth="yes"/>
      <point x="92" y="1000"/>
      <point x="136" y="1192"/>
      <point x="225" y="1325" type="curve" name="dv02" smooth="yes"/>
      <point x="317" y="1461"/>
      <point x="453" y="1520" name="ah02"/>
      <point x="616" y="1520" type="curve" smooth="yes"/>
      <point x="791" y="1520" name="sv01"/>
      <point x="921" y="1453"/>
      <point x="1009" y="1324" type="curve" name="sh03" smooth="yes"/>
      <point x="1097" y="1193"/>
      <point x="1141" y="1000"/>
      <point x="1141" y="745" type="curve" name="ah01" smooth="yes"/>
      <point x="1141" y="490" name="sh04"/>
      <point x="1097" y="298"/>
      <point x="1009" y="167" type="curve" smooth="yes"/>
      <point x="924" y="40"/>
      <point x="795" y="-29"/>
    </contour>
    <contour>
      <point x="616" y="236" type="curve" smooth="yes"/>
      <point x="692" y="236"/>
      <point x="747" y="276"/>
      <point x="782" y="357" type="curve" smooth="yes"/>
      <point x="817" y="436"/>
      <point x="834" y="566"/>
      <point x="834" y="746" type="curve" smooth="yes"/>
      <point x="834" y="925"/>
      <point x="817" y="1055"/>
      <point x="782" y="1134" type="curve" smooth="yes"/>
      <point x="747" y="1215"/>
      <point x="692" y="1255"/>
      <point x="616" y="1255" type="curve" smooth="yes"/>
      <point x="537" y="1255"/>
      <point x="486" y="1214"/>
      <point x="451" y="1134" type="curve" smooth="yes"/>
      <point x="416" y="1054"/>
      <point x="399" y="934"/>
      <point x="399" y="747" type="curve" smooth="yes"/>
      <point x="399" y="566"/>
      <point x="416" y="436"/>
      <point x="451" y="357" type="curve" smooth="yes"/>
      <point x="486" y="276"/>
      <point x="541" y="236"/>
    </contour>
  </outline>
</glyph>
<glyph name="Ocircumflex" format="1">
  <advance width="1233"/>
  <unicode hex="00D4"/>
  <outline>
    <contour>
      <point x="461" y="1852" type="line" name="av01"/>
      <point x="770" y="1852" type="line"/>
      <point x="993" y="1588" type="line" name="ih01"/>
      <point x="815" y="1588" type="line"/>
      <point x="616" y="1749" type="line"/>
      <point x="418" y="1588" type="line"/>
      <point x="240" y="1588" type="line" name="ih02"/>
    </contour>
    <contour>
      <point x="616" y="-29" type="curve" smooth="yes" name="dv01"/>
      <point x="436" y="-29"/>
      <point x="309" y="41" name="sh02"/>
      <point x="225" y="166" type="curve" smooth="yes"/>
      <point x="136" y="297" name="at01"/>
      <point x="92" y="490"/>
      <point x="92" y="745" type="curve" smooth="yes" name="sh01"/>
      <point x="92" y="1000"/>
      <point x="136" y="1192"/>
      <point x="225" y="1325" type="curve" smooth="yes" name="dv02"/>
      <point x="317" y="1461"/>
      <point x="453" y="1520" name="ah02"/>
      <point x="616" y="1520" type="curve" smooth="yes"/>
      <point x="791" y="1520" name="sv01"/>
      <point x="921" y="1453"/>
      <point x="1009" y="1324" type="curve" smooth="yes" name="sh03"/>
      <point x="1097" y="1193"/>
      <point x="1141" y="1000"/>
      <point x="1141" y="745" type="curve" smooth="yes" name="ah01"/>
      <point x="1141" y="490" name="sh04"/>
      <point x="1097" y="298"/>
      <point x="1009" y="167" type="curve" smooth="yes"/>
      <point x="924" y="40"/>
      <point x="795" y="-29"/>
    </contour>
    <contour>
      <point x="616" y="236" type="curve" smooth="yes"/>
      <point x="692" y="236"/>
      <point x="747" y="276"/>
      <point x="782" y="357" type="curve" smooth="yes"/>
      <point x="817" y="436"/>
      <point x="834" y="566"/>
      <point x="834" y="746" type="curve" smooth="yes"/>
      <point x="834" y="925"/>
      <point x="817" y="1055"/>
      <point x="782" y="1134" type="curve" smooth="yes"/>
      <point x="747" y="1215"/>
      <point x="692" y="1255"/>
      <point x="616" y="1255" type="curve" smooth="yes"/>
      <point x="537" y="1255"/>
      <point x="486" y="1214"/>
      <point x="451" y="1134" type="curve" smooth="yes"/>
      <point x="416" y="1054"/>
      <point x="399" y="934"/>
      <point x="399" y="747" type="curve" smooth="yes"/>
      <point x="399" y="566"/>
      <point x="416" y="436"/>
      <point x="451" y="357" type="curve" smooth="yes"/>
      <point x="486" y="276"/>
      <point x="541" y="236"/>
    </contour>
  </outline>
</glyph>
<glyph name="Otilde" format="1">
  <advance width="1233"/>
  <unicode hex="00D5"/>
  <outline>
    <contour>
      <point x="268" y="1618" type="line" smooth="yes" name="hr00"/>
      <point x="268" y="1691"/>
      <point x="289" y="1750" name="sv01"/>
      <point x="322" y="1789" type="curve" smooth="yes"/>
      <point x="359" y="1833"/>
      <point x="411" y="1854"/>
      <point x="466" y="1854" type="curve" smooth="yes"/>
      <point x="491" y="1854"/>
      <point x="515" y="1850"/>
      <point x="539" y="1842" type="curve" smooth="yes" name="sh01"/>
      <point x="559" y="1835"/>
      <point x="586" y="1824"/>
      <point x="614" y="1805" type="curve" smooth="yes"/>
      <point x="674" y="1766" type="line" smooth="yes"/>
      <point x="685" y="1759" name="dv03"/>
      <point x="696" y="1753"/>
      <point x="715" y="1745" type="curve" smooth="yes"/>
      <point x="728" y="1740"/>
      <point x="738" y="1737"/>
      <point x="750" y="1737" type="curve" smooth="yes"/>
      <point x="774" y="1737"/>
      <point x="793" y="1747" name="sh02"/>
      <point x="806" y="1767" type="curve" smooth="yes" name="sv02"/>
      <point x="819" y="1786" name="sh03"/>
      <point x="825" y="1815" name="dv01"/>
      <point x="825" y="1854" type="curve"/>
      <point x="965" y="1854" type="line" name="dh01"/>
      <point x="965" y="1851"/>
      <point x="965" y="1846" name="at01"/>
      <point x="964" y="1839" type="curve" smooth="yes"/>
      <point x="963" y="1834" name="dh04"/>
      <point x="963" y="1830"/>
      <point x="963" y="1827" type="curve" smooth="yes"/>
      <point x="963" y="1754" name="dv02"/>
      <point x="945" y="1696"/>
      <point x="910" y="1653" type="curve" smooth="yes" name="dh03"/>
      <point x="871" y="1606"/>
      <point x="823" y="1588" name="sv03"/>
      <point x="768" y="1588" type="curve" smooth="yes"/>
      <point x="744" y="1588" name="dh02"/>
      <point x="720" y="1592"/>
      <point x="696" y="1599" type="curve" smooth="yes"/>
      <point x="669" y="1607"/>
      <point x="646" y="1618" name="sh04"/>
      <point x="618" y="1637" type="curve"/>
      <point x="564" y="1671" type="line"/>
      <point x="552" y="1678" type="line" smooth="yes"/>
      <point x="524" y="1693"/>
      <point x="502" y="1704"/>
      <point x="479" y="1704" type="curve" smooth="yes"/>
      <point x="458" y="1704"/>
      <point x="441" y="1694"/>
      <point x="428" y="1674" type="curve" smooth="yes"/>
      <point x="415" y="1653"/>
      <point x="408" y="1627"/>
      <point x="408" y="1594" type="curve" smooth="yes"/>
      <point x="408" y="1588" type="line"/>
      <point x="268" y="1588" type="line"/>
    </contour>
    <contour>
      <point x="616" y="-29" type="curve" smooth="yes"/>
      <point x="436" y="-29"/>
      <point x="309" y="41"/>
      <point x="225" y="166" type="curve" smooth="yes"/>
      <point x="136" y="297"/>
      <point x="92" y="490"/>
      <point x="92" y="745" type="curve" smooth="yes"/>
      <point x="92" y="1000"/>
      <point x="136" y="1192"/>
      <point x="225" y="1325" type="curve" smooth="yes"/>
      <point x="317" y="1461"/>
      <point x="453" y="1520"/>
      <point x="616" y="1520" type="curve" smooth="yes"/>
      <point x="791" y="1520"/>
      <point x="921" y="1453"/>
      <point x="1009" y="1324" type="curve" smooth="yes"/>
      <point x="1097" y="1193"/>
      <point x="1141" y="1000"/>
      <point x="1141" y="745" type="curve" smooth="yes"/>
      <point x="1141" y="490"/>
      <point x="1097" y="298"/>
      <point x="1009" y="167" type="curve" smooth="yes"/>
      <point x="924" y="40"/>
      <point x="795" y="-29"/>
    </contour>
    <contour>
      <point x="616" y="236" type="curve" smooth="yes"/>
      <point x="692" y="236"/>
      <point x="747" y="276"/>
      <point x="782" y="357" type="curve" smooth="yes"/>
      <point x="817" y="436"/>
      <point x="834" y="566"/>
      <point x="834" y="746" type="curve" smooth="yes"/>
      <point x="834" y="925"/>
      <point x="817" y="1055"/>
      <point x="782" y="1134" type="curve" smooth="yes"/>
      <point x="747" y="1215"/>
      <point x="692" y="1255"/>
      <point x="616" y="1255" type="curve" smooth="yes"/>
      <point x="537" y="1255"/>
      <point x="486" y="1214"/>
      <point x="451" y="1134" type="curve" smooth="yes"/>
      <point x="416" y="1054"/>
      <point x="399" y="934"/>
      <point x="399" y="747" type="curve" smooth="yes"/>
      <point x="399" y="566"/>
      <point x="416" y="436"/>
      <point x="451" y="357" type="curve" smooth="yes"/>
      <point x="486" y="276"/>
      <point x="541" y="236"/>
    </contour>
  </outline>
</glyph>
<glyph name="Oslash" format="1">
  <advance width="1233"/>
  <unicode hex="00D8"/>
  <outline>
    <contour>
      <point x="-6" y="51" type="line" name="hr00"/>
      <point x="162" y="289" type="line"/>
      <point x="137" y="354"/>
      <point x="122" y="411" name="sh01"/>
      <point x="110" y="491" type="curve" smooth="yes"/>
      <point x="99" y="563" name="at02"/>
      <point x="92" y="639"/>
      <point x="92" y="743" type="curve" smooth="yes"/>
      <point x="92" y="1000" name="at01"/>
      <point x="136" y="1193"/>
      <point x="225" y="1324" type="curve" smooth="yes"/>
      <point x="313" y="1455"/>
      <point x="439" y="1520" name="sh02"/>
      <point x="616" y="1520" type="curve" smooth="yes"/>
      <point x="686" y="1520" name="dv01"/>
      <point x="748" y="1510"/>
      <point x="802" y="1489" type="curve" smooth="yes"/>
      <point x="861" y="1466" name="av01"/>
      <point x="907" y="1436"/>
      <point x="946" y="1397" type="curve"/>
      <point x="1059" y="1559" type="line" name="sv01"/>
      <point x="1221" y="1444" type="line"/>
      <point x="1063" y="1221" type="line" name="sh03"/>
      <point x="1090" y="1156" name="iv01"/>
      <point x="1109" y="1085" name="dv02"/>
      <point x="1122" y="1008" type="curve" smooth="yes"/>
      <point x="1135" y="928" name="ah02"/>
      <point x="1141" y="841"/>
      <point x="1141" y="745" type="curve" smooth="yes" name="sh04"/>
      <point x="1141" y="490"/>
      <point x="1097" y="298"/>
      <point x="1009" y="167" type="curve" smooth="yes"/>
      <point x="917" y="31" name="ah01"/>
      <point x="784" y="-29" name="sh05"/>
      <point x="615" y="-29" type="curve" smooth="yes"/>
      <point x="539" y="-29"/>
      <point x="481" y="-18"/>
      <point x="425" y="5" type="curve" smooth="yes"/>
      <point x="369" y="28"/>
      <point x="323" y="57"/>
      <point x="276" y="104" type="curve"/>
      <point x="156" y="-63" type="line"/>
    </contour>
    <contour>
      <point x="772" y="1153" type="line"/>
      <point x="755" y="1187"/>
      <point x="733" y="1213"/>
      <point x="707" y="1230" type="curve" smooth="yes"/>
      <point x="682" y="1247"/>
      <point x="652" y="1255"/>
      <point x="617" y="1255" type="curve" smooth="yes"/>
      <point x="538" y="1255"/>
      <point x="487" y="1214"/>
      <point x="452" y="1135" type="curve" smooth="yes"/>
      <point x="417" y="1054"/>
      <point x="399" y="928"/>
      <point x="399" y="756" type="curve" smooth="yes"/>
      <point x="399" y="629" type="line"/>
    </contour>
    <contour>
      <point x="618" y="236" type="curve" smooth="yes"/>
      <point x="698" y="236"/>
      <point x="748" y="280"/>
      <point x="781" y="357" type="curve" smooth="yes"/>
      <point x="815" y="436"/>
      <point x="834" y="560"/>
      <point x="834" y="781" type="curve"/>
      <point x="833" y="804" type="line"/>
      <point x="830" y="841"/>
      <point x="832" y="830"/>
      <point x="829" y="888" type="curve"/>
      <point x="451" y="354" type="line"/>
      <point x="466" y="317"/>
      <point x="490" y="286"/>
      <point x="517" y="267" type="curve" smooth="yes"/>
      <point x="546" y="246"/>
      <point x="579" y="236"/>
    </contour>
  </outline>
</glyph>
<glyph name="Uacute" format="1">
  <advance width="1233"/>
  <unicode hex="00DA"/>
  <outline>
    <contour>
      <point x="668" y="1852" type="line" name="av01"/>
      <point x="952" y="1852" type="line" name="ih01"/>
      <point x="666" y="1588" type="line"/>
      <point x="469" y="1588" type="line" name="ih02"/>
    </contour>
    <contour>
      <point x="616" y="-29" type="curve" name="dv01" smooth="yes"/>
      <point x="438" y="-29"/>
      <point x="309" y="17" name="sh02"/>
      <point x="228" y="109" type="curve" name="at01" smooth="yes"/>
      <point x="147" y="202"/>
      <point x="106" y="349" name="sh03"/>
      <point x="106" y="551" type="curve" smooth="yes"/>
      <point x="106" y="1493" type="line" name="dv02"/>
      <point x="401" y="1493" type="line"/>
      <point x="401" y="477" type="line" name="ah02" smooth="yes"/>
      <point x="401" y="401" name="at02"/>
      <point x="422" y="341"/>
      <point x="458" y="301" type="curve" name="sh01" smooth="yes"/>
      <point x="497" y="258"/>
      <point x="552" y="238"/>
      <point x="616" y="238" type="curve" name="ah01" smooth="yes"/>
      <point x="680" y="238" name="sh04"/>
      <point x="735" y="258"/>
      <point x="774" y="301" type="curve" smooth="yes"/>
      <point x="810" y="341"/>
      <point x="831" y="401"/>
      <point x="831" y="477" type="curve" smooth="yes"/>
      <point x="831" y="1493" type="line"/>
      <point x="1126" y="1493" type="line"/>
      <point x="1126" y="551" type="line" smooth="yes"/>
      <point x="1126" y="348"/>
      <point x="1086" y="200"/>
      <point x="1005" y="109" type="curve" smooth="yes"/>
      <point x="924" y="17"/>
      <point x="794" y="-29"/>
    </contour>
  </outline>
</glyph>
<glyph name="Udieresis" format="1">
  <advance width="1233"/>
  <unicode hex="00DC"/>
  <outline>
    <contour>
      <point x="331" y="1606" type="line" smooth="yes" name="dv03"/>
      <point x="311" y="1606" name="ih01"/>
      <point x="301" y="1616"/>
      <point x="301" y="1636" type="curve" smooth="yes" name="dv04"/>
      <point x="301" y="1822" type="line" smooth="yes"/>
      <point x="301" y="1842"/>
      <point x="311" y="1852" name="sh01"/>
      <point x="331" y="1852" type="curve" smooth="yes"/>
      <point x="507" y="1852" type="line" smooth="yes" name="sv01"/>
      <point x="527" y="1852" name="dh03"/>
      <point x="537" y="1842"/>
      <point x="537" y="1822" type="curve" smooth="yes" name="sv02"/>
      <point x="537" y="1636" type="line" smooth="yes"/>
      <point x="537" y="1616"/>
      <point x="527" y="1606" name="dh04"/>
      <point x="507" y="1606" type="curve" smooth="yes"/>
    </contour>
    <contour>
      <point x="726" y="1606" type="line" smooth="yes" name="dv01"/>
      <point x="706" y="1606"/>
      <point x="696" y="1616" name="dh01"/>
      <point x="696" y="1636" type="curve" smooth="yes" name="at01"/>
      <point x="696" y="1822" type="line" smooth="yes"/>
      <point x="696" y="1842" name="dh02"/>
      <point x="706" y="1852"/>
      <point x="726" y="1852" type="curve" smooth="yes" name="dv02"/>
      <point x="902" y="1852" type="line" smooth="yes"/>
      <point x="922" y="1852" name="ih02"/>
      <point x="932" y="1842" name="at02"/>
      <point x="932" y="1822" type="curve" smooth="yes"/>
      <point x="932" y="1636" type="line" smooth="yes" name="sh02"/>
      <point x="932" y="1616"/>
      <point x="922" y="1606"/>
      <point x="902" y="1606" type="curve" smooth="yes"/>
    </contour>
    <contour>
      <point x="616" y="-29" type="curve" smooth="yes" name="sh03"/>
      <point x="438" y="-29"/>
      <point x="309" y="17"/>
      <point x="228" y="109" type="curve" smooth="yes"/>
      <point x="147" y="202"/>
      <point x="106" y="349"/>
      <point x="106" y="551" type="curve" smooth="yes"/>
      <point x="106" y="1493" type="line"/>
      <point x="401" y="1493" type="line"/>
      <point x="401" y="477" type="line" smooth="yes"/>
      <point x="401" y="401"/>
      <point x="422" y="341"/>
      <point x="458" y="301" type="curve" smooth="yes"/>
      <point x="497" y="258"/>
      <point x="552" y="238"/>
      <point x="616" y="238" type="curve" smooth="yes"/>
      <point x="680" y="238"/>
      <point x="735" y="258"/>
      <point x="774" y="301" type="curve" smooth="yes"/>
      <point x="810" y="341"/>
      <point x="831" y="401"/>
      <point x="831" y="477" type="curve" smooth="yes"/>
      <point x="831" y="1493" type="line"/>
      <point x="1126" y="1493" type="line"/>
      <point x="1126" y="551" type="line" smooth="yes"/>
      <point x="1126" y="348"/>
      <point x="1086" y="200"/>
      <point x="1005" y="109" type="curve" smooth="yes"/>
      <point x="924" y="17"/>
      <point x="794" y="-29"/>
    </contour>
  </outline>
</glyph>
<glyph name="acircumflex" format="1">
  <advance width="1233"/>
  <unicode hex="00E2"/>
  <outline>
    <contour>
      <point x="496" y="1672" type="line" name="av01"/>
      <point x="737" y="1672" type="line"/>
      <point x="993" y="1296" type="line" name="ih01"/>
      <point x="815" y="1296" type="line" name="sh02"/>
      <point x="616" y="1521" type="line"/>
      <point x="418" y="1296" type="line" name="sh05"/>
      <point x="240" y="1296" type="line" name="ih02"/>
    </contour>
    <contour>
      <point x="494" y="-29" type="curve" smooth="yes" name="dv01"/>
      <point x="373" y="-29"/>
      <point x="274" y="4" name="sh03"/>
      <point x="202" y="72" type="curve" smooth="yes"/>
      <point x="131" y="139"/>
      <point x="95" y="233" name="ah02"/>
      <point x="95" y="354" type="curve" smooth="yes"/>
      <point x="95" y="482"/>
      <point x="134" y="580" name="dv04"/>
      <point x="222" y="644" type="curve" smooth="yes" name="sh06"/>
      <point x="307" y="706" name="ih03"/>
      <point x="438" y="737"/>
      <point x="615" y="737" type="curve" smooth="yes" name="sh07"/>
      <point x="818" y="737" type="line" name="dv05"/>
      <point x="818" y="786" type="line" smooth="yes"/>
      <point x="818" y="835" name="sh01"/>
      <point x="799" y="871" name="sh08"/>
      <point x="767" y="894" type="curve" smooth="yes" name="sh09"/>
      <point x="732" y="919" name="sh10"/>
      <point x="679" y="930"/>
      <point x="610" y="930" type="curve" smooth="yes" name="ab01"/>
      <point x="546" y="930"/>
      <point x="477" y="921"/>
      <point x="412" y="904" type="curve" smooth="yes" name="sh11"/>
      <point x="348" y="887" name="ab02"/>
      <point x="278" y="858"/>
      <point x="206" y="819" type="curve" name="dv02"/>
      <point x="206" y="1069" type="line"/>
      <point x="262" y="1092" name="sh12"/>
      <point x="336" y="1116" name="dv03"/>
      <point x="403" y="1128" type="curve"/>
      <point x="458" y="1139"/>
      <point x="540" y="1148" name="sh04"/>
      <point x="628" y="1148" type="curve" smooth="yes"/>
      <point x="815" y="1148"/>
      <point x="927" y="1102" name="ah01"/>
      <point x="997" y="1035" type="curve" name="sh13"/>
      <point x="1069" y="963"/>
      <point x="1109" y="852"/>
      <point x="1109" y="644" type="curve" smooth="yes"/>
      <point x="1109" y="570"/>
      <point x="1104" y="323"/>
      <point x="1104" y="274" type="curve" smooth="yes"/>
      <point x="1104" y="246"/>
      <point x="1105" y="216"/>
      <point x="1106" y="197" type="curve"/>
      <point x="1109" y="170"/>
      <point x="1110" y="142"/>
      <point x="1113" y="125" type="curve" smooth="yes"/>
      <point x="1117" y="98"/>
      <point x="1123" y="71"/>
      <point x="1127" y="58" type="curve" smooth="yes"/>
      <point x="1134" y="38"/>
      <point x="1144" y="15"/>
      <point x="1155" y="0" type="curve"/>
      <point x="865" y="0" type="line"/>
      <point x="853" y="20"/>
      <point x="842" y="43"/>
      <point x="837" y="58" type="curve" smooth="yes"/>
      <point x="833" y="71"/>
      <point x="827" y="98"/>
      <point x="824" y="125" type="curve"/>
      <point x="787" y="76"/>
      <point x="740" y="38"/>
      <point x="682" y="11" type="curve" smooth="yes"/>
      <point x="626" y="-16"/>
      <point x="570" y="-29"/>
    </contour>
    <contour>
      <point x="576" y="174" type="curve" smooth="yes"/>
      <point x="651" y="174"/>
      <point x="711" y="202"/>
      <point x="754" y="262" type="curve"/>
      <point x="797" y="319"/>
      <point x="818" y="401"/>
      <point x="818" y="506" type="curve" smooth="yes"/>
      <point x="818" y="526" type="line"/>
      <point x="701" y="526" type="line" smooth="yes"/>
      <point x="591" y="526"/>
      <point x="515" y="512"/>
      <point x="472" y="484" type="curve" smooth="yes"/>
      <point x="429" y="456"/>
      <point x="407" y="409"/>
      <point x="407" y="342" type="curve" smooth="yes"/>
      <point x="407" y="287"/>
      <point x="421" y="250"/>
      <point x="452" y="219" type="curve" smooth="yes"/>
      <point x="482" y="189"/>
      <point x="523" y="174"/>
    </contour>
  </outline>
</glyph>
<glyph name="ae" format="1">
  <advance width="1233"/>
  <unicode hex="00E6"/>
  <outline>
    <contour>
      <point x="346" y="-29" type="curve" name="dv01" smooth="yes"/>
      <point x="241" y="-29"/>
      <point x="159" y="2" name="dh01"/>
      <point x="101" y="63" type="curve" smooth="yes"/>
      <point x="43" y="125"/>
      <point x="14" y="213" name="dh03"/>
      <point x="14" y="326" type="curve" smooth="yes"/>
      <point x="14" y="449"/>
      <point x="48" y="542" name="sv01"/>
      <point x="115" y="603" type="curve" smooth="yes"/>
      <point x="182" y="664" name="ih01"/>
      <point x="283" y="694"/>
      <point x="420" y="694" type="curve" smooth="yes"/>
      <point x="496" y="694" type="line" name="at01"/>
      <point x="496" y="745" type="line" smooth="yes"/>
      <point x="496" y="807" name="ih02"/>
      <point x="483" y="854"/>
      <point x="457" y="885" type="curve" name="at02" smooth="yes"/>
      <point x="431" y="916"/>
      <point x="393" y="932"/>
      <point x="343" y="932" type="curve" smooth="yes"/>
      <point x="300" y="932" name="sh01"/>
      <point x="257" y="921"/>
      <point x="218" y="905" type="curve" name="sv02" smooth="yes"/>
      <point x="179" y="889"/>
      <point x="128" y="862" name="dh06"/>
      <point x="76" y="823" type="curve"/>
      <point x="76" y="1069" type="line"/>
      <point x="126" y="1096" name="sv03"/>
      <point x="174" y="1115"/>
      <point x="220" y="1128" type="curve" name="ih03" smooth="yes"/>
      <point x="266" y="1141"/>
      <point x="312" y="1147"/>
      <point x="357" y="1147" type="curve" name="dh05" smooth="yes"/>
      <point x="418" y="1147"/>
      <point x="472" y="1137"/>
      <point x="515" y="1116" type="curve" name="sv04" smooth="yes"/>
      <point x="556" y="1095"/>
      <point x="589" y="1063"/>
      <point x="612" y="1020" type="curve" name="dh04"/>
      <point x="631" y="1061" name="dv02"/>
      <point x="662" y="1092"/>
      <point x="707" y="1114" type="curve" name="sh02" smooth="yes"/>
      <point x="751" y="1136" name="sv05"/>
      <point x="804" y="1147"/>
      <point x="865" y="1147" type="curve" smooth="yes"/>
      <point x="986" y="1147" name="dh02"/>
      <point x="1065" y="1108"/>
      <point x="1114" y="1028" type="curve" smooth="yes"/>
      <point x="1161" y="952"/>
      <point x="1188" y="828" name="sh03"/>
      <point x="1188" y="606" type="curve" smooth="yes"/>
      <point x="1188" y="479" type="line"/>
      <point x="737" y="479" type="line"/>
      <point x="737" y="384"/>
      <point x="754" y="311"/>
      <point x="787" y="260" type="curve" smooth="yes"/>
      <point x="818" y="213"/>
      <point x="863" y="184"/>
      <point x="932" y="184" type="curve" smooth="yes"/>
      <point x="977" y="184"/>
      <point x="1015" y="195"/>
      <point x="1052" y="214" type="curve" smooth="yes"/>
      <point x="1087" y="231"/>
      <point x="1126" y="256"/>
      <point x="1171" y="301" type="curve"/>
      <point x="1171" y="57" type="line"/>
      <point x="1138" y="28"/>
      <point x="1100" y="6"/>
      <point x="1059" y="-8" type="curve" smooth="yes"/>
      <point x="1016" y="-23"/>
      <point x="967" y="-29"/>
      <point x="916" y="-29" type="curve" smooth="yes"/>
      <point x="843" y="-29"/>
      <point x="786" y="-15"/>
      <point x="735" y="13" type="curve" smooth="yes"/>
      <point x="685" y="41"/>
      <point x="646" y="82"/>
      <point x="618" y="135" type="curve"/>
      <point x="591" y="79"/>
      <point x="555" y="38"/>
      <point x="512" y="11" type="curve" smooth="yes"/>
      <point x="469" y="-16"/>
      <point x="413" y="-29"/>
    </contour>
    <contour>
      <point x="963" y="690" type="line"/>
      <point x="963" y="713" type="line" smooth="yes"/>
      <point x="963" y="797"/>
      <point x="955" y="854"/>
      <point x="938" y="885" type="curve" smooth="yes"/>
      <point x="921" y="916"/>
      <point x="891" y="932"/>
      <point x="850" y="932" type="curve" smooth="yes"/>
      <point x="809" y="932"/>
      <point x="779" y="916"/>
      <point x="762" y="885" type="curve" smooth="yes"/>
      <point x="745" y="854"/>
      <point x="737" y="797"/>
      <point x="737" y="713" type="curve" smooth="yes"/>
      <point x="737" y="690" type="line"/>
    </contour>
    <contour>
      <point x="365" y="184" type="curve" smooth="yes"/>
      <point x="407" y="184"/>
      <point x="438" y="198"/>
      <point x="459" y="227" type="curve" smooth="yes"/>
      <point x="479" y="256"/>
      <point x="489" y="299"/>
      <point x="489" y="358" type="curve" smooth="yes"/>
      <point x="489" y="483" type="line"/>
      <point x="416" y="483" type="line" smooth="yes"/>
      <point x="359" y="483"/>
      <point x="315" y="470"/>
      <point x="285" y="444" type="curve" smooth="yes"/>
      <point x="255" y="418"/>
      <point x="240" y="380"/>
      <point x="240" y="329" type="curve" smooth="yes"/>
      <point x="240" y="283"/>
      <point x="251" y="247"/>
      <point x="272" y="222" type="curve" smooth="yes"/>
      <point x="293" y="197"/>
      <point x="324" y="184"/>
    </contour>
  </outline>
</glyph>
<glyph name="igrave" format="1">
  <advance width="1233"/>
  <unicode hex="00EC"/>
  <outline>
    <contour>
      <point x="159" y="1683" type="line" name="av01"/>
      <point x="441" y="1683" type="line"/>
      <point x="724" y="1307" type="line" name="iv01"/>
      <point x="527" y="1307" type="line"/>
    </contour>
    <contour>
      <point x="822" y="-12" type="line" name="ab01" smooth="yes"/>
      <point x="683" y="-12"/>
      <point x="583" y="24" name="dh01"/>
      <point x="522" y="96" type="curve" name="sv01" smooth="yes"/>
      <point x="461" y="167"/>
      <point x="431" y="287" name="at01"/>
      <point x="431" y="455" type="curve" smooth="yes"/>
      <point x="431" y="895" type="line" name="dh02"/>
      <point x="184" y="895" type="line"/>
      <point x="184" y="1120" type="line" name="sv02"/>
      <point x="724" y="1120" type="line"/>
      <point x="724" y="455" type="line" smooth="yes"/>
      <point x="724" y="368"/>
      <point x="738" y="305"/>
      <point x="765" y="268" type="curve" smooth="yes"/>
      <point x="792" y="231"/>
      <point x="838" y="213"/>
      <point x="904" y="213" type="curve" smooth="yes"/>
      <point x="1138" y="213" type="line"/>
      <point x="1138" y="-12" type="line"/>
    </contour>
  </outline>
</glyph>
<glyph name="iacute" format="1">
  <advance width="1233"/>
  <unicode hex="00ED"/>
  <outline>
    <contour>
      <point x="694" y="1673" type="line" name="av01"/>
      <point x="976" y="1673" type="line"/>
      <point x="608" y="1297" type="line"/>
      <point x="411" y="1297" type="line" name="dh01"/>
    </contour>
    <contour>
      <point x="802" y="-12" type="line" name="ab01" smooth="yes"/>
      <point x="663" y="-12"/>
      <point x="563" y="24" name="sh01"/>
      <point x="502" y="96" type="curve" name="sv01" smooth="yes"/>
      <point x="441" y="167"/>
      <point x="411" y="287" name="at01"/>
      <point x="411" y="455" type="curve" name="dh02" smooth="yes"/>
      <point x="411" y="895" type="line"/>
      <point x="184" y="895" type="line"/>
      <point x="184" y="1120" type="line" name="sv02"/>
      <point x="704" y="1120" type="line"/>
      <point x="704" y="455" type="line" smooth="yes"/>
      <point x="704" y="368"/>
      <point x="718" y="305"/>
      <point x="745" y="268" type="curve" smooth="yes"/>
      <point x="772" y="231"/>
      <point x="818" y="213"/>
      <point x="884" y="213" type="curve" smooth="yes"/>
      <point x="1118" y="213" type="line"/>
      <point x="1118" y="-12" type="line"/>
    </contour>
  </outline>
</glyph>
<glyph name="idieresis" format="1">
  <advance width="1233"/>
  <unicode hex="00EF"/>
  <outline>
    <contour>
      <point x="261" y="1347" type="line" name="sv01" smooth="yes"/>
      <point x="241" y="1347" name="dh01"/>
      <point x="231" y="1357"/>
      <point x="231" y="1377" type="curve" name="at01" smooth="yes"/>
      <point x="231" y="1563" type="line" smooth="yes"/>
      <point x="231" y="1583"/>
      <point x="241" y="1593" name="dh02"/>
      <point x="261" y="1593" type="curve" smooth="yes"/>
      <point x="437" y="1593" type="line" name="sv02" smooth="yes"/>
      <point x="457" y="1593" name="dh03"/>
      <point x="467" y="1583"/>
      <point x="467" y="1563" type="curve" name="at02" smooth="yes"/>
      <point x="467" y="1377" type="line" smooth="yes"/>
      <point x="467" y="1357"/>
      <point x="457" y="1347" name="dh04"/>
      <point x="437" y="1347" type="curve" name="sv03" smooth="yes"/>
    </contour>
    <contour>
      <point x="656" y="1347" type="line" name="ab01" smooth="yes"/>
      <point x="636" y="1347"/>
      <point x="626" y="1357" name="ih01"/>
      <point x="626" y="1377" type="curve" name="sv04" smooth="yes"/>
      <point x="626" y="1563" type="line" smooth="yes"/>
      <point x="626" y="1583" name="at03"/>
      <point x="636" y="1593"/>
      <point x="656" y="1593" type="curve" name="sh01" smooth="yes"/>
      <point x="832" y="1593" type="line" smooth="yes"/>
      <point x="852" y="1593" name="sv05"/>
      <point x="862" y="1583"/>
      <point x="862" y="1563" type="curve" smooth="yes"/>
      <point x="862" y="1377" type="line" smooth="yes"/>
      <point x="862" y="1357"/>
      <point x="852" y="1347"/>
      <point x="832" y="1347" type="curve" smooth="yes"/>
    </contour>
    <contour>
      <point x="812" y="-12" type="line" smooth="yes"/>
      <point x="673" y="-12"/>
      <point x="573" y="24"/>
      <point x="512" y="96" type="curve" smooth="yes"/>
      <point x="451" y="167"/>
      <point x="421" y="287"/>
      <point x="421" y="455" type="curve" smooth="yes"/>
      <point x="421" y="895" type="line"/>
      <point x="184" y="895" type="line"/>
      <point x="184" y="1120" type="line"/>
      <point x="714" y="1120" type="line"/>
      <point x="714" y="455" type="line" smooth="yes"/>
      <point x="714" y="368"/>
      <point x="728" y="305"/>
      <point x="755" y="268" type="curve" smooth="yes"/>
      <point x="782" y="231"/>
      <point x="828" y="213"/>
      <point x="894" y="213" type="curve" smooth="yes"/>
      <point x="1128" y="213" type="line"/>
      <point x="1128" y="-12" type="line"/>
    </contour>
  </outline>
</glyph>
<glyph name="eth" format="1">
  <advance width="1233"/>
  <unicode hex="00F0"/>
  <outline>
    <contour>
      <point x="613" y="-29" type="curve" name="dv01" smooth="yes"/>
      <point x="446" y="-29"/>
      <point x="321" y="29" name="sh01"/>
      <point x="236" y="124" type="curve" smooth="yes"/>
      <point x="144" y="227" name="dv04"/>
      <point x="98" y="367"/>
      <point x="98" y="534" type="curve" name="ih01" smooth="yes"/>
      <point x="98" y="693"/>
      <point x="141" y="820"/>
      <point x="227" y="913" type="curve" smooth="yes"/>
      <point x="308" y="1001" name="ih02"/>
      <point x="425" y="1053" name="ih03"/>
      <point x="574" y="1053" type="curve" smooth="yes"/>
      <point x="601" y="1053"/>
      <point x="626" y="1051" name="at01"/>
      <point x="647" y="1047" type="curve" smooth="yes"/>
      <point x="668" y="1043"/>
      <point x="688" y="1037"/>
      <point x="705" y="1028" type="curve"/>
      <point x="545" y="1247" type="line" name="sh02"/>
      <point x="233" y="1128" type="line"/>
      <point x="178" y="1245" type="line"/>
      <point x="461" y="1354" type="line" name="dv02"/>
      <point x="303" y="1556" type="line"/>
      <point x="596" y="1556" type="line" name="ah02"/>
      <point x="688" y="1440" type="line" name="sh04"/>
      <point x="985" y="1567" type="line"/>
      <point x="1051" y="1444" type="line"/>
      <point x="774" y="1327" type="line" name="dv03"/>
      <point x="940" y="1100" type="line" smooth="yes"/>
      <point x="1008" y="1007" name="sh03"/>
      <point x="1054" y="921"/>
      <point x="1083" y="837" type="curve" smooth="yes"/>
      <point x="1112" y="753" name="ah01"/>
      <point x="1126" y="660" name="sh05"/>
      <point x="1126" y="559" type="curve" smooth="yes"/>
      <point x="1126" y="376"/>
      <point x="1080" y="230"/>
      <point x="991" y="127" type="curve" smooth="yes"/>
      <point x="902" y="24"/>
      <point x="773" y="-29"/>
    </contour>
    <contour>
      <point x="613" y="209" type="curve" smooth="yes"/>
      <point x="689" y="209"/>
      <point x="744" y="244"/>
      <point x="779" y="300" type="curve" smooth="yes"/>
      <point x="818" y="360"/>
      <point x="836" y="451"/>
      <point x="836" y="556" type="curve" smooth="yes"/>
      <point x="836" y="591"/>
      <point x="834" y="628"/>
      <point x="830" y="657" type="curve" smooth="yes"/>
      <point x="827" y="680"/>
      <point x="819" y="724"/>
      <point x="811" y="760" type="curve"/>
      <point x="767" y="784"/>
      <point x="738" y="794"/>
      <point x="713" y="801" type="curve" smooth="yes"/>
      <point x="679" y="810"/>
      <point x="647" y="815"/>
      <point x="617" y="815" type="curve" smooth="yes"/>
      <point x="548" y="815"/>
      <point x="489" y="790"/>
      <point x="449" y="743" type="curve" smooth="yes"/>
      <point x="410" y="696"/>
      <point x="389" y="630"/>
      <point x="389" y="535" type="curve" smooth="yes"/>
      <point x="389" y="439"/>
      <point x="410" y="355"/>
      <point x="449" y="298" type="curve" smooth="yes"/>
      <point x="488" y="239"/>
      <point x="543" y="209"/>
    </contour>
  </outline>
</glyph>
<glyph name="ntilde" format="1">
  <advance width="1233"/>
  <unicode hex="00F1"/>
  <outline>
    <contour>
      <point x="768" y="1297" type="curve" name="sh01" smooth="yes"/>
      <point x="744" y="1297"/>
      <point x="721" y="1301"/>
      <point x="699" y="1309" type="curve" smooth="yes"/>
      <point x="677" y="1317"/>
      <point x="650" y="1332"/>
      <point x="618" y="1354" type="curve" smooth="yes"/>
      <point x="551" y="1399" type="line" name="dv01" smooth="yes"/>
      <point x="522" y="1418"/>
      <point x="500" y="1428"/>
      <point x="479" y="1428" type="curve" name="sh04" smooth="yes"/>
      <point x="454" y="1428" name="av01"/>
      <point x="438" y="1416"/>
      <point x="427" y="1397" type="curve" smooth="yes"/>
      <point x="414" y="1376"/>
      <point x="408" y="1346"/>
      <point x="408" y="1307" type="curve" smooth="yes"/>
      <point x="408" y="1299" type="line" name="av02"/>
      <point x="268" y="1299" type="line" name="dv02"/>
      <point x="268" y="1394" name="av03"/>
      <point x="287" y="1463"/>
      <point x="320" y="1510" type="curve" smooth="yes"/>
      <point x="351" y="1554" name="sh02"/>
      <point x="398" y="1583"/>
      <point x="465" y="1583" type="curve" name="sh03" smooth="yes"/>
      <point x="490" y="1583"/>
      <point x="514" y="1579" name="at01"/>
      <point x="537" y="1570" type="curve" smooth="yes"/>
      <point x="564" y="1559"/>
      <point x="586" y="1546" name="sh05"/>
      <point x="614" y="1526" type="curve" name="ah02" smooth="yes"/>
      <point x="676" y="1483" type="line" smooth="yes"/>
      <point x="693" y="1471"/>
      <point x="701" y="1467" name="sv01"/>
      <point x="716" y="1460" type="curve" smooth="yes"/>
      <point x="729" y="1455" name="sh06"/>
      <point x="740" y="1452" name="ab01"/>
      <point x="751" y="1452" type="curve" smooth="yes"/>
      <point x="774" y="1452" name="ah01"/>
      <point x="793" y="1463" name="sh07"/>
      <point x="806" y="1484" type="curve" smooth="yes"/>
      <point x="819" y="1505"/>
      <point x="825" y="1534"/>
      <point x="825" y="1573" type="curve" smooth="yes"/>
      <point x="825" y="1581" type="line"/>
      <point x="965" y="1581" type="line"/>
      <point x="965" y="1490"/>
      <point x="948" y="1420"/>
      <point x="914" y="1371" type="curve" smooth="yes"/>
      <point x="882" y="1324"/>
      <point x="833" y="1297"/>
    </contour>
    <contour>
      <point x="172" y="1120" type="line"/>
      <point x="434" y="1120" type="line"/>
      <point x="463" y="952" type="line"/>
      <point x="484" y="1014"/>
      <point x="520" y="1062"/>
      <point x="569" y="1096" type="curve" smooth="yes"/>
      <point x="619" y="1130"/>
      <point x="680" y="1147"/>
      <point x="751" y="1147" type="curve" smooth="yes"/>
      <point x="856" y="1147"/>
      <point x="936" y="1112"/>
      <point x="990" y="1042" type="curve" smooth="yes"/>
      <point x="1044" y="971"/>
      <point x="1071" y="866"/>
      <point x="1071" y="727" type="curve" smooth="yes"/>
      <point x="1071" y="0" type="line"/>
      <point x="780" y="0" type="line"/>
      <point x="780" y="682" type="line" smooth="yes"/>
      <point x="780" y="764"/>
      <point x="769" y="822"/>
      <point x="746" y="857" type="curve" smooth="yes"/>
      <point x="723" y="892"/>
      <point x="684" y="909"/>
      <point x="636" y="909" type="curve" smooth="yes"/>
      <point x="579" y="909"/>
      <point x="540" y="885"/>
      <point x="509" y="838" type="curve" smooth="yes"/>
      <point x="480" y="793"/>
      <point x="463" y="733"/>
      <point x="463" y="641" type="curve" smooth="yes"/>
      <point x="463" y="0" type="line"/>
      <point x="172" y="0" type="line"/>
    </contour>
  </outline>
</glyph>
<glyph name="oacute" format="1">
  <advance width="1233"/>
  <unicode hex="00F3"/>
  <outline>
    <contour>
      <point x="752" y="1596" type="line" name="av01"/>
      <point x="1034" y="1596" type="line" name="ih01"/>
      <point x="666" y="1297" type="line"/>
      <point x="469" y="1297" type="line" name="ih02"/>
    </contour>
    <contour>
      <point x="617" y="-29" type="curve" smooth="yes" name="dv01"/>
      <point x="446" y="-29"/>
      <point x="322" y="34" name="sh02"/>
      <point x="238" y="129" type="curve" smooth="yes"/>
      <point x="145" y="234" name="at01"/>
      <point x="98" y="384"/>
      <point x="98" y="560" type="curve" smooth="yes" name="sh01"/>
      <point x="98" y="739"/>
      <point x="146" y="885"/>
      <point x="238" y="989" type="curve" smooth="yes" name="dv02"/>
      <point x="330" y="1093"/>
      <point x="459" y="1147" name="ah02"/>
      <point x="616" y="1147" type="curve" smooth="yes"/>
      <point x="780" y="1147" name="sv01"/>
      <point x="907" y="1089"/>
      <point x="995" y="990" type="curve" smooth="yes" name="sh03"/>
      <point x="1083" y="891"/>
      <point x="1135" y="748"/>
      <point x="1135" y="559" type="curve" smooth="yes" name="ah01"/>
      <point x="1135" y="380" name="sh04"/>
      <point x="1088" y="235"/>
      <point x="996" y="130" type="curve" smooth="yes"/>
      <point x="908" y="30"/>
      <point x="780" y="-29"/>
    </contour>
    <contour>
      <point x="616" y="209" type="curve" smooth="yes"/>
      <point x="687" y="209"/>
      <point x="742" y="240"/>
      <point x="782" y="301" type="curve" smooth="yes"/>
      <point x="822" y="363"/>
      <point x="842" y="449"/>
      <point x="842" y="560" type="curve" smooth="yes"/>
      <point x="842" y="669"/>
      <point x="822" y="755"/>
      <point x="782" y="817" type="curve" smooth="yes"/>
      <point x="741" y="881"/>
      <point x="684" y="909"/>
      <point x="616" y="909" type="curve" smooth="yes"/>
      <point x="541" y="909"/>
      <point x="488" y="874"/>
      <point x="451" y="817" type="curve" smooth="yes"/>
      <point x="411" y="755"/>
      <point x="391" y="669"/>
      <point x="391" y="560" type="curve" smooth="yes"/>
      <point x="391" y="449"/>
      <point x="411" y="363"/>
      <point x="451" y="301" type="curve" smooth="yes"/>
      <point x="491" y="240"/>
      <point x="546" y="209"/>
    </contour>
  </outline>
</glyph>
<glyph name="divide" format="1">
  <advance width="1233"/>
  <unicode hex="00F7"/>
  <outline>
    <contour>
      <point x="491" y="889" type="line" name="dv03" smooth="yes"/>
      <point x="471" y="889" name="dh01"/>
      <point x="461" y="899"/>
      <point x="461" y="919" type="curve" name="dv04" smooth="yes"/>
      <point x="461" y="1168" type="line" smooth="yes"/>
      <point x="461" y="1188"/>
      <point x="471" y="1198" name="dh02"/>
      <point x="491" y="1198" type="curve" smooth="yes"/>
      <point x="740" y="1198" type="line" smooth="yes"/>
      <point x="760" y="1198" name="dv06"/>
      <point x="770" y="1188" name="dv05"/>
      <point x="770" y="1168" type="curve" smooth="yes"/>
      <point x="770" y="919" type="line" name="dv01" smooth="yes"/>
      <point x="770" y="899" name="sh01"/>
      <point x="760" y="889"/>
      <point x="740" y="889" type="curve" name="dv02" smooth="yes"/>
    </contour>
    <contour>
      <point x="66" y="762" type="line"/>
      <point x="1165" y="762" type="line" name="sh02"/>
      <point x="1165" y="524" type="line"/>
      <point x="66" y="524" type="line"/>
    </contour>
    <contour>
      <point x="491" y="86" type="line" smooth="yes"/>
      <point x="471" y="86"/>
      <point x="461" y="96"/>
      <point x="461" y="116" type="curve" smooth="yes"/>
      <point x="461" y="365" type="line" smooth="yes"/>
      <point x="461" y="385"/>
      <point x="471" y="395"/>
      <point x="491" y="395" type="curve" smooth="yes"/>
      <point x="740" y="395" type="line" smooth="yes"/>
      <point x="760" y="395"/>
      <point x="770" y="385"/>
      <point x="770" y="365" type="curve" smooth="yes"/>
      <point x="770" y="116" type="line" smooth="yes"/>
      <point x="770" y="96"/>
      <point x="760" y="86"/>
      <point x="740" y="86" type="curve" smooth="yes"/>
    </contour>
  </outline>
</glyph>
<glyph name="oslash" format="1">
  <advance width="1233"/>
  <unicode hex="00F8"/>
  <outline>
    <contour>
      <point x="25" y="2" type="line" name="hr00"/>
      <point x="188" y="199" type="line"/>
      <point x="159" y="247"/>
      <point x="136" y="301" name="sh01"/>
      <point x="121" y="361" type="curve" smooth="yes"/>
      <point x="106" y="421" name="at01"/>
      <point x="98" y="487"/>
      <point x="98" y="559" type="curve" smooth="yes"/>
      <point x="98" y="739" name="av02"/>
      <point x="146" y="885"/>
      <point x="238" y="989" type="curve" smooth="yes"/>
      <point x="331" y="1094"/>
      <point x="462" y="1147" name="sh02"/>
      <point x="615" y="1147" type="curve" smooth="yes"/>
      <point x="671" y="1147" name="dv01"/>
      <point x="728" y="1141"/>
      <point x="775" y="1126" type="curve" smooth="yes"/>
      <point x="819" y="1113" name="av01"/>
      <point x="870" y="1090"/>
      <point x="915" y="1059" type="curve"/>
      <point x="1063" y="1235" type="line" name="sv01"/>
      <point x="1202" y="1114" type="line"/>
      <point x="1042" y="926" type="line" name="sh03"/>
      <point x="1075" y="871" name="sh04"/>
      <point x="1099" y="809" name="sh05"/>
      <point x="1112" y="758" type="curve" name="dv02" smooth="yes"/>
      <point x="1127" y="702"/>
      <point x="1135" y="633" name="ah02"/>
      <point x="1135" y="557" type="curve" name="sh06" smooth="yes"/>
      <point x="1135" y="382" name="sh07"/>
      <point x="1088" y="235"/>
      <point x="996" y="130" type="curve" smooth="yes"/>
      <point x="908" y="30"/>
      <point x="780" y="-29" name="ah01"/>
      <point x="620" y="-29" type="curve" name="sh08" smooth="yes"/>
      <point x="560" y="-29"/>
      <point x="509" y="-21"/>
      <point x="458" y="-6" type="curve" smooth="yes"/>
      <point x="407" y="9"/>
      <point x="364" y="29"/>
      <point x="315" y="61" type="curve"/>
      <point x="164" y="-117" type="line"/>
    </contour>
    <contour>
      <point x="745" y="860" type="line"/>
      <point x="728" y="877"/>
      <point x="709" y="889"/>
      <point x="688" y="897" type="curve" smooth="yes"/>
      <point x="667" y="905"/>
      <point x="643" y="909"/>
      <point x="618" y="909" type="curve" smooth="yes"/>
      <point x="547" y="909"/>
      <point x="492" y="878"/>
      <point x="452" y="817" type="curve" smooth="yes"/>
      <point x="411" y="756"/>
      <point x="391" y="670"/>
      <point x="391" y="559" type="curve" smooth="yes"/>
      <point x="391" y="535"/>
      <point x="392" y="516"/>
      <point x="393" y="499" type="curve" smooth="yes"/>
      <point x="394" y="483"/>
      <point x="394" y="476"/>
      <point x="399" y="449" type="curve"/>
    </contour>
    <contour>
      <point x="617" y="209" type="curve" smooth="yes"/>
      <point x="688" y="209"/>
      <point x="743" y="240"/>
      <point x="782" y="302" type="curve" smooth="yes"/>
      <point x="822" y="366"/>
      <point x="842" y="456"/>
      <point x="842" y="553" type="curve" smooth="yes"/>
      <point x="842" y="576"/>
      <point x="841" y="602"/>
      <point x="840" y="617" type="curve" smooth="yes"/>
      <point x="839" y="629"/>
      <point x="835" y="656"/>
      <point x="831" y="675" type="curve"/>
      <point x="483" y="262" type="line"/>
      <point x="504" y="245"/>
      <point x="525" y="231"/>
      <point x="547" y="222" type="curve" smooth="yes"/>
      <point x="568" y="213"/>
      <point x="592" y="209"/>
    </contour>
  </outline>
</glyph>
<glyph name="udieresis" format="1">
  <advance width="1233"/>
  <unicode hex="00FC"/>
  <outline>
    <contour>
      <point x="331" y="1347" type="line" name="sv01" smooth="yes"/>
      <point x="311" y="1347" name="ih01"/>
      <point x="301" y="1357"/>
      <point x="301" y="1377" type="curve" name="at03" smooth="yes"/>
      <point x="301" y="1563" type="line" smooth="yes"/>
      <point x="301" y="1583"/>
      <point x="311" y="1593" name="sh01"/>
      <point x="331" y="1593" type="curve" smooth="yes"/>
      <point x="507" y="1593" type="line" name="sv02" smooth="yes"/>
      <point x="527" y="1593" name="dh03"/>
      <point x="537" y="1583"/>
      <point x="537" y="1563" type="curve" name="at04" smooth="yes"/>
      <point x="537" y="1377" type="line" smooth="yes"/>
      <point x="537" y="1357"/>
      <point x="527" y="1347" name="dh04"/>
      <point x="507" y="1347" type="curve" name="sv03" smooth="yes"/>
    </contour>
    <contour>
      <point x="726" y="1347" type="line" name="dv01" smooth="yes"/>
      <point x="706" y="1347"/>
      <point x="696" y="1357" name="dh01"/>
      <point x="696" y="1377" type="curve" name="at01" smooth="yes"/>
      <point x="696" y="1563" type="line" smooth="yes"/>
      <point x="696" y="1583" name="dh02"/>
      <point x="706" y="1593"/>
      <point x="726" y="1593" type="curve" name="dv02" smooth="yes"/>
      <point x="902" y="1593" type="line" smooth="yes"/>
      <point x="922" y="1593" name="sh02"/>
      <point x="932" y="1583" name="at02"/>
      <point x="932" y="1563" type="curve" smooth="yes"/>
      <point x="932" y="1377" type="line" name="sh03" smooth="yes"/>
      <point x="932" y="1357"/>
      <point x="922" y="1347" name="ih02"/>
      <point x="902" y="1347" type="curve" smooth="yes"/>
    </contour>
    <contour>
      <point x="481" y="-29" type="curve" smooth="yes"/>
      <point x="381" y="-29"/>
      <point x="299" y="2" name="sh04"/>
      <point x="242" y="77" type="curve" smooth="yes"/>
      <point x="187" y="148"/>
      <point x="160" y="252"/>
      <point x="160" y="391" type="curve" smooth="yes"/>
      <point x="160" y="1120" type="line"/>
      <point x="453" y="1120" type="line"/>
      <point x="453" y="436" type="line" smooth="yes"/>
      <point x="453" y="355"/>
      <point x="464" y="298"/>
      <point x="487" y="263" type="curve" smooth="yes"/>
      <point x="510" y="228"/>
      <point x="549" y="211"/>
      <point x="598" y="211" type="curve" smooth="yes"/>
      <point x="649" y="211"/>
      <point x="692" y="230"/>
      <point x="724" y="281" type="curve" smooth="yes"/>
      <point x="753" y="328"/>
      <point x="768" y="394"/>
      <point x="768" y="477" type="curve" smooth="yes"/>
      <point x="768" y="1120" type="line"/>
      <point x="1061" y="1120" type="line"/>
      <point x="1061" y="0" type="line"/>
      <point x="797" y="0" type="line"/>
      <point x="768" y="166" type="line"/>
      <point x="747" y="104"/>
      <point x="712" y="56"/>
      <point x="663" y="22" type="curve" smooth="yes"/>
      <point x="613" y="-12"/>
      <point x="552" y="-29"/>
    </contour>
  </outline>
</glyph>
<glyph name="ydieresis" format="1">
  <advance width="1233"/>
  <unicode hex="00FF"/>
  <outline>
    <contour>
      <point x="341" y="1320" type="line" name="sv01" smooth="yes"/>
      <point x="321" y="1320" name="sh01"/>
      <point x="311" y="1330"/>
      <point x="311" y="1350" type="curve" name="at03" smooth="yes"/>
      <point x="311" y="1536" type="line" smooth="yes"/>
      <point x="311" y="1556"/>
      <point x="321" y="1566" name="sh02"/>
      <point x="341" y="1566" type="curve" smooth="yes"/>
      <point x="517" y="1566" type="line" name="sv02" smooth="yes"/>
      <point x="537" y="1566" name="ah02"/>
      <point x="547" y="1556"/>
      <point x="547" y="1536" type="curve" name="at04" smooth="yes"/>
      <point x="547" y="1350" type="line" smooth="yes"/>
      <point x="547" y="1330"/>
      <point x="537" y="1320" name="sh03"/>
      <point x="517" y="1320" type="curve" name="sv03" smooth="yes"/>
    </contour>
    <contour>
      <point x="736" y="1320" type="line" name="sv04" smooth="yes"/>
      <point x="716" y="1320"/>
      <point x="706" y="1330"/>
      <point x="706" y="1350" type="curve" smooth="yes"/>
      <point x="706" y="1536" type="line" smooth="yes"/>
      <point x="706" y="1556" name="at01"/>
      <point x="716" y="1566"/>
      <point x="736" y="1566" type="curve" name="ih01" smooth="yes"/>
      <point x="912" y="1566" type="line" name="at02" smooth="yes"/>
      <point x="932" y="1566" name="iv01"/>
      <point x="942" y="1556"/>
      <point x="942" y="1536" type="curve" smooth="yes"/>
      <point x="942" y="1350" type="line" name="ab01" smooth="yes"/>
      <point x="942" y="1330"/>
      <point x="932" y="1320" name="ah01"/>
      <point x="912" y="1320" type="curve" name="sh04" smooth="yes"/>
    </contour>
    <contour>
      <point x="137" y="-201" type="line"/>
      <point x="256" y="-201" type="line" smooth="yes"/>
      <point x="312" y="-201"/>
      <point x="360" y="-192"/>
      <point x="388" y="-171" type="curve" smooth="yes"/>
      <point x="419" y="-148"/>
      <point x="450" y="-89"/>
      <point x="473" y="-29" type="curve" smooth="yes"/>
      <point x="495" y="31" type="line"/>
      <point x="69" y="1120" type="line"/>
      <point x="377" y="1120" type="line"/>
      <point x="633" y="393" type="line"/>
      <point x="878" y="1120" type="line"/>
      <point x="1186" y="1120" type="line"/>
      <point x="721" y="-121" type="line" smooth="yes"/>
      <point x="678" y="-234"/>
      <point x="631" y="-307"/>
      <point x="580" y="-352" type="curve" smooth="yes"/>
      <point x="529" y="-397"/>
      <point x="463" y="-424"/>
      <point x="379" y="-424" type="curve" smooth="yes"/>
      <point x="137" y="-424" type="line"/>
    </contour>
  </outline>
</glyph>
<glyph name="Dcaron" format="1">
  <advance width="1233"/>
  <unicode hex="010E"/>
  <outline>
    <contour>
      <point x="227" y="1860" type="line" name="ih01"/>
      <point x="405" y="1860" type="line"/>
      <point x="603" y="1698" type="line"/>
      <point x="802" y="1860" type="line" name="av01"/>
      <point x="980" y="1860" type="line" name="ih02"/>
      <point x="757" y="1596" type="line"/>
      <point x="448" y="1596" type="line"/>
    </contour>
    <contour>
      <point x="137" y="1493" type="line" name="sh01"/>
      <point x="453" y="1493" type="line" smooth="yes"/>
      <point x="941" y="1493" name="sh03"/>
      <point x="1141" y="1276" name="ab01"/>
      <point x="1141" y="748" type="curve" smooth="yes"/>
      <point x="1141" y="219" name="sv01"/>
      <point x="941" y="0" name="ah02"/>
      <point x="453" y="0" type="curve" name="sv02" smooth="yes"/>
      <point x="137" y="0" type="line" name="sh02"/>
    </contour>
    <contour>
      <point x="512" y="266" type="line" smooth="yes"/>
      <point x="744" y="266" name="ah01"/>
      <point x="834" y="398" name="sh04"/>
      <point x="834" y="747" type="curve" smooth="yes"/>
      <point x="834" y="1096"/>
      <point x="744" y="1227"/>
      <point x="512" y="1227" type="curve" smooth="yes"/>
      <point x="432" y="1227" type="line"/>
      <point x="432" y="266" type="line"/>
    </contour>
  </outline>
</glyph>
<glyph name="dcaron" format="1">
  <advance width="1233"/>
  <unicode hex="010F"/>
  <outline>
    <contour>
      <point x="491" y="-29" type="curve" name="sv02" smooth="yes"/>
      <point x="239" y="-29" name="sh01"/>
      <point x="90" y="186" name="at02"/>
      <point x="90" y="559" type="curve" name="iv01" smooth="yes"/>
      <point x="90" y="938" name="ah02"/>
      <point x="244" y="1147" name="sh02"/>
      <point x="495" y="1147" type="curve" name="ab01" smooth="yes"/>
      <point x="626" y="1147"/>
      <point x="714" y="1092" name="sh03"/>
      <point x="791" y="961" type="curve"/>
      <point x="791" y="1556" type="line" name="at01"/>
      <point x="1083" y="1556" type="line"/>
      <point x="1083" y="0" type="line" name="sv04"/>
      <point x="820" y="0" type="line" name="sh04"/>
      <point x="791" y="166" type="line" name="sv01"/>
      <point x="728" y="39" name="sh05"/>
      <point x="635" y="-29" name="sv03"/>
    </contour>
    <contour>
      <point x="1168" y="1555" type="line" name="sh06"/>
      <point x="1456" y="1555" type="line"/>
      <point x="1292" y="1172" type="line" name="ah01"/>
      <point x="1090" y="1172" type="line" name="sh07"/>
    </contour>
    <contour>
      <point x="586" y="211" type="curve" smooth="yes"/>
      <point x="714" y="211"/>
      <point x="791" y="341"/>
      <point x="791" y="557" type="curve" smooth="yes"/>
      <point x="791" y="773"/>
      <point x="714" y="903"/>
      <point x="586" y="903" type="curve" smooth="yes"/>
      <point x="459" y="903"/>
      <point x="383" y="773"/>
      <point x="383" y="557" type="curve" smooth="yes"/>
      <point x="383" y="341"/>
      <point x="459" y="211"/>
    </contour>
  </outline>
</glyph>
<glyph name="Dcroat" format="1">
  <advance width="1233"/>
  <unicode hex="0110"/>
  <outline>
    <contour>
      <point x="137" y="664" type="line" name="sh01"/>
      <point x="0" y="664" type="line"/>
      <point x="0" y="901" type="line"/>
      <point x="137" y="901" type="line" name="sh02"/>
      <point x="137" y="1493" type="line" name="at01"/>
      <point x="453" y="1493" type="line" smooth="yes"/>
      <point x="941" y="1493" name="sh03"/>
      <point x="1141" y="1276" name="ab01"/>
      <point x="1141" y="748" type="curve" smooth="yes"/>
      <point x="1141" y="219" name="sv01"/>
      <point x="941" y="0" name="ah02"/>
      <point x="453" y="0" type="curve" name="sv02" smooth="yes"/>
      <point x="137" y="0" type="line" name="sh05"/>
    </contour>
    <contour>
      <point x="512" y="266" type="line" name="sv03" smooth="yes"/>
      <point x="744" y="266"/>
      <point x="834" y="398" name="sv04"/>
      <point x="834" y="747" type="curve" name="sh04" smooth="yes"/>
      <point x="834" y="1096"/>
      <point x="744" y="1227" name="ah01"/>
      <point x="512" y="1227" type="curve" name="sh06" smooth="yes"/>
      <point x="432" y="1227" type="line"/>
      <point x="432" y="901" type="line"/>
      <point x="643" y="901" type="line"/>
      <point x="643" y="664" type="line"/>
      <point x="432" y="664" type="line"/>
      <point x="432" y="266" type="line"/>
    </contour>
  </outline>
</glyph>
<glyph name="Dcroat" format="1">
  <advance width="1233"/>
  <unicode hex="0110"/>
  <outline>
    <contour>
      <point x="137" y="664" type="line" name="sh01"/>
      <point x="0" y="664" type="line"/>
      <point x="0" y="901" type="line"/>
      <point x="137" y="901" type="line" name="sh02"/>
      <point x="137" y="1493" type="line" name="at01"/>
      <point x="453" y="1493" type="line" smooth="yes"/>
      <point x="941" y="1493" name="sh03"/>
      <point x="1141" y="1276" name="ab01"/>
      <point x="1141" y="748" type="curve" smooth="yes"/>
      <point x="1141" y="219" name="sv01"/>
      <point x="941" y="0" name="ah02"/>
      <point x="453" y="0" type="curve" smooth="yes" name="sv02"/>
      <point x="137" y="0" type="line" name="sh05"/>
    </contour>
    <contour>
      <point x="512" y="266" type="line" smooth="yes" name="sv03"/>
      <point x="744" y="266"/>
      <point x="834" y="398" name="sv04"/>
      <point x="834" y="747" type="curve" smooth="yes" name="sh04"/>
      <point x="834" y="1096"/>
      <point x="744" y="1227" name="ah01"/>
      <point x="512" y="1227" type="curve" smooth="yes" name="sh06"/>
      <point x="432" y="1227" type="line"/>
      <point x="432" y="901" type="line"/>
      <point x="643" y="901" type="line"/>
      <point x="643" y="664" type="line"/>
      <point x="432" y="664" type="line"/>
      <point x="432" y="266" type="line"/>
    </contour>
  </outline>
</glyph>
<glyph name="emacron" format="1">
  <advance width="1233"/>
  <unicode hex="0113"/>
  <outline>
    <contour>
      <point x="330" y="1535" type="line" name="hr00"/>
      <point x="961" y="1535" type="line" name="dv04"/>
      <point x="961" y="1347" type="line" name="dv03"/>
      <point x="330" y="1347" type="line"/>
    </contour>
    <contour>
      <point x="669" y="-29" type="curve" name="dv01" smooth="yes"/>
      <point x="283" y="-29" name="sh01"/>
      <point x="82" y="178" name="at01"/>
      <point x="82" y="550" type="curve" name="sh02" smooth="yes"/>
      <point x="82" y="920"/>
      <point x="281" y="1147" name="sh03"/>
      <point x="621" y="1147" type="curve" name="dv02" smooth="yes"/>
      <point x="944" y="1147" name="ih01"/>
      <point x="1139" y="940"/>
      <point x="1139" y="584" type="curve" smooth="yes"/>
      <point x="1139" y="465" type="line" name="ah02"/>
      <point x="380" y="465" type="line" name="sv01"/>
      <point x="381" y="290" name="sh04"/>
      <point x="483" y="203" name="ah01"/>
      <point x="688" y="203" type="curve" name="sh05" smooth="yes"/>
      <point x="824" y="203"/>
      <point x="948" y="240"/>
      <point x="1092" y="324" type="curve"/>
      <point x="1092" y="55" type="line"/>
      <point x="959" y="-1"/>
      <point x="814" y="-29"/>
    </contour>
    <contour>
      <point x="844" y="685" type="line"/>
      <point x="841" y="840"/>
      <point x="761" y="920"/>
      <point x="620" y="920" type="curve" smooth="yes"/>
      <point x="476" y="920"/>
      <point x="399" y="837"/>
      <point x="383" y="684" type="curve"/>
    </contour>
  </outline>
</glyph>
<glyph name="Edotaccent" format="1">
  <advance width="1233"/>
  <unicode hex="0116"/>
  <outline>
    <contour>
      <point x="541" y="1606" type="line" name="dv01" smooth="yes"/>
      <point x="524" y="1606" name="ah02"/>
      <point x="510" y="1620"/>
      <point x="510" y="1637" type="curve" name="dv02" smooth="yes"/>
      <point x="510" y="1821" type="line" smooth="yes"/>
      <point x="510" y="1838"/>
      <point x="524" y="1852" name="sh01"/>
      <point x="541" y="1852" type="curve" smooth="yes"/>
      <point x="754" y="1852" type="line" name="sh02" smooth="yes"/>
      <point x="771" y="1852"/>
      <point x="785" y="1838" name="sv01"/>
      <point x="785" y="1821" type="curve" name="sh03" smooth="yes"/>
      <point x="785" y="1637" type="line" smooth="yes"/>
      <point x="785" y="1620" name="dv04"/>
      <point x="771" y="1606" name="dv03"/>
      <point x="754" y="1606" type="curve" name="sh04" smooth="yes"/>
    </contour>
    <contour>
      <point x="168" y="1493" type="line" name="sv02"/>
      <point x="1098" y="1493" type="line"/>
      <point x="1098" y="1233" type="line" name="ab01"/>
      <point x="463" y="1233" type="line"/>
      <point x="463" y="911" type="line" name="ah01"/>
      <point x="1038" y="911" type="line"/>
      <point x="1038" y="651" type="line"/>
      <point x="463" y="651" type="line"/>
      <point x="463" y="260" type="line"/>
      <point x="1098" y="260" type="line"/>
      <point x="1098" y="0" type="line"/>
      <point x="168" y="0" type="line"/>
    </contour>
  </outline>
</glyph>
<glyph name="Edotaccent" format="1">
  <advance width="1233"/>
  <unicode hex="0116"/>
  <outline>
    <contour>
      <point x="541" y="1606" type="line" smooth="yes" name="dv01"/>
      <point x="524" y="1606" name="ah02"/>
      <point x="510" y="1620"/>
      <point x="510" y="1637" type="curve" smooth="yes" name="dv02"/>
      <point x="510" y="1821" type="line" smooth="yes"/>
      <point x="510" y="1838"/>
      <point x="524" y="1852" name="sh01"/>
      <point x="541" y="1852" type="curve" smooth="yes"/>
      <point x="754" y="1852" type="line" smooth="yes" name="sh02"/>
      <point x="771" y="1852"/>
      <point x="785" y="1838" name="sv01"/>
      <point x="785" y="1821" type="curve" smooth="yes" name="sh03"/>
      <point x="785" y="1637" type="line" smooth="yes"/>
      <point x="785" y="1620" name="dv04"/>
      <point x="771" y="1606" name="dv03"/>
      <point x="754" y="1606" type="curve" smooth="yes" name="sh04"/>
    </contour>
    <contour>
      <point x="168" y="1493" type="line" name="sv02"/>
      <point x="1098" y="1493" type="line"/>
      <point x="1098" y="1233" type="line" name="ab01"/>
      <point x="463" y="1233" type="line"/>
      <point x="463" y="911" type="line" name="ah01"/>
      <point x="1038" y="911" type="line"/>
      <point x="1038" y="651" type="line"/>
      <point x="463" y="651" type="line"/>
      <point x="463" y="260" type="line"/>
      <point x="1098" y="260" type="line"/>
      <point x="1098" y="0" type="line"/>
      <point x="168" y="0" type="line"/>
    </contour>
  </outline>
</glyph>
<glyph name="Eogonek" format="1">
  <advance width="1233"/>
  <unicode hex="0118"/>
  <outline>
    <contour>
      <point x="951" y="-254" type="curve" name="dv02" smooth="yes"/>
      <point x="992" y="-254" name="sh02"/>
      <point x="1046" y="-244"/>
      <point x="1099" y="-223" type="curve" name="dv01"/>
      <point x="1099" y="-379" type="line" name="dh03"/>
      <point x="1027" y="-394" name="ab01"/>
      <point x="963" y="-401" name="dh01"/>
      <point x="912" y="-401" type="curve" name="at01" smooth="yes"/>
      <point x="756" y="-401" name="sh03"/>
      <point x="671" y="-339" name="sv01"/>
      <point x="671" y="-224" type="curve" name="sh04" smooth="yes"/>
      <point x="671" y="-151"/>
      <point x="706" y="-81" name="dv04"/>
      <point x="782" y="0" type="curve" name="dv03"/>
      <point x="168" y="0" type="line"/>
      <point x="168" y="1493" type="line" name="dh02"/>
      <point x="1098" y="1493" type="line" name="sv02"/>
      <point x="1098" y="1233" type="line" name="sh01"/>
      <point x="463" y="1233" type="line"/>
      <point x="463" y="911" type="line"/>
      <point x="1038" y="911" type="line" name="dh04"/>
      <point x="1038" y="651" type="line"/>
      <point x="463" y="651" type="line"/>
      <point x="463" y="260" type="line"/>
      <point x="1098" y="260" type="line"/>
      <point x="1098" y="0" type="line"/>
      <point x="923" y="0" type="line"/>
      <point x="877" y="-62"/>
      <point x="863" y="-87"/>
      <point x="852" y="-106" type="curve" smooth="yes"/>
      <point x="839" y="-130"/>
      <point x="833" y="-147"/>
      <point x="833" y="-166" type="curve" smooth="yes"/>
      <point x="833" y="-213"/>
      <point x="868" y="-254"/>
    </contour>
  </outline>
</glyph>
<glyph name="eogonek" format="1">
  <advance width="1233"/>
  <unicode hex="0119"/>
  <outline>
    <contour>
      <point x="1139" y="465" type="line" name="hr00"/>
      <point x="380" y="465" type="line" name="dh02"/>
      <point x="381" y="290" name="dv04"/>
      <point x="483" y="203" name="ih01"/>
      <point x="688" y="203" type="curve" name="sh01" smooth="yes"/>
      <point x="824" y="203"/>
      <point x="948" y="240"/>
      <point x="1092" y="324" type="curve" name="dh04"/>
      <point x="1092" y="55" type="line" name="dv02"/>
      <point x="1036" y="32" name="sh02"/>
      <point x="979" y="13"/>
      <point x="919" y="0" type="curve" name="dv01"/>
      <point x="873" y="-62" name="dh03"/>
      <point x="859" y="-87" name="ih02"/>
      <point x="848" y="-106" type="curve" name="dv03" smooth="yes"/>
      <point x="835" y="-130" name="dh01"/>
      <point x="829" y="-147" name="at01"/>
      <point x="829" y="-166" type="curve" name="dh06" smooth="yes"/>
      <point x="829" y="-213" name="dh05"/>
      <point x="864" y="-254" name="sv01"/>
      <point x="947" y="-254" type="curve" name="sh03" smooth="yes"/>
      <point x="988" y="-254"/>
      <point x="1042" y="-244" name="sh04"/>
      <point x="1095" y="-223" type="curve"/>
      <point x="1095" y="-379" type="line"/>
      <point x="1023" y="-394"/>
      <point x="959" y="-401"/>
      <point x="908" y="-401" type="curve" smooth="yes"/>
      <point x="752" y="-401"/>
      <point x="667" y="-339"/>
      <point x="667" y="-224" type="curve" smooth="yes"/>
      <point x="667" y="-159"/>
      <point x="695" y="-97"/>
      <point x="755" y="-26" type="curve"/>
      <point x="727" y="-28"/>
      <point x="698" y="-29"/>
      <point x="669" y="-29" type="curve" smooth="yes"/>
      <point x="283" y="-29"/>
      <point x="82" y="178"/>
      <point x="82" y="550" type="curve" smooth="yes"/>
      <point x="82" y="920"/>
      <point x="281" y="1147"/>
      <point x="621" y="1147" type="curve" smooth="yes"/>
      <point x="944" y="1147"/>
      <point x="1139" y="940"/>
      <point x="1139" y="584" type="curve" smooth="yes"/>
    </contour>
    <contour>
      <point x="844" y="685" type="line"/>
      <point x="841" y="840"/>
      <point x="761" y="920"/>
      <point x="620" y="920" type="curve" smooth="yes"/>
      <point x="476" y="920"/>
      <point x="399" y="837"/>
      <point x="383" y="684" type="curve"/>
    </contour>
  </outline>
</glyph>
<glyph name="Gdotaccent" format="1">
  <advance width="1233"/>
  <unicode hex="0120"/>
  <outline>
    <contour>
      <point x="580" y="1606" type="line" smooth="yes" name="dv03"/>
      <point x="563" y="1606" name="dh03"/>
      <point x="549" y="1620"/>
      <point x="549" y="1637" type="curve" smooth="yes" name="dv04"/>
      <point x="549" y="1821" type="line" smooth="yes"/>
      <point x="549" y="1838"/>
      <point x="563" y="1852" name="dh04"/>
      <point x="580" y="1852" type="curve" smooth="yes"/>
      <point x="793" y="1852" type="line" smooth="yes" name="dv01"/>
      <point x="810" y="1852" name="dh01"/>
      <point x="824" y="1838" name="at01"/>
      <point x="824" y="1821" type="curve" smooth="yes"/>
      <point x="824" y="1637" type="line" smooth="yes" name="ih02"/>
      <point x="824" y="1620" name="sv01"/>
      <point x="810" y="1606" name="dh02"/>
      <point x="793" y="1606" type="curve" smooth="yes" name="dv02"/>
    </contour>
    <contour>
      <point x="719" y="-29" type="curve" smooth="yes"/>
      <point x="338" y="-29" name="sh02"/>
      <point x="117" y="251"/>
      <point x="117" y="747" type="curve" smooth="yes"/>
      <point x="117" y="1247" name="dv05"/>
      <point x="342" y="1520" name="ih01"/>
      <point x="727" y="1520" type="curve" smooth="yes" name="sh01"/>
      <point x="862" y="1520"/>
      <point x="970" y="1488"/>
      <point x="1077" y="1421" type="curve"/>
      <point x="1077" y="1094" type="line" name="sh03"/>
      <point x="994" y="1201"/>
      <point x="887" y="1255"/>
      <point x="758" y="1255" type="curve" smooth="yes"/>
      <point x="534" y="1255"/>
      <point x="424" y="1091"/>
      <point x="424" y="748" type="curve" smooth="yes"/>
      <point x="424" y="412"/>
      <point x="529" y="236"/>
      <point x="741" y="236" type="curve" smooth="yes"/>
      <point x="786" y="236"/>
      <point x="828" y="243"/>
      <point x="853" y="258" type="curve" smooth="yes"/>
      <point x="865" y="265"/>
      <point x="872" y="273"/>
      <point x="872" y="293" type="curve" smooth="yes"/>
      <point x="872" y="525" type="line" smooth="yes"/>
      <point x="872" y="545"/>
      <point x="862" y="555"/>
      <point x="842" y="555" type="curve" smooth="yes"/>
      <point x="670" y="555" type="line"/>
      <point x="670" y="803" type="line"/>
      <point x="1130" y="803" type="line"/>
      <point x="1130" y="119" type="line"/>
      <point x="1015" y="20"/>
      <point x="878" y="-29"/>
    </contour>
  </outline>
</glyph>
<glyph name="gdotaccent" format="1">
  <advance width="1233"/>
  <unicode hex="0121"/>
  <outline>
    <contour>
      <point x="509" y="1349" type="line" smooth="yes" name="dv01"/>
      <point x="489" y="1349" name="dh03"/>
      <point x="479" y="1359"/>
      <point x="479" y="1379" type="curve" smooth="yes" name="dv02"/>
      <point x="479" y="1565" type="line" smooth="yes"/>
      <point x="479" y="1585"/>
      <point x="489" y="1595" name="dh04"/>
      <point x="509" y="1595" type="curve" smooth="yes"/>
      <point x="724" y="1595" type="line" smooth="yes" name="ab01"/>
      <point x="744" y="1595"/>
      <point x="754" y="1585" name="ih01"/>
      <point x="754" y="1565" type="curve" smooth="yes" name="sv01"/>
      <point x="754" y="1379" type="line" smooth="yes" name="dh05"/>
      <point x="754" y="1359" name="iv01"/>
      <point x="744" y="1349" name="dv03"/>
      <point x="724" y="1349" type="curve" smooth="yes" name="dh01"/>
    </contour>
    <contour>
      <point x="582" y="-424" type="curve" smooth="yes" name="sv03"/>
      <point x="455" y="-424" name="sh01"/>
      <point x="340" y="-406" name="at01"/>
      <point x="215" y="-369" type="curve"/>
      <point x="215" y="-100" type="line" name="dh06"/>
      <point x="326" y="-161"/>
      <point x="445" y="-190" name="dv04"/>
      <point x="554" y="-190" type="curve" smooth="yes" name="sh02"/>
      <point x="726" y="-190" name="sv02"/>
      <point x="803" y="-117" name="dh02"/>
      <point x="803" y="51" type="curve" smooth="yes"/>
      <point x="803" y="172" type="line"/>
      <point x="744" y="61" name="sh03"/>
      <point x="645" y="14"/>
      <point x="520" y="14" type="curve" smooth="yes"/>
      <point x="257" y="14"/>
      <point x="98" y="228"/>
      <point x="98" y="574" type="curve" smooth="yes"/>
      <point x="98" y="926"/>
      <point x="263" y="1149"/>
      <point x="511" y="1149" type="curve" smooth="yes"/>
      <point x="644" y="1149"/>
      <point x="746" y="1086"/>
      <point x="803" y="977" type="curve"/>
      <point x="832" y="1120" type="line"/>
      <point x="1096" y="1120" type="line"/>
      <point x="1096" y="84" type="line" smooth="yes"/>
      <point x="1096" y="-274"/>
      <point x="944" y="-424"/>
    </contour>
    <contour>
      <point x="596" y="246" type="curve" smooth="yes"/>
      <point x="720" y="246"/>
      <point x="803" y="377"/>
      <point x="803" y="578" type="curve" smooth="yes"/>
      <point x="803" y="778"/>
      <point x="720" y="909"/>
      <point x="596" y="909" type="curve" smooth="yes"/>
      <point x="472" y="909"/>
      <point x="391" y="779"/>
      <point x="391" y="577" type="curve" smooth="yes"/>
      <point x="391" y="375"/>
      <point x="472" y="246"/>
    </contour>
  </outline>
</glyph>
<glyph name="uni0123" format="1">
  <advance width="1233"/>
  <unicode hex="0123"/>
  <outline>
    <contour>
      <point x="632" y="1565" type="line" name="at01"/>
      <point x="826" y="1565" type="line" name="ih01"/>
      <point x="737" y="1259" type="line" name="sv01"/>
      <point x="455" y="1259" type="line" name="ih02"/>
    </contour>
    <contour>
      <point x="582" y="-424" type="curve" name="ab01" smooth="yes"/>
      <point x="455" y="-424"/>
      <point x="340" y="-406" name="ih03"/>
      <point x="215" y="-369" type="curve" name="sv02"/>
      <point x="215" y="-100" type="line" name="ah02"/>
      <point x="326" y="-161" name="iv01"/>
      <point x="445" y="-190" name="dv01"/>
      <point x="554" y="-190" type="curve" name="sh02" smooth="yes"/>
      <point x="726" y="-190" name="sv04"/>
      <point x="803" y="-117" name="sh04"/>
      <point x="803" y="51" type="curve" name="at02" smooth="yes"/>
      <point x="803" y="172" type="line"/>
      <point x="744" y="61" name="sh01"/>
      <point x="645" y="14"/>
      <point x="520" y="14" type="curve" name="dv02" smooth="yes"/>
      <point x="257" y="14" name="sh05"/>
      <point x="98" y="228" name="sv03"/>
      <point x="98" y="574" type="curve" name="sh03" smooth="yes"/>
      <point x="98" y="926"/>
      <point x="263" y="1149" name="ah01"/>
      <point x="511" y="1149" type="curve" name="sh06" smooth="yes"/>
      <point x="644" y="1149"/>
      <point x="746" y="1086"/>
      <point x="803" y="977" type="curve"/>
      <point x="832" y="1120" type="line"/>
      <point x="1096" y="1120" type="line"/>
      <point x="1096" y="84" type="line" smooth="yes"/>
      <point x="1096" y="-274"/>
      <point x="944" y="-424"/>
    </contour>
    <contour>
      <point x="596" y="246" type="curve" smooth="yes"/>
      <point x="720" y="246"/>
      <point x="803" y="377"/>
      <point x="803" y="578" type="curve" smooth="yes"/>
      <point x="803" y="778"/>
      <point x="720" y="909"/>
      <point x="596" y="909" type="curve" smooth="yes"/>
      <point x="472" y="909"/>
      <point x="391" y="779"/>
      <point x="391" y="577" type="curve" smooth="yes"/>
      <point x="391" y="375"/>
      <point x="472" y="246"/>
    </contour>
  </outline>
</glyph>
<glyph name="hbar" format="1">
  <advance width="1233"/>
  <unicode hex="0127"/>
  <outline>
    <contour>
      <point x="172" y="1270" type="line" name="sh01"/>
      <point x="12" y="1270" type="line"/>
      <point x="12" y="1434" type="line"/>
      <point x="172" y="1434" type="line" name="sh02"/>
      <point x="172" y="1556" type="line" name="at01"/>
      <point x="463" y="1556" type="line" name="sh04"/>
      <point x="463" y="1434" type="line" name="sv01"/>
      <point x="740" y="1434" type="line"/>
      <point x="740" y="1270" type="line" name="sv02"/>
      <point x="463" y="1270" type="line" name="sh03"/>
      <point x="463" y="952" type="line" name="iv01"/>
      <point x="506" y="1081" name="at02"/>
      <point x="610" y="1147"/>
      <point x="753" y="1147" type="curve" smooth="yes" name="sh05"/>
      <point x="961" y="1147" name="ah02"/>
      <point x="1071" y="1008"/>
      <point x="1071" y="727" type="curve" smooth="yes" name="sv03"/>
      <point x="1071" y="0" type="line" name="sh06"/>
      <point x="780" y="0" type="line" name="ab01"/>
      <point x="780" y="682" type="line" smooth="yes"/>
      <point x="780" y="839" name="ah01"/>
      <point x="738" y="907" name="sh07"/>
      <point x="639" y="907" type="curve" smooth="yes"/>
      <point x="522" y="907"/>
      <point x="463" y="810"/>
      <point x="463" y="641" type="curve" smooth="yes"/>
      <point x="463" y="0" type="line"/>
      <point x="172" y="0" type="line"/>
    </contour>
  </outline>
</glyph>
<glyph name="itilde" format="1">
  <advance width="1233"/>
  <unicode hex="0129"/>
  <outline>
    <contour>
      <point x="714" y="1270" type="curve" smooth="yes" name="dv01"/>
      <point x="673" y="1270"/>
      <point x="635" y="1281"/>
      <point x="568" y="1327" type="curve" smooth="yes"/>
      <point x="513" y="1364" type="line" name="sv01"/>
      <point x="501" y="1372" type="line" smooth="yes"/>
      <point x="472" y="1391" name="sv02"/>
      <point x="450" y="1401"/>
      <point x="429" y="1401" type="curve" smooth="yes" name="at01"/>
      <point x="384" y="1401"/>
      <point x="358" y="1357"/>
      <point x="358" y="1280" type="curve" smooth="yes" name="dv02"/>
      <point x="358" y="1272" type="line" name="at02"/>
      <point x="218" y="1272" type="line"/>
      <point x="218" y="1455" name="at03"/>
      <point x="290" y="1556"/>
      <point x="415" y="1556" type="curve" smooth="yes" name="ab01"/>
      <point x="466" y="1556"/>
      <point x="507" y="1539" name="dh01"/>
      <point x="564" y="1499" type="curve" smooth="yes" name="sv03"/>
      <point x="626" y="1456" type="line" smooth="yes"/>
      <point x="653" y="1437" name="at04"/>
      <point x="677" y="1425"/>
      <point x="701" y="1425" type="curve" smooth="yes" name="dh02"/>
      <point x="748" y="1425"/>
      <point x="775" y="1470" name="sv04"/>
      <point x="775" y="1546" type="curve" smooth="yes"/>
      <point x="775" y="1554" type="line"/>
      <point x="915" y="1554" type="line"/>
      <point x="915" y="1371"/>
      <point x="845" y="1270"/>
    </contour>
    <contour>
      <point x="812" y="-12" type="line" smooth="yes"/>
      <point x="673" y="-12"/>
      <point x="573" y="24"/>
      <point x="512" y="96" type="curve" smooth="yes"/>
      <point x="451" y="167"/>
      <point x="421" y="287"/>
      <point x="421" y="455" type="curve" smooth="yes"/>
      <point x="421" y="895" type="line"/>
      <point x="184" y="895" type="line"/>
      <point x="184" y="1120" type="line"/>
      <point x="714" y="1120" type="line"/>
      <point x="714" y="455" type="line" smooth="yes"/>
      <point x="714" y="368"/>
      <point x="728" y="305"/>
      <point x="755" y="268" type="curve" smooth="yes"/>
      <point x="782" y="231"/>
      <point x="828" y="213"/>
      <point x="894" y="213" type="curve" smooth="yes"/>
      <point x="1128" y="213" type="line"/>
      <point x="1128" y="-12" type="line"/>
    </contour>
  </outline>
</glyph>
<glyph name="Iogonek" format="1">
  <advance width="1233"/>
  <unicode hex="012E"/>
  <outline>
    <contour>
      <point x="764" y="1233" type="line" name="sv01"/>
      <point x="764" y="260" type="line" name="dh02"/>
      <point x="1061" y="260" type="line" name="sv02"/>
      <point x="1061" y="0" type="line" name="ab01"/>
      <point x="764" y="0" type="line"/>
      <point x="718" y="-62"/>
      <point x="704" y="-87" name="sh01"/>
      <point x="693" y="-106" type="curve" smooth="yes" name="dv02"/>
      <point x="680" y="-130" name="sh02"/>
      <point x="674" y="-147"/>
      <point x="674" y="-166" type="curve" smooth="yes" name="dv01"/>
      <point x="674" y="-213" name="ih01"/>
      <point x="709" y="-254" name="ih02"/>
      <point x="792" y="-254" type="curve" smooth="yes"/>
      <point x="833" y="-254" name="sv03"/>
      <point x="887" y="-244" name="dh01"/>
      <point x="940" y="-223" type="curve" name="sv04"/>
      <point x="940" y="-379" type="line" name="sv05"/>
      <point x="868" y="-394" name="at01"/>
      <point x="804" y="-401"/>
      <point x="753" y="-401" type="curve" smooth="yes"/>
      <point x="597" y="-401"/>
      <point x="512" y="-339"/>
      <point x="512" y="-224" type="curve" smooth="yes"/>
      <point x="512" y="-151"/>
      <point x="547" y="-81"/>
      <point x="623" y="0" type="curve"/>
      <point x="172" y="0" type="line"/>
      <point x="172" y="260" type="line"/>
      <point x="469" y="260" type="line"/>
      <point x="469" y="1233" type="line"/>
      <point x="172" y="1233" type="line"/>
      <point x="172" y="1493" type="line"/>
      <point x="1061" y="1493" type="line"/>
      <point x="1061" y="1233" type="line"/>
    </contour>
  </outline>
</glyph>
<glyph name="iogonek" format="1">
  <advance width="1233"/>
  <unicode hex="012F"/>
  <outline>
    <contour>
      <point x="451" y="1323" type="line" name="dv03" smooth="yes"/>
      <point x="431" y="1323" name="dh01"/>
      <point x="421" y="1333"/>
      <point x="421" y="1353" type="curve" name="dv04" smooth="yes"/>
      <point x="421" y="1635" type="line" smooth="yes"/>
      <point x="421" y="1655"/>
      <point x="431" y="1665" name="dh02"/>
      <point x="451" y="1665" type="curve" smooth="yes"/>
      <point x="684" y="1665" type="line" name="ab01" smooth="yes"/>
      <point x="704" y="1665"/>
      <point x="714" y="1655" name="sh01"/>
      <point x="714" y="1635" type="curve" name="dv02" smooth="yes"/>
      <point x="714" y="1353" type="line" name="sh02" smooth="yes"/>
      <point x="714" y="1333"/>
      <point x="704" y="1323" name="dv01"/>
      <point x="684" y="1323" type="curve" name="sh03" smooth="yes"/>
    </contour>
    <contour>
      <point x="945" y="-12" type="line" name="ih01"/>
      <point x="904" y="-67"/>
      <point x="890" y="-89" name="sh04"/>
      <point x="881" y="-108" type="curve" name="sv01" smooth="yes"/>
      <point x="868" y="-132"/>
      <point x="862" y="-149" name="at01"/>
      <point x="862" y="-168" type="curve" name="sh05" smooth="yes"/>
      <point x="862" y="-215" name="sh06"/>
      <point x="897" y="-256"/>
      <point x="980" y="-256" type="curve" name="sv02" smooth="yes"/>
      <point x="1021" y="-256" name="sh07"/>
      <point x="1075" y="-246"/>
      <point x="1128" y="-225" type="curve"/>
      <point x="1128" y="-381" type="line"/>
      <point x="1056" y="-396"/>
      <point x="992" y="-403"/>
      <point x="941" y="-403" type="curve" smooth="yes"/>
      <point x="785" y="-403"/>
      <point x="700" y="-341"/>
      <point x="700" y="-226" type="curve" smooth="yes"/>
      <point x="700" y="-155"/>
      <point x="733" y="-89"/>
      <point x="802" y="-12" type="curve"/>
      <point x="669" y="-10"/>
      <point x="572" y="26"/>
      <point x="512" y="96" type="curve" smooth="yes"/>
      <point x="451" y="167"/>
      <point x="421" y="287"/>
      <point x="421" y="455" type="curve" smooth="yes"/>
      <point x="421" y="895" type="line"/>
      <point x="184" y="895" type="line"/>
      <point x="184" y="1120" type="line"/>
      <point x="714" y="1120" type="line"/>
      <point x="714" y="455" type="line" smooth="yes"/>
      <point x="714" y="368"/>
      <point x="728" y="305"/>
      <point x="755" y="268" type="curve" smooth="yes"/>
      <point x="782" y="231"/>
      <point x="828" y="213"/>
      <point x="894" y="213" type="curve" smooth="yes"/>
      <point x="1128" y="213" type="line"/>
      <point x="1128" y="-12" type="line"/>
    </contour>
  </outline>
</glyph>
<glyph name="Idotaccent" format="1">
  <advance width="1233"/>
  <unicode hex="0130"/>
  <outline>
    <contour>
      <point x="509" y="1606" type="line" name="dv01" smooth="yes"/>
      <point x="489" y="1606" name="sh01"/>
      <point x="479" y="1616"/>
      <point x="479" y="1636" type="curve" name="dv02" smooth="yes"/>
      <point x="479" y="1822" type="line" smooth="yes"/>
      <point x="479" y="1842" name="sh02"/>
      <point x="489" y="1852"/>
      <point x="509" y="1852" type="curve" smooth="yes"/>
      <point x="724" y="1852" type="line" name="sv01" smooth="yes"/>
      <point x="744" y="1852" name="dh01"/>
      <point x="754" y="1842" name="sv02"/>
      <point x="754" y="1822" type="curve" smooth="yes"/>
      <point x="754" y="1636" type="line" name="at01" smooth="yes"/>
      <point x="754" y="1616"/>
      <point x="744" y="1606" name="sv03"/>
      <point x="724" y="1606" type="curve" name="sv04" smooth="yes"/>
    </contour>
    <contour>
      <point x="172" y="260" type="line" name="dh02"/>
      <point x="469" y="260" type="line" name="sv05"/>
      <point x="469" y="1233" type="line" name="ab01"/>
      <point x="172" y="1233" type="line"/>
      <point x="172" y="1493" type="line"/>
      <point x="1061" y="1493" type="line"/>
      <point x="1061" y="1233" type="line"/>
      <point x="764" y="1233" type="line"/>
      <point x="764" y="260" type="line"/>
      <point x="1061" y="260" type="line"/>
      <point x="1061" y="0" type="line"/>
      <point x="172" y="0" type="line"/>
    </contour>
  </outline>
</glyph>
<glyph name="IJ" format="1">
  <advance width="1233"/>
  <unicode hex="0132"/>
  <outline>
    <contour>
      <point x="135" y="295" type="line" name="hr00"/>
      <point x="509" y="295" type="line" smooth="yes"/>
      <point x="563" y="295"/>
      <point x="612" y="308"/>
      <point x="657" y="335" type="curve"/>
      <point x="748" y="387"/>
      <point x="804" y="483"/>
      <point x="804" y="590" type="curve" smooth="yes"/>
      <point x="804" y="1494" type="line"/>
      <point x="1098" y="1494" type="line"/>
      <point x="1099" y="590" type="line"/>
      <point x="1099" y="483"/>
      <point x="1073" y="384"/>
      <point x="1020" y="295" type="curve" smooth="yes"/>
      <point x="967" y="204"/>
      <point x="895" y="132"/>
      <point x="804" y="79" type="curve" smooth="yes"/>
      <point x="713" y="26"/>
      <point x="615" y="0"/>
      <point x="509" y="0" type="curve" smooth="yes"/>
      <point x="135" y="0" type="line"/>
    </contour>
    <contour>
      <point x="135" y="1493" type="line"/>
      <point x="430" y="1493" type="line"/>
      <point x="430" y="590" type="line"/>
      <point x="135" y="590" type="line"/>
    </contour>
  </outline>
</glyph>
<glyph name="lacute" format="1">
  <advance width="1233"/>
  <unicode hex="013A"/>
  <outline>
    <contour>
      <point x="669" y="1900" type="line" name="av01"/>
      <point x="953" y="1900" type="line"/>
      <point x="667" y="1636" type="line"/>
      <point x="470" y="1636" type="line" name="ih01"/>
    </contour>
    <contour>
      <point x="778" y="-8" type="line" name="ab01" smooth="yes"/>
      <point x="499" y="-8" name="dh01"/>
      <point x="387" y="124" name="sv01"/>
      <point x="387" y="459" type="curve" smooth="yes"/>
      <point x="387" y="1331" type="line" name="at01"/>
      <point x="90" y="1331" type="line"/>
      <point x="90" y="1556" type="line" name="dh02"/>
      <point x="680" y="1556" type="line" name="sv02"/>
      <point x="680" y="459" type="line" smooth="yes"/>
      <point x="680" y="283"/>
      <point x="728" y="217"/>
      <point x="860" y="217" type="curve" smooth="yes"/>
      <point x="1094" y="217" type="line"/>
      <point x="1094" y="-8" type="line"/>
    </contour>
  </outline>
</glyph>
<glyph name="uni013B" format="1">
  <advance width="1233"/>
  <unicode hex="013B"/>
  <outline>
    <contour>
      <point x="225" y="1493" type="line" name="dh01"/>
      <point x="520" y="1493" type="line" name="dh02"/>
      <point x="520" y="260" type="line" name="sv01"/>
      <point x="1151" y="260" type="line"/>
      <point x="1151" y="0" type="line" name="ab01"/>
      <point x="225" y="0" type="line"/>
    </contour>
    <contour>
      <point x="591" y="-158" type="line" name="dv01"/>
      <point x="873" y="-158" type="line"/>
      <point x="696" y="-464" type="line"/>
      <point x="502" y="-464" type="line" name="ih01"/>
    </contour>
  </outline>
</glyph>
<glyph name="uni013C" format="1">
  <advance width="1233"/>
  <unicode hex="013C"/>
  <outline>
    <contour>
      <point x="778" y="-8" type="line" name="ab01" smooth="yes"/>
      <point x="499" y="-8" name="dh01"/>
      <point x="387" y="124" name="sv01"/>
      <point x="387" y="459" type="curve" smooth="yes"/>
      <point x="387" y="1331" type="line" name="at01"/>
      <point x="90" y="1331" type="line"/>
      <point x="90" y="1556" type="line" name="dh02"/>
      <point x="680" y="1556" type="line" name="sv02"/>
      <point x="680" y="459" type="line" smooth="yes"/>
      <point x="680" y="283"/>
      <point x="728" y="217" name="dv02"/>
      <point x="860" y="217" type="curve" smooth="yes"/>
      <point x="1094" y="217" type="line"/>
      <point x="1094" y="-8" type="line" name="dv01"/>
    </contour>
    <contour>
      <point x="465" y="-158" type="line"/>
      <point x="747" y="-158" type="line"/>
      <point x="570" y="-464" type="line"/>
      <point x="376" y="-464" type="line"/>
    </contour>
  </outline>
</glyph>
<glyph name="lcaron" format="1">
  <advance width="1233"/>
  <unicode hex="013E"/>
  <outline>
    <contour>
      <point x="778" y="-8" type="line" name="ab01" smooth="yes"/>
      <point x="499" y="-8" name="dh01"/>
      <point x="387" y="124" name="sv01"/>
      <point x="387" y="459" type="curve" smooth="yes"/>
      <point x="387" y="1331" type="line" name="at01"/>
      <point x="90" y="1331" type="line"/>
      <point x="90" y="1556" type="line" name="dh02"/>
      <point x="680" y="1556" type="line" name="sv02"/>
      <point x="680" y="459" type="line" smooth="yes"/>
      <point x="680" y="283"/>
      <point x="728" y="217" name="at02"/>
      <point x="860" y="217" type="curve" smooth="yes"/>
      <point x="1094" y="217" type="line" name="sv03"/>
      <point x="1094" y="-8" type="line"/>
    </contour>
    <contour>
      <point x="908" y="1556" type="line"/>
      <point x="1190" y="1556" type="line"/>
      <point x="1029" y="1180" type="line"/>
      <point x="832" y="1180" type="line"/>
    </contour>
  </outline>
</glyph>
<glyph name="Lslash" format="1">
  <advance width="1233"/>
  <unicode hex="0141"/>
  <outline>
    <contour>
      <point x="225" y="537" type="line" name="sh01"/>
      <point x="74" y="426" type="line"/>
      <point x="-39" y="580" type="line"/>
      <point x="225" y="768" type="line" name="dh01"/>
      <point x="225" y="1493" type="line" name="at01"/>
      <point x="520" y="1493" type="line" name="sh02"/>
      <point x="520" y="973" type="line" name="iv01"/>
      <point x="795" y="1167" type="line"/>
      <point x="907" y="1014" type="line"/>
      <point x="520" y="741" type="line" name="dh02"/>
      <point x="520" y="260" type="line" name="sv01"/>
      <point x="1151" y="260" type="line"/>
      <point x="1151" y="0" type="line" name="ab01"/>
      <point x="225" y="0" type="line"/>
    </contour>
  </outline>
</glyph>
<glyph name="lslash" format="1">
  <advance width="1233"/>
  <unicode hex="0142"/>
  <outline>
    <contour>
      <point x="801" y="-8" type="line" smooth="yes" name="ab01"/>
      <point x="662" y="-8"/>
      <point x="562" y="28" name="dh01"/>
      <point x="501" y="100" type="curve" smooth="yes" name="iv01"/>
      <point x="440" y="171"/>
      <point x="410" y="291"/>
      <point x="410" y="459" type="curve" smooth="yes" name="sh01"/>
      <point x="410" y="625" type="line" name="sv01"/>
      <point x="137" y="430" type="line"/>
      <point x="37" y="592" type="line" name="at01"/>
      <point x="410" y="856" type="line" name="sh02"/>
      <point x="410" y="1331" type="line" name="iv02"/>
      <point x="115" y="1331" type="line"/>
      <point x="115" y="1556" type="line"/>
      <point x="702" y="1556" type="line"/>
      <point x="702" y="1063" type="line" name="dh02"/>
      <point x="997" y="1272" type="line"/>
      <point x="1100" y="1112" type="line" name="sv02"/>
      <point x="702" y="832" type="line" name="sv03"/>
      <point x="702" y="459" type="line" smooth="yes" name="ab02"/>
      <point x="702" y="371"/>
      <point x="716" y="309"/>
      <point x="744" y="272" type="curve" smooth="yes"/>
      <point x="771" y="236"/>
      <point x="815" y="217"/>
      <point x="883" y="217" type="curve" smooth="yes"/>
      <point x="1116" y="217" type="line"/>
      <point x="1116" y="-8" type="line"/>
    </contour>
  </outline>
</glyph>
<glyph name="uni0146" format="1">
  <advance width="1233"/>
  <unicode hex="0146"/>
  <outline>
    <contour>
      <point x="172" y="1120" type="line" name="sh01"/>
      <point x="434" y="1120" type="line"/>
      <point x="463" y="952" type="line" name="sh02"/>
      <point x="506" y="1081" name="at01"/>
      <point x="610" y="1147"/>
      <point x="753" y="1147" type="curve" name="sh03" smooth="yes"/>
      <point x="961" y="1147" name="ah02"/>
      <point x="1071" y="1008"/>
      <point x="1071" y="727" type="curve" name="sv01" smooth="yes"/>
      <point x="1071" y="0" type="line" name="sh04"/>
      <point x="780" y="0" type="line" name="ab01"/>
      <point x="780" y="682" type="line" smooth="yes"/>
      <point x="780" y="839" name="dv01"/>
      <point x="737" y="909" name="ih01"/>
      <point x="640" y="909" type="curve" smooth="yes"/>
      <point x="523" y="909" name="ih02"/>
      <point x="463" y="810" name="ah01"/>
      <point x="463" y="641" type="curve" name="sh05" smooth="yes"/>
      <point x="463" y="0" type="line"/>
      <point x="172" y="0" type="line"/>
    </contour>
    <contour>
      <point x="525" y="-158" type="line"/>
      <point x="807" y="-158" type="line"/>
      <point x="630" y="-464" type="line"/>
      <point x="436" y="-464" type="line"/>
    </contour>
  </outline>
</glyph>
<glyph name="eng" format="1">
  <advance width="1233"/>
  <unicode hex="014B"/>
  <outline>
    <contour>
      <point x="559" y="-199" type="line" name="dh03"/>
      <point x="598" y="-199" type="line" smooth="yes"/>
      <point x="731" y="-199" name="sh01"/>
      <point x="780" y="-133"/>
      <point x="780" y="43" type="curve" name="sv01" smooth="yes"/>
      <point x="780" y="682" type="line" smooth="yes"/>
      <point x="780" y="839" name="dh02"/>
      <point x="737" y="909" name="dh01"/>
      <point x="640" y="909" type="curve" name="at01" smooth="yes"/>
      <point x="523" y="909"/>
      <point x="463" y="810" name="sh02"/>
      <point x="463" y="641" type="curve" name="at02" smooth="yes"/>
      <point x="463" y="0" type="line"/>
      <point x="172" y="0" type="line" name="dh04"/>
      <point x="172" y="1120" type="line" name="ab01"/>
      <point x="434" y="1120" type="line"/>
      <point x="463" y="952" type="line"/>
      <point x="506" y="1081" name="sh03"/>
      <point x="610" y="1147"/>
      <point x="753" y="1147" type="curve" smooth="yes"/>
      <point x="961" y="1147"/>
      <point x="1071" y="1008"/>
      <point x="1071" y="727" type="curve" smooth="yes"/>
      <point x="1071" y="43" type="line" smooth="yes"/>
      <point x="1071" y="-293"/>
      <point x="960" y="-424"/>
      <point x="680" y="-424" type="curve" smooth="yes"/>
      <point x="559" y="-424" type="line"/>
    </contour>
  </outline>
</glyph>
<glyph name="omacron" format="1">
  <advance width="1233"/>
  <unicode hex="014D"/>
  <outline>
    <contour>
      <point x="301" y="1535" type="line" name="hr00"/>
      <point x="932" y="1535" type="line" name="dv04"/>
      <point x="932" y="1347" type="line" name="dv03"/>
      <point x="301" y="1347" type="line"/>
    </contour>
    <contour>
      <point x="616" y="-29" type="curve" name="dv01" smooth="yes"/>
      <point x="300" y="-29" name="sh01"/>
      <point x="98" y="198" name="at01"/>
      <point x="98" y="559" type="curve" name="sh02" smooth="yes"/>
      <point x="98" y="920"/>
      <point x="300" y="1147" name="dv02"/>
      <point x="616" y="1147" type="curve" name="ah02" smooth="yes"/>
      <point x="933" y="1147" name="sv01"/>
      <point x="1135" y="920" name="sh03"/>
      <point x="1135" y="559" type="curve" smooth="yes"/>
      <point x="1135" y="198" name="ah01"/>
      <point x="933" y="-29" name="sh04"/>
    </contour>
    <contour>
      <point x="616" y="209" type="curve" smooth="yes"/>
      <point x="757" y="209"/>
      <point x="842" y="338"/>
      <point x="842" y="559" type="curve" smooth="yes"/>
      <point x="842" y="778"/>
      <point x="757" y="909"/>
      <point x="616" y="909" type="curve" smooth="yes"/>
      <point x="476" y="909"/>
      <point x="391" y="778"/>
      <point x="391" y="559" type="curve" smooth="yes"/>
      <point x="391" y="338"/>
      <point x="476" y="209"/>
    </contour>
  </outline>
</glyph>
<glyph name="OE" format="1">
  <advance width="1233"/>
  <unicode hex="0152"/>
  <outline>
    <contour>
      <point x="633" y="0" type="line" name="sh01" smooth="yes"/>
      <point x="417" y="0"/>
      <point x="269" y="52" name="sh02"/>
      <point x="189" y="156" type="curve" smooth="yes"/>
      <point x="106" y="263" name="sh03"/>
      <point x="68" y="456"/>
      <point x="68" y="745" type="curve" name="sv01" smooth="yes"/>
      <point x="68" y="1036" name="sh05"/>
      <point x="108" y="1234"/>
      <point x="189" y="1337" type="curve" name="dv02" smooth="yes"/>
      <point x="272" y="1444" name="dv01"/>
      <point x="422" y="1493"/>
      <point x="633" y="1493" type="curve" name="sh04" smooth="yes"/>
      <point x="1206" y="1493" type="line"/>
      <point x="1206" y="1233" type="line"/>
      <point x="874" y="1233" type="line" name="ah02"/>
      <point x="874" y="922" type="line" name="sv02"/>
      <point x="1176" y="922" type="line" name="sv03"/>
      <point x="1176" y="662" type="line"/>
      <point x="874" y="662" type="line" name="sh06"/>
      <point x="874" y="260" type="line"/>
      <point x="1217" y="260" type="line" name="sv04"/>
      <point x="1217" y="0" type="line" name="ah01"/>
    </contour>
    <contour>
      <point x="621" y="260" type="line"/>
      <point x="621" y="1233" type="line"/>
      <point x="569" y="1233" type="line" smooth="yes"/>
      <point x="485" y="1233"/>
      <point x="428" y="1200"/>
      <point x="400" y="1144" type="curve" smooth="yes"/>
      <point x="369" y="1084"/>
      <point x="354" y="962"/>
      <point x="354" y="745" type="curve" smooth="yes"/>
      <point x="354" y="527"/>
      <point x="370" y="406"/>
      <point x="400" y="347" type="curve" smooth="yes"/>
      <point x="431" y="286"/>
      <point x="490" y="260"/>
      <point x="569" y="260" type="curve" smooth="yes"/>
    </contour>
  </outline>
</glyph>
<glyph name="oe" format="1">
  <advance width="1233"/>
  <unicode hex="0153"/>
  <outline>
    <contour>
      <point x="374" y="-29" type="curve" smooth="yes" name="dv01"/>
      <point x="239" y="-29"/>
      <point x="154" y="21" name="dh01"/>
      <point x="99" y="109" type="curve" smooth="yes"/>
      <point x="39" y="205" name="at01"/>
      <point x="14" y="356"/>
      <point x="14" y="560" type="curve" smooth="yes" name="ih01"/>
      <point x="14" y="768"/>
      <point x="40" y="916" name="at02"/>
      <point x="99" y="1011" type="curve" smooth="yes"/>
      <point x="155" y="1103"/>
      <point x="244" y="1147" name="dv03"/>
      <point x="377" y="1147" type="curve" smooth="yes" name="dh04"/>
      <point x="440" y="1147"/>
      <point x="492" y="1137" name="sv02"/>
      <point x="533" y="1118" type="curve" smooth="yes"/>
      <point x="574" y="1099" name="dh06"/>
      <point x="609" y="1067"/>
      <point x="637" y="1022" type="curve"/>
      <point x="656" y="1062" name="sv03"/>
      <point x="687" y="1093"/>
      <point x="730" y="1115" type="curve" smooth="yes" name="ih02"/>
      <point x="773" y="1136"/>
      <point x="825" y="1147"/>
      <point x="888" y="1147" type="curve" smooth="yes" name="dv02"/>
      <point x="1003" y="1147"/>
      <point x="1088" y="1108" name="dh03"/>
      <point x="1137" y="1028" type="curve" smooth="yes"/>
      <point x="1186" y="949" name="sv01"/>
      <point x="1210" y="809"/>
      <point x="1210" y="606" type="curve" smooth="yes" name="dh02"/>
      <point x="1210" y="479" type="line"/>
      <point x="760" y="479" type="line"/>
      <point x="760" y="384" name="dh05"/>
      <point x="777" y="311"/>
      <point x="810" y="260" type="curve" smooth="yes"/>
      <point x="843" y="209" name="sv04"/>
      <point x="891" y="184"/>
      <point x="955" y="184" type="curve" smooth="yes" name="sh01"/>
      <point x="999" y="184"/>
      <point x="1037" y="195"/>
      <point x="1074" y="214" type="curve" smooth="yes" name="sh02"/>
      <point x="1113" y="233"/>
      <point x="1151" y="258"/>
      <point x="1194" y="301" type="curve"/>
      <point x="1194" y="57" type="line"/>
      <point x="1161" y="28"/>
      <point x="1124" y="6"/>
      <point x="1083" y="-8" type="curve" smooth="yes"/>
      <point x="1042" y="-22"/>
      <point x="994" y="-29"/>
      <point x="939" y="-29" type="curve" smooth="yes"/>
      <point x="871" y="-29"/>
      <point x="814" y="-17"/>
      <point x="767" y="8" type="curve" smooth="yes"/>
      <point x="720" y="33"/>
      <point x="680" y="70"/>
      <point x="649" y="119" type="curve"/>
      <point x="621" y="70"/>
      <point x="587" y="32"/>
      <point x="540" y="7" type="curve" smooth="yes"/>
      <point x="495" y="-17"/>
      <point x="439" y="-29"/>
    </contour>
    <contour>
      <point x="385" y="184" type="curve" smooth="yes"/>
      <point x="445" y="184"/>
      <point x="473" y="210"/>
      <point x="490" y="251" type="curve" smooth="yes"/>
      <point x="509" y="300"/>
      <point x="520" y="384"/>
      <point x="520" y="558" type="curve" smooth="yes"/>
      <point x="520" y="746"/>
      <point x="509" y="825"/>
      <point x="490" y="868" type="curve" smooth="yes"/>
      <point x="471" y="913"/>
      <point x="439" y="934"/>
      <point x="384" y="934" type="curve" smooth="yes"/>
      <point x="333" y="934"/>
      <point x="299" y="915"/>
      <point x="279" y="868" type="curve" smooth="yes"/>
      <point x="256" y="817"/>
      <point x="248" y="724"/>
      <point x="248" y="560" type="curve" smooth="yes"/>
      <point x="248" y="379"/>
      <point x="258" y="295"/>
      <point x="279" y="250" type="curve" smooth="yes"/>
      <point x="298" y="209"/>
      <point x="326" y="184"/>
    </contour>
    <contour>
      <point x="985" y="690" type="line"/>
      <point x="985" y="725" type="line" smooth="yes"/>
      <point x="985" y="801"/>
      <point x="979" y="854"/>
      <point x="960" y="887" type="curve" smooth="yes"/>
      <point x="943" y="918"/>
      <point x="914" y="934"/>
      <point x="873" y="934" type="curve" smooth="yes"/>
      <point x="828" y="934"/>
      <point x="801" y="917"/>
      <point x="785" y="886" type="curve" smooth="yes"/>
      <point x="770" y="857"/>
      <point x="760" y="812"/>
      <point x="760" y="713" type="curve" smooth="yes"/>
      <point x="760" y="690" type="line"/>
    </contour>
  </outline>
</glyph>
<glyph name="Racute" format="1">
  <advance width="1233"/>
  <unicode hex="0154"/>
  <outline>
    <contour>
      <point x="669" y="1853" type="line" name="av01"/>
      <point x="953" y="1853" type="line" name="ih01"/>
      <point x="667" y="1589" type="line"/>
      <point x="470" y="1589" type="line" name="ih02"/>
    </contour>
    <contour>
      <point x="133" y="1493" type="line" name="sh02"/>
      <point x="559" y="1493" type="line" smooth="yes"/>
      <point x="934" y="1493" name="sh01"/>
      <point x="1098" y="1366" name="sh03"/>
      <point x="1098" y="1074" type="curve" smooth="yes"/>
      <point x="1098" y="846" name="ab01"/>
      <point x="998" y="732"/>
      <point x="807" y="705" type="curve"/>
      <point x="867" y="691"/>
      <point x="898" y="663" name="dv01"/>
      <point x="963" y="537" type="curve" name="sh05"/>
      <point x="1233" y="0" type="line" name="ab02"/>
      <point x="909" y="0" type="line"/>
      <point x="729" y="377" type="line" name="dv02"/>
      <point x="708" y="421" type="line" smooth="yes" name="ah02"/>
      <point x="652" y="536" name="sv01"/>
      <point x="597" y="590" name="sh04"/>
      <point x="522" y="590" type="curve" smooth="yes"/>
      <point x="428" y="590" type="line" name="ah01"/>
      <point x="428" y="0" type="line" name="sh06"/>
      <point x="133" y="0" type="line"/>
    </contour>
    <contour>
      <point x="567" y="838" type="line" smooth="yes"/>
      <point x="728" y="838"/>
      <point x="793" y="896"/>
      <point x="793" y="1043" type="curve" smooth="yes"/>
      <point x="793" y="1187"/>
      <point x="730" y="1245"/>
      <point x="567" y="1245" type="curve" smooth="yes"/>
      <point x="428" y="1245" type="line"/>
      <point x="428" y="838" type="line"/>
    </contour>
  </outline>
</glyph>
<glyph name="uni0157" format="1">
  <advance width="1233"/>
  <unicode hex="0157"/>
  <outline>
    <contour>
      <point x="291" y="1120" type="line" name="dh01"/>
      <point x="555" y="1120" type="line"/>
      <point x="584" y="946" type="line" name="dh02"/>
      <point x="641" y="1075" name="at01"/>
      <point x="766" y="1147"/>
      <point x="923" y="1147" type="curve" name="iv01" smooth="yes"/>
      <point x="1006" y="1147" name="sv01"/>
      <point x="1082" y="1127"/>
      <point x="1151" y="1090" type="curve" name="sh01"/>
      <point x="1151" y="811" type="line" name="ab01"/>
      <point x="1087" y="871"/>
      <point x="1001" y="899" name="dv02"/>
      <point x="897" y="899" type="curve" smooth="yes"/>
      <point x="766" y="899"/>
      <point x="678" y="852" name="dv01"/>
      <point x="627" y="772" type="curve" smooth="yes"/>
      <point x="595" y="721"/>
      <point x="584" y="663"/>
      <point x="584" y="516" type="curve" smooth="yes"/>
      <point x="584" y="0" type="line"/>
      <point x="291" y="0" type="line"/>
    </contour>
    <contour>
      <point x="341" y="-158" type="line"/>
      <point x="623" y="-158" type="line"/>
      <point x="446" y="-464" type="line"/>
      <point x="252" y="-464" type="line"/>
    </contour>
  </outline>
</glyph>
<glyph name="Sacute" format="1">
  <advance width="1233"/>
  <unicode hex="015A"/>
  <outline>
    <contour>
      <point x="699" y="1853" type="line" name="av01"/>
      <point x="983" y="1853" type="line" name="ih01"/>
      <point x="697" y="1589" type="line"/>
      <point x="500" y="1589" type="line" name="ih02"/>
    </contour>
    <contour>
      <point x="584" y="-29" type="curve" smooth="yes" name="dv01"/>
      <point x="420" y="-29" name="sh03"/>
      <point x="280" y="4" name="ih03"/>
      <point x="135" y="76" type="curve" name="dv02"/>
      <point x="135" y="381" type="line" name="ah02"/>
      <point x="288" y="270"/>
      <point x="439" y="215"/>
      <point x="576" y="215" type="curve" smooth="yes" name="sh02"/>
      <point x="729" y="215" name="at01"/>
      <point x="811" y="283"/>
      <point x="811" y="399" type="curve" smooth="yes" name="ih04"/>
      <point x="811" y="495" name="sv01"/>
      <point x="755" y="561" name="sh04"/>
      <point x="655" y="600" type="curve" smooth="yes"/>
      <point x="510" y="655" type="line" smooth="yes"/>
      <point x="219" y="764"/>
      <point x="129" y="876" name="sh01"/>
      <point x="129" y="1075" type="curve" smooth="yes"/>
      <point x="129" y="1360" name="ah01"/>
      <point x="313" y="1520" name="sh05"/>
      <point x="616" y="1520" type="curve" smooth="yes"/>
      <point x="753" y="1520"/>
      <point x="890" y="1488"/>
      <point x="1026" y="1427" type="curve"/>
      <point x="1026" y="1139" type="line"/>
      <point x="898" y="1228"/>
      <point x="768" y="1276"/>
      <point x="639" y="1276" type="curve" smooth="yes"/>
      <point x="495" y="1276"/>
      <point x="418" y="1216"/>
      <point x="418" y="1112" type="curve" smooth="yes"/>
      <point x="418" y="1069"/>
      <point x="432" y="1035"/>
      <point x="460" y="1008" type="curve" smooth="yes"/>
      <point x="487" y="981"/>
      <point x="534" y="955"/>
      <point x="633" y="918" type="curve" smooth="yes"/>
      <point x="760" y="870" type="line" smooth="yes"/>
      <point x="1007" y="777"/>
      <point x="1110" y="641"/>
      <point x="1110" y="417" type="curve" smooth="yes"/>
      <point x="1110" y="118"/>
      <point x="925" y="-29"/>
    </contour>
  </outline>
</glyph>
